<svg xmlns="http://www.w3.org/2000/svg" xmlns:xlink="http://www.w3.org/1999/xlink" width="500" zoomAndPan="magnify" viewBox="0 0 375.12 383.03998" height="500" preserveAspectRatio="xMidYMid meet" version="1.0"><defs><clipPath id="9236693916"><path d="M 0.03125 17.003906 L 374.09375 17.003906 L 374.09375 357.058594 L 0.03125 357.058594 Z M 0.03125 17.003906 " clip-rule="nonzero"/></clipPath><clipPath id="7b9c2bc9b0"><path d="M 369.117188 88.859375 C 357.28125 48.679688 319.085938 17.003906 273.917969 17.003906 C 236 17.003906 203.054688 38.398438 186.398438 69.824219 C 169.746094 38.398438 136.804688 17.003906 98.882812 17.003906 C 51.636719 17.003906 10.316406 48.679688 2.203125 94.65625 C -18.371094 211.238281 112.027344 302.492188 186.691406 357.058594 C 255.726562 306.609375 402.945312 203.738281 369.117188 88.859375 Z M 369.117188 88.859375 " clip-rule="nonzero"/></clipPath><clipPath id="a893088d68"><path d="M 0.03125 0.00390625 L 374.09375 0.00390625 L 374.09375 340.058594 L 0.03125 340.058594 Z M 0.03125 0.00390625 " clip-rule="nonzero"/></clipPath><clipPath id="b584198fa6"><path d="M 369.117188 71.859375 C 357.28125 31.679688 319.085938 0.00390625 273.917969 0.00390625 C 236 0.00390625 203.054688 21.398438 186.398438 52.824219 C 169.746094 21.398438 136.804688 0.00390625 98.882812 0.00390625 C 51.636719 0.00390625 10.316406 31.679688 2.203125 77.65625 C -18.371094 194.238281 112.027344 285.492188 186.691406 340.058594 C 255.726562 289.609375 402.945312 186.738281 369.117188 71.859375 Z M 369.117188 71.859375 " clip-rule="nonzero"/></clipPath><clipPath id="ce5f462110"><rect x="0" width="375" y="0" height="341"/></clipPath><clipPath id="2a80aca6c4"><path d="M 0.03125 17.003906 L 374.09375 17.003906 L 374.09375 357.050781 L 0.03125 357.050781 Z M 0.03125 17.003906 " clip-rule="nonzero"/></clipPath><clipPath id="7564c694c4"><path d="M 369.109375 88.855469 C 357.277344 48.679688 319.082031 17.003906 273.917969 17.003906 C 235.996094 17.003906 203.054688 38.398438 186.398438 69.824219 C 169.746094 38.398438 136.804688 17.003906 98.886719 17.003906 C 51.644531 17.003906 10.320312 48.679688 2.210938 94.652344 C -18.363281 211.230469 112.03125 302.484375 186.691406 357.050781 C 255.722656 306.601562 402.941406 203.734375 369.109375 88.855469 Z M 369.109375 88.855469 " clip-rule="nonzero"/></clipPath></defs><g clip-path="url(#9236693916)"><g clip-path="url(#7b9c2bc9b0)"><g transform="matrix(1, 0, 0, 1, 0, 17)"><g clip-path="url(#ce5f462110)"><g clip-path="url(#a893088d68)"><g clip-path="url(#b584198fa6)"><path fill="#ffbdbd" d="M 0.03125 0.00390625 L 374.625 0.00390625 L 374.625 340.058594 L 0.03125 340.058594 Z M 0.03125 0.00390625 " fill-opacity="1" fill-rule="nonzero"/></g></g></g></g></g></g><g clip-path="url(#2a80aca6c4)"><g clip-path="url(#7564c694c4)"><path stroke-linecap="butt" transform="matrix(0.748125, 0, 0, 0.748125, 0.0300098, 17.002863)" fill="none" stroke-linejoin="miter" d="M 493.339215 96.043592 C 477.523632 42.341624 426.468907 0.00139424 366.099228 0.00139424 C 315.41 0.00139424 271.378041 28.598932 249.114045 70.604993 C 226.855271 28.598932 182.823312 0.00139424 132.139306 0.00139424 C 68.991848 0.00139424 13.754792 42.341624 2.915192 103.792131 C -24.585855 259.619213 149.709274 381.596042 249.505649 454.533601 C 341.778006 387.099384 538.56165 249.599371 493.339215 96.043592 Z M 493.339215 96.043592 " stroke="#000000" stroke-width="8" stroke-opacity="1" stroke-miterlimit="4"/></g></g></svg>