<svg xmlns="http://www.w3.org/2000/svg" xmlns:xlink="http://www.w3.org/1999/xlink" width="500" zoomAndPan="magnify" viewBox="0 0 375.12 383.03998" height="500" preserveAspectRatio="xMidYMid meet" version="1.0"><defs><filter x="0%" y="0%" width="100%" height="100%" id="8b19fd879f"><feColorMatrix values="0 0 0 0 1 0 0 0 0 1 0 0 0 0 1 0 0 0 1 0" color-interpolation-filters="sRGB"/></filter><mask id="2feae93d7d"><g filter="url(#8b19fd879f)"><rect x="-37.512" width="450.144" fill="#000000" y="-38.303998" height="459.647976" fill-opacity="0.6"/></g></mask><clipPath id="666bcdc983"><path d="M 1 0.292969 L 303 0.292969 L 303 340 L 1 340 Z M 1 0.292969 " clip-rule="nonzero"/></clipPath><clipPath id="b959c789ef"><rect x="0" width="304" y="0" height="341"/></clipPath><mask id="0775205ea7"><g filter="url(#8b19fd879f)"><rect x="-37.512" width="450.144" fill="#000000" y="-38.303998" height="459.647976" fill-opacity="0.5"/></g></mask><clipPath id="3031cb4bad"><path d="M 0.445312 0.238281 L 296 0.238281 L 296 24 L 0.445312 24 Z M 0.445312 0.238281 " clip-rule="nonzero"/></clipPath><clipPath id="f3a5da8b7b"><rect x="0" width="297" y="0" height="25"/></clipPath><mask id="29440cea9a"><g filter="url(#8b19fd879f)"><rect x="-37.512" width="450.144" fill="#000000" y="-38.303998" height="459.647976" fill-opacity="0.5"/></g></mask><clipPath id="7d9499ed95"><rect x="0" width="302" y="0" height="26"/></clipPath><mask id="3772bc7178"><g filter="url(#8b19fd879f)"><rect x="-37.512" width="450.144" fill="#000000" y="-38.303998" height="459.647976" fill-opacity="0.5"/></g></mask><clipPath id="4622871dd8"><path d="M 1 0.152344 L 302 0.152344 L 302 24.570312 L 1 24.570312 Z M 1 0.152344 " clip-rule="nonzero"/></clipPath><clipPath id="c26af8dddc"><rect x="0" width="303" y="0" height="25"/></clipPath><mask id="6a0d626596"><g filter="url(#8b19fd879f)"><rect x="-37.512" width="450.144" fill="#000000" y="-38.303998" height="459.647976" fill-opacity="0.5"/></g></mask><clipPath id="61e32ba721"><path d="M 1 1 L 286.597656 1 L 286.597656 16 L 1 16 Z M 1 1 " clip-rule="nonzero"/></clipPath><clipPath id="c2a168467b"><rect x="0" width="287" y="0" height="17"/></clipPath><mask id="47aeefadf7"><g filter="url(#8b19fd879f)"><rect x="-37.512" width="450.144" fill="#000000" y="-38.303998" height="459.647976" fill-opacity="0.5"/></g></mask><clipPath id="709826c597"><path d="M 1 0.292969 L 290.554688 0.292969 L 290.554688 20 L 1 20 Z M 1 0.292969 " clip-rule="nonzero"/></clipPath><clipPath id="624293de01"><rect x="0" width="291" y="0" height="21"/></clipPath><mask id="fa8a47414e"><g filter="url(#8b19fd879f)"><rect x="-37.512" width="450.144" fill="#000000" y="-38.303998" height="459.647976" fill-opacity="0.5"/></g></mask><clipPath id="1fa5deab27"><path d="M 1 0.46875 L 303 0.46875 L 303 24.890625 L 1 24.890625 Z M 1 0.46875 " clip-rule="nonzero"/></clipPath><clipPath id="0812c6444d"><rect x="0" width="304" y="0" height="25"/></clipPath><mask id="e9d8f57db4"><g filter="url(#8b19fd879f)"><rect x="-37.512" width="450.144" fill="#000000" y="-38.303998" height="459.647976" fill-opacity="0.5"/></g></mask><clipPath id="14d7e31792"><path d="M 1 0.148438 L 298 0.148438 L 298 24 L 1 24 Z M 1 0.148438 " clip-rule="nonzero"/></clipPath><clipPath id="61b972ec67"><rect x="0" width="299" y="0" height="25"/></clipPath><mask id="e1d4e0cce7"><g filter="url(#8b19fd879f)"><rect x="-37.512" width="450.144" fill="#000000" y="-38.303998" height="459.647976" fill-opacity="0.5"/></g></mask><clipPath id="7bf007b7cc"><path d="M 0.617188 1 L 301 1 L 301 25.25 L 0.617188 25.25 Z M 0.617188 1 " clip-rule="nonzero"/></clipPath><clipPath id="b664f64131"><rect x="0" width="302" y="0" height="26"/></clipPath><mask id="de00fa2576"><g filter="url(#8b19fd879f)"><rect x="-37.512" width="450.144" fill="#000000" y="-38.303998" height="459.647976" fill-opacity="0.5"/></g></mask><clipPath id="dde219a03d"><path d="M 1 0.25 L 26 0.25 L 26 338 L 1 338 Z M 1 0.25 " clip-rule="nonzero"/></clipPath><clipPath id="0e3d378c8f"><rect x="0" width="27" y="0" height="339"/></clipPath><mask id="4428b497cf"><g filter="url(#8b19fd879f)"><rect x="-37.512" width="450.144" fill="#000000" y="-38.303998" height="459.647976" fill-opacity="0.5"/></g></mask><clipPath id="b89197fd68"><path d="M 0.363281 0.125 L 24.78125 0.125 L 24.78125 333 L 0.363281 333 Z M 0.363281 0.125 " clip-rule="nonzero"/></clipPath><clipPath id="a04ee572d6"><rect x="0" width="25" y="0" height="334"/></clipPath><mask id="dba46e41ae"><g filter="url(#8b19fd879f)"><rect x="-37.512" width="450.144" fill="#000000" y="-38.303998" height="459.647976" fill-opacity="0.5"/></g></mask><clipPath id="851afbf456"><path d="M 0.445312 0.292969 L 24.863281 0.292969 L 24.863281 340 L 0.445312 340 Z M 0.445312 0.292969 " clip-rule="nonzero"/></clipPath><clipPath id="79e0cb95b0"><rect x="0" width="25" y="0" height="341"/></clipPath><mask id="4dde04d070"><g filter="url(#8b19fd879f)"><rect x="-37.512" width="450.144" fill="#000000" y="-38.303998" height="459.647976" fill-opacity="0.5"/></g></mask><clipPath id="4a72c874b5"><path d="M 1 0.628906 L 14 0.628906 L 14 324 L 1 324 Z M 1 0.628906 " clip-rule="nonzero"/></clipPath><clipPath id="e035e59e77"><rect x="0" width="15" y="0" height="325"/></clipPath><mask id="0d2a3c24b8"><g filter="url(#8b19fd879f)"><rect x="-37.512" width="450.144" fill="#000000" y="-38.303998" height="459.647976" fill-opacity="0.5"/></g></mask><clipPath id="325ae0d35e"><path d="M 1 1 L 24.871094 1 L 24.871094 335 L 1 335 Z M 1 1 " clip-rule="nonzero"/></clipPath><clipPath id="bb32850256"><rect x="0" width="25" y="0" height="336"/></clipPath><mask id="9029b02a48"><g filter="url(#8b19fd879f)"><rect x="-37.512" width="450.144" fill="#000000" y="-38.303998" height="459.647976" fill-opacity="0.5"/></g></mask><clipPath id="4d8f4f4b0e"><path d="M 0.769531 0.25 L 25 0.25 L 25 339 L 0.769531 339 Z M 0.769531 0.25 " clip-rule="nonzero"/></clipPath><clipPath id="a168d4aede"><rect x="0" width="26" y="0" height="340"/></clipPath><mask id="e0f32b5b03"><g filter="url(#8b19fd879f)"><rect x="-37.512" width="450.144" fill="#000000" y="-38.303998" height="459.647976" fill-opacity="0.5"/></g></mask><clipPath id="77387ca0d2"><path d="M 0.128906 0.292969 L 24.546875 0.292969 L 24.546875 340 L 0.128906 340 Z M 0.128906 0.292969 " clip-rule="nonzero"/></clipPath><clipPath id="37ba261cca"><rect x="0" width="25" y="0" height="341"/></clipPath><clipPath id="3da2b6906a"><path d="M 12.613281 281 L 22 281 L 22 304 L 12.613281 304 Z M 12.613281 281 " clip-rule="nonzero"/></clipPath><clipPath id="f888062991"><path d="M 347 32 L 361.238281 32 L 361.238281 54 L 347 54 Z M 347 32 " clip-rule="nonzero"/></clipPath><clipPath id="97bab48007"><path d="M 65.609375 54.816406 L 320.683594 54.816406 L 320.683594 330.8125 L 65.609375 330.8125 Z M 65.609375 54.816406 " clip-rule="nonzero"/></clipPath><clipPath id="287fed13d2"><path d="M 73.09375 54.816406 L 313.203125 54.816406 C 315.1875 54.816406 317.089844 55.605469 318.492188 57.007812 C 319.898438 58.410156 320.683594 60.3125 320.683594 62.296875 L 320.683594 323.3125 C 320.683594 325.296875 319.898438 327.203125 318.492188 328.605469 C 317.089844 330.007812 315.1875 330.796875 313.203125 330.796875 L 73.09375 330.796875 C 71.109375 330.796875 69.203125 330.007812 67.800781 328.605469 C 66.398438 327.203125 65.609375 325.296875 65.609375 323.3125 L 65.609375 62.296875 C 65.609375 60.3125 66.398438 58.410156 67.800781 57.007812 C 69.203125 55.605469 71.109375 54.816406 73.09375 54.816406 Z M 73.09375 54.816406 " clip-rule="nonzero"/></clipPath><clipPath id="9dddb48deb"><path d="M 0.609375 0.816406 L 255.683594 0.816406 L 255.683594 276.8125 L 0.609375 276.8125 Z M 0.609375 0.816406 " clip-rule="nonzero"/></clipPath><clipPath id="0d5e1d5d3a"><path d="M 8.09375 0.816406 L 248.203125 0.816406 C 250.1875 0.816406 252.089844 1.605469 253.492188 3.007812 C 254.898438 4.410156 255.683594 6.3125 255.683594 8.296875 L 255.683594 269.3125 C 255.683594 271.296875 254.898438 273.203125 253.492188 274.605469 C 252.089844 276.007812 250.1875 276.796875 248.203125 276.796875 L 8.09375 276.796875 C 6.109375 276.796875 4.203125 276.007812 2.800781 274.605469 C 1.398438 273.203125 0.609375 271.296875 0.609375 269.3125 L 0.609375 8.296875 C 0.609375 6.3125 1.398438 4.410156 2.800781 3.007812 C 4.203125 1.605469 6.109375 0.816406 8.09375 0.816406 Z M 8.09375 0.816406 " clip-rule="nonzero"/></clipPath><clipPath id="2190c3d739"><rect x="0" width="256" y="0" height="277"/></clipPath><clipPath id="29d472f8b0"><path d="M 65.609375 54.820312 L 320.722656 54.820312 L 320.722656 330.875 L 65.609375 330.875 Z M 65.609375 54.820312 " clip-rule="nonzero"/></clipPath><clipPath id="e2861f3e18"><path d="M 73.089844 54.820312 L 313.195312 54.820312 C 315.179688 54.820312 317.082031 55.609375 318.484375 57.011719 C 319.886719 58.414062 320.675781 60.316406 320.675781 62.300781 L 320.675781 323.308594 C 320.675781 325.292969 319.886719 327.195312 318.484375 328.597656 C 317.082031 330 315.179688 330.789062 313.195312 330.789062 L 73.089844 330.789062 C 71.109375 330.789062 69.203125 330 67.800781 328.597656 C 66.398438 327.195312 65.609375 325.292969 65.609375 323.308594 L 65.609375 62.300781 C 65.609375 60.316406 66.398438 58.414062 67.800781 57.011719 C 69.203125 55.609375 71.109375 54.820312 73.089844 54.820312 Z M 73.089844 54.820312 " clip-rule="nonzero"/></clipPath><clipPath id="9ccbd111e7"><path d="M 52.140625 23.9375 L 79.078125 23.9375 L 79.078125 50.875 L 52.140625 50.875 Z M 52.140625 23.9375 " clip-rule="nonzero"/></clipPath><clipPath id="5b9a32a515"><path d="M 65.609375 23.9375 C 58.171875 23.9375 52.140625 29.96875 52.140625 37.40625 C 52.140625 44.84375 58.171875 50.875 65.609375 50.875 C 73.050781 50.875 79.078125 44.84375 79.078125 37.40625 C 79.078125 29.96875 73.050781 23.9375 65.609375 23.9375 Z M 65.609375 23.9375 " clip-rule="nonzero"/></clipPath><clipPath id="e9807c7f3f"><path d="M 0.140625 0.9375 L 27.078125 0.9375 L 27.078125 27.875 L 0.140625 27.875 Z M 0.140625 0.9375 " clip-rule="nonzero"/></clipPath><clipPath id="7f603d8981"><path d="M 13.609375 0.9375 C 6.171875 0.9375 0.140625 6.96875 0.140625 14.40625 C 0.140625 21.84375 6.171875 27.875 13.609375 27.875 C 21.050781 27.875 27.078125 21.84375 27.078125 14.40625 C 27.078125 6.96875 21.050781 0.9375 13.609375 0.9375 Z M 13.609375 0.9375 " clip-rule="nonzero"/></clipPath><clipPath id="bc161c4643"><rect x="0" width="28" y="0" height="28"/></clipPath><clipPath id="b012c595f3"><path d="M 52.140625 23.9375 L 79.074219 23.9375 L 79.074219 50.871094 L 52.140625 50.871094 Z M 52.140625 23.9375 " clip-rule="nonzero"/></clipPath><clipPath id="03eee0bdd9"><path d="M 65.609375 23.9375 C 58.171875 23.9375 52.140625 29.96875 52.140625 37.402344 C 52.140625 44.839844 58.171875 50.871094 65.609375 50.871094 C 73.046875 50.871094 79.074219 44.839844 79.074219 37.402344 C 79.074219 29.96875 73.046875 23.9375 65.609375 23.9375 Z M 65.609375 23.9375 " clip-rule="nonzero"/></clipPath><clipPath id="9cd346bf52"><path d="M 56 28 L 75 28 L 75 47 L 56 47 Z M 56 28 " clip-rule="nonzero"/></clipPath><clipPath id="e7a332437b"><path d="M 65.609375 23.9375 L 79.078125 37.40625 L 65.609375 50.875 L 52.140625 37.40625 Z M 65.609375 23.9375 " clip-rule="nonzero"/></clipPath><clipPath id="952cd52640"><path d="M 74.339844 32.667969 L 70.347656 28.675781 C 70.207031 28.535156 70.015625 28.457031 69.816406 28.457031 C 69.617188 28.457031 69.429688 28.535156 69.289062 28.675781 L 66.136719 31.828125 C 65.996094 31.96875 65.808594 32.046875 65.609375 32.046875 C 65.410156 32.046875 65.21875 31.96875 65.078125 31.828125 L 61.929688 28.675781 C 61.789062 28.535156 61.597656 28.457031 61.398438 28.457031 C 61.199219 28.457031 61.011719 28.535156 60.871094 28.675781 L 56.878906 32.667969 C 56.738281 32.808594 56.660156 33 56.660156 33.199219 C 56.660156 33.398438 56.738281 33.585938 56.878906 33.726562 L 60.027344 36.878906 C 60.167969 37.019531 60.246094 37.207031 60.246094 37.40625 C 60.246094 37.605469 60.167969 37.796875 60.027344 37.9375 L 56.878906 41.085938 C 56.738281 41.226562 56.660156 41.417969 56.660156 41.617188 C 56.660156 41.816406 56.738281 42.003906 56.878906 42.144531 L 60.871094 46.136719 C 61.011719 46.277344 61.199219 46.355469 61.398438 46.355469 C 61.597656 46.355469 61.789062 46.277344 61.929688 46.136719 L 65.078125 42.988281 C 65.21875 42.847656 65.410156 42.769531 65.609375 42.769531 C 65.808594 42.769531 65.996094 42.847656 66.136719 42.988281 L 69.289062 46.136719 C 69.429688 46.277344 69.617188 46.355469 69.816406 46.355469 C 70.015625 46.355469 70.207031 46.277344 70.347656 46.136719 L 74.339844 42.144531 C 74.480469 42.003906 74.558594 41.816406 74.558594 41.617188 C 74.558594 41.417969 74.480469 41.226562 74.339844 41.085938 L 71.1875 37.9375 C 71.046875 37.796875 70.96875 37.605469 70.96875 37.40625 C 70.96875 37.207031 71.046875 37.019531 71.1875 36.878906 L 74.339844 33.726562 C 74.480469 33.585938 74.558594 33.398438 74.558594 33.199219 C 74.558594 33 74.480469 32.808594 74.339844 32.667969 Z M 74.339844 32.667969 " clip-rule="nonzero"/></clipPath><clipPath id="89ab9a4f53"><path d="M 0.527344 0.25 L 18.722656 0.25 L 18.722656 18.445312 L 0.527344 18.445312 Z M 0.527344 0.25 " clip-rule="nonzero"/></clipPath><clipPath id="3a47eef6d5"><path d="M 9.609375 -4.0625 L 23.078125 9.40625 L 9.609375 22.875 L -3.859375 9.40625 Z M 9.609375 -4.0625 " clip-rule="nonzero"/></clipPath><clipPath id="caea289809"><path d="M 18.339844 4.667969 L 14.347656 0.675781 C 14.207031 0.535156 14.015625 0.457031 13.816406 0.457031 C 13.617188 0.457031 13.429688 0.535156 13.289062 0.675781 L 10.136719 3.828125 C 9.996094 3.96875 9.808594 4.046875 9.609375 4.046875 C 9.410156 4.046875 9.21875 3.96875 9.078125 3.828125 L 5.929688 0.675781 C 5.789062 0.535156 5.597656 0.457031 5.398438 0.457031 C 5.199219 0.457031 5.011719 0.535156 4.871094 0.675781 L 0.878906 4.667969 C 0.738281 4.808594 0.660156 5 0.660156 5.199219 C 0.660156 5.398438 0.738281 5.585938 0.878906 5.726562 L 4.027344 8.878906 C 4.167969 9.019531 4.246094 9.207031 4.246094 9.40625 C 4.246094 9.605469 4.167969 9.796875 4.027344 9.9375 L 0.878906 13.085938 C 0.738281 13.226562 0.660156 13.417969 0.660156 13.617188 C 0.660156 13.816406 0.738281 14.003906 0.878906 14.144531 L 4.871094 18.136719 C 5.011719 18.277344 5.199219 18.355469 5.398438 18.355469 C 5.597656 18.355469 5.789062 18.277344 5.929688 18.136719 L 9.078125 14.988281 C 9.21875 14.847656 9.410156 14.769531 9.609375 14.769531 C 9.808594 14.769531 9.996094 14.847656 10.136719 14.988281 L 13.289062 18.136719 C 13.429688 18.277344 13.617188 18.355469 13.816406 18.355469 C 14.015625 18.355469 14.207031 18.277344 14.347656 18.136719 L 18.339844 14.144531 C 18.480469 14.003906 18.558594 13.816406 18.558594 13.617188 C 18.558594 13.417969 18.480469 13.226562 18.339844 13.085938 L 15.1875 9.9375 C 15.046875 9.796875 14.96875 9.605469 14.96875 9.40625 C 14.96875 9.207031 15.046875 9.019531 15.1875 8.878906 L 18.339844 5.726562 C 18.480469 5.585938 18.558594 5.398438 18.558594 5.199219 C 18.558594 5 18.480469 4.808594 18.339844 4.667969 Z M 18.339844 4.667969 " clip-rule="nonzero"/></clipPath><clipPath id="a28243b196"><rect x="0" width="19" y="0" height="19"/></clipPath><clipPath id="cc05952767"><path d="M 56 28 L 75 28 L 75 47 L 56 47 Z M 56 28 " clip-rule="nonzero"/></clipPath><clipPath id="c3b71ddaed"><path d="M 65.609375 23.9375 L 78.832031 37.164062 L 65.609375 50.390625 L 52.382812 37.164062 Z M 65.609375 23.9375 " clip-rule="nonzero"/></clipPath><clipPath id="d25f18a289"><path d="M 65.609375 23.9375 L 79.074219 37.402344 L 65.609375 50.867188 L 52.144531 37.402344 Z M 65.609375 23.9375 " clip-rule="nonzero"/></clipPath><clipPath id="0bb4ce931a"><path d="M 74.335938 32.667969 L 70.34375 28.675781 C 70.203125 28.535156 70.015625 28.457031 69.816406 28.457031 C 69.617188 28.457031 69.425781 28.535156 69.289062 28.675781 L 66.136719 31.824219 C 65.996094 31.964844 65.804688 32.042969 65.609375 32.042969 C 65.410156 32.042969 65.21875 31.964844 65.078125 31.824219 L 61.929688 28.675781 C 61.789062 28.535156 61.597656 28.457031 61.402344 28.457031 C 61.203125 28.457031 61.011719 28.535156 60.871094 28.675781 L 56.878906 32.667969 C 56.738281 32.808594 56.660156 32.996094 56.660156 33.195312 C 56.660156 33.394531 56.738281 33.585938 56.878906 33.726562 L 60.03125 36.875 C 60.171875 37.015625 60.25 37.207031 60.25 37.402344 C 60.25 37.601562 60.171875 37.792969 60.03125 37.933594 L 56.878906 41.082031 C 56.738281 41.222656 56.660156 41.414062 56.660156 41.613281 C 56.660156 41.808594 56.738281 42 56.878906 42.140625 L 60.871094 46.132812 C 61.011719 46.273438 61.203125 46.351562 61.402344 46.351562 C 61.597656 46.351562 61.789062 46.273438 61.929688 46.132812 L 65.078125 42.980469 C 65.21875 42.839844 65.410156 42.761719 65.609375 42.761719 C 65.804688 42.761719 65.996094 42.839844 66.136719 42.980469 L 69.289062 46.132812 C 69.425781 46.273438 69.617188 46.351562 69.816406 46.351562 C 70.015625 46.351562 70.203125 46.273438 70.34375 46.132812 L 74.335938 42.140625 C 74.476562 42 74.554688 41.808594 74.554688 41.613281 C 74.554688 41.414062 74.476562 41.222656 74.335938 41.082031 L 71.1875 37.933594 C 71.046875 37.792969 70.96875 37.601562 70.96875 37.402344 C 70.96875 37.207031 71.046875 37.015625 71.1875 36.875 L 74.335938 33.726562 C 74.476562 33.585938 74.554688 33.394531 74.554688 33.195312 C 74.554688 32.996094 74.476562 32.808594 74.335938 32.667969 Z M 74.335938 32.667969 " clip-rule="nonzero"/></clipPath></defs><path fill="#badfdb" d="M 47.460938 18.164062 C 69.246094 6.277344 322.625 9.757812 330.652344 22.164062 C 338.683594 34.570312 344.40625 331.222656 328.464844 341.851562 C 310.945312 353.53125 62.058594 349.878906 49.648438 344.042969 C 37.238281 338.203125 31.402344 26.921875 47.460938 18.164062 Z M 47.460938 18.164062 " fill-opacity="1" fill-rule="nonzero"/><g mask="url(#2feae93d7d)"><g transform="matrix(1, 0, 0, 1, 36, 10)"><g clip-path="url(#b959c789ef)"><g clip-path="url(#666bcdc983)"><path fill="#ffffff" d="M 11.460938 8.164062 C 33.246094 -3.722656 286.625 -0.242188 294.652344 12.164062 C 302.683594 24.570312 308.40625 321.222656 292.464844 331.851562 C 274.945312 343.53125 26.058594 339.878906 13.648438 334.042969 C 1.238281 328.203125 -4.597656 16.921875 11.460938 8.164062 Z M 11.460938 8.164062 " fill-opacity="1" fill-rule="nonzero"/></g></g></g></g><g mask="url(#0775205ea7)"><g transform="matrix(1, 0, 0, 1, 41, 288)"><g clip-path="url(#f3a5da8b7b)"><g clip-path="url(#3031cb4bad)"><path fill="#badfdb" d="M 0.585938 0.445312 C 1.144531 9.082031 1.753906 16.996094 2.410156 23.976562 L 294.046875 23.976562 C 294.691406 17.046875 295.238281 9.125 295.695312 0.445312 Z M 0.585938 0.445312 " fill-opacity="1" fill-rule="nonzero"/></g></g></g></g><g mask="url(#29440cea9a)"><g transform="matrix(1, 0, 0, 1, 38, 240)"><g clip-path="url(#7d9499ed95)"><path fill="#badfdb" d="M 1.296875 1.382812 C 1.585938 9.492188 1.914062 17.367188 2.277344 24.914062 L 299.671875 24.914062 C 299.910156 17.375 300.097656 9.5 300.242188 1.382812 Z M 1.296875 1.382812 " fill-opacity="1" fill-rule="nonzero"/></g></g></g><g mask="url(#3772bc7178)"><g transform="matrix(1, 0, 0, 1, 37, 194)"><g clip-path="url(#c26af8dddc)"><g clip-path="url(#4622871dd8)"><path fill="#badfdb" d="M 1.578125 24.152344 L 301.527344 24.152344 C 301.585938 16.402344 301.605469 8.535156 301.589844 0.621094 L 1.066406 0.621094 C 1.203125 8.535156 1.375 16.402344 1.578125 24.152344 Z M 1.578125 24.152344 " fill-opacity="1" fill-rule="nonzero"/></g></g></g></g><g mask="url(#6a0d626596)"><g transform="matrix(1, 0, 0, 1, 45, 334)"><g clip-path="url(#c2a168467b)"><g clip-path="url(#61e32ba721)"><path fill="#badfdb" d="M 1.476562 1.507812 C 2.472656 6.519531 3.535156 9.515625 4.648438 10.042969 C 17.054688 15.878906 265.945312 19.53125 283.464844 7.851562 C 284.589844 7.101562 285.609375 4.917969 286.527344 1.507812 Z M 1.476562 1.507812 " fill-opacity="1" fill-rule="nonzero"/></g></g></g></g><g mask="url(#47aeefadf7)"><g transform="matrix(1, 0, 0, 1, 42, 10)"><g clip-path="url(#624293de01)"><g clip-path="url(#709826c597)"><path fill="#badfdb" d="M 5.460938 8.164062 C 3.800781 9.066406 2.375 13.210938 1.167969 19.90625 L 290.46875 19.90625 C 289.882812 15.796875 289.273438 13.125 288.652344 12.164062 C 280.625 -0.242188 27.246094 -3.71875 5.460938 8.164062 Z M 5.460938 8.164062 " fill-opacity="1" fill-rule="nonzero"/></g></g></g></g><g mask="url(#fa8a47414e)"><g transform="matrix(1, 0, 0, 1, 36, 147)"><g clip-path="url(#0812c6444d)"><g clip-path="url(#1fa5deab27)"><path fill="#badfdb" d="M 1.675781 0.5625 C 1.667969 8.324219 1.695312 16.191406 1.761719 24.09375 L 302.457031 24.09375 C 302.382812 16.1875 302.277344 8.316406 302.144531 0.5625 Z M 1.675781 0.5625 " fill-opacity="1" fill-rule="nonzero"/></g></g></g></g><g mask="url(#e9d8f57db4)"><g transform="matrix(1, 0, 0, 1, 38, 53)"><g clip-path="url(#61b972ec67)"><g clip-path="url(#14d7e31792)"><path fill="#badfdb" d="M 2.4375 0.4375 C 1.890625 7.496094 1.429688 15.402344 1.046875 23.96875 L 297.992188 23.96875 C 297.585938 15.324219 297.144531 7.410156 296.671875 0.4375 Z M 2.4375 0.4375 " fill-opacity="1" fill-rule="nonzero"/></g></g></g></g><g mask="url(#e1d4e0cce7)"><g transform="matrix(1, 0, 0, 1, 37, 99)"><g clip-path="url(#b664f64131)"><g clip-path="url(#7bf007b7cc)"><path fill="#badfdb" d="M 1.246094 1.5 C 1.054688 9.066406 0.914062 16.941406 0.820312 25.03125 L 300.644531 25.03125 C 300.4375 16.925781 300.203125 9.046875 299.941406 1.5 Z M 1.246094 1.5 " fill-opacity="1" fill-rule="nonzero"/></g></g></g></g><path fill="#badfdb" d="M 37.941406 186.710938 C 37.945312 187.066406 37.953125 187.425781 37.957031 187.78125 L 338.570312 187.78125 C 338.570312 187.425781 338.570312 187.066406 338.566406 186.710938 Z M 37.941406 186.710938 " fill-opacity="1" fill-rule="nonzero"/><path fill="#badfdb" d="M 40.691406 273.128906 L 337.386719 273.128906 C 337.398438 272.773438 337.410156 272.414062 337.425781 272.058594 L 40.632812 272.058594 C 40.652344 272.414062 40.671875 272.773438 40.691406 273.128906 Z M 40.691406 273.128906 " fill-opacity="1" fill-rule="nonzero"/><path fill="#badfdb" d="M 39.035156 233.773438 C 39.046875 234.128906 39.058594 234.488281 39.070312 234.84375 L 338.347656 234.84375 C 338.351562 234.488281 338.359375 234.128906 338.363281 233.773438 Z M 39.035156 233.773438 " fill-opacity="1" fill-rule="nonzero"/><path fill="#badfdb" d="M 38.796875 226.066406 L 338.457031 226.066406 C 338.460938 225.710938 338.464844 225.351562 338.46875 224.996094 L 38.765625 224.996094 C 38.773438 225.351562 38.785156 225.710938 38.796875 226.066406 Z M 38.796875 226.066406 " fill-opacity="1" fill-rule="nonzero"/><path fill="#badfdb" d="M 41.121094 280.832031 C 41.140625 281.195312 41.160156 281.550781 41.183594 281.90625 L 337.019531 281.90625 C 337.035156 281.550781 337.050781 281.195312 337.066406 280.832031 Z M 41.121094 280.832031 " fill-opacity="1" fill-rule="nonzero"/><path fill="#badfdb" d="M 333.097656 327.894531 L 45.21875 327.894531 C 45.269531 328.257812 45.320312 328.617188 45.371094 328.96875 L 332.917969 328.96875 C 332.980469 328.617188 333.039062 328.257812 333.097656 327.894531 Z M 333.097656 327.894531 " fill-opacity="1" fill-rule="nonzero"/><path fill="#badfdb" d="M 44.253906 320.191406 L 334.179688 320.191406 C 334.222656 319.839844 334.261719 319.476562 334.304688 319.117188 L 44.132812 319.117188 C 44.171875 319.480469 44.214844 319.835938 44.253906 320.191406 Z M 44.253906 320.191406 " fill-opacity="1" fill-rule="nonzero"/><path fill="#badfdb" d="M 37.742188 131.945312 L 337.832031 131.945312 C 337.824219 131.585938 337.816406 131.226562 337.808594 130.871094 L 37.75 130.871094 C 37.75 131.226562 37.746094 131.585938 37.742188 131.945312 Z M 37.742188 131.945312 " fill-opacity="1" fill-rule="nonzero"/><path fill="#badfdb" d="M 41.128906 45.523438 C 41.09375 45.882812 41.058594 46.234375 41.027344 46.597656 L 334.171875 46.597656 C 334.144531 46.234375 334.117188 45.882812 334.085938 45.523438 Z M 41.128906 45.523438 " fill-opacity="1" fill-rule="nonzero"/><path fill="#badfdb" d="M 41.980469 37.820312 L 333.398438 37.820312 C 333.363281 37.457031 333.324219 37.101562 333.289062 36.746094 L 42.117188 36.746094 C 42.070312 37.101562 42.023438 37.457031 41.980469 37.820312 Z M 41.980469 37.820312 " fill-opacity="1" fill-rule="nonzero"/><path fill="#badfdb" d="M 38.726562 84.882812 L 336.34375 84.882812 C 336.328125 84.523438 336.3125 84.164062 336.300781 83.808594 L 38.765625 83.808594 C 38.753906 84.164062 38.742188 84.523438 38.726562 84.882812 Z M 38.726562 84.882812 " fill-opacity="1" fill-rule="nonzero"/><path fill="#badfdb" d="M 38.46875 92.585938 C 38.457031 92.941406 38.445312 93.300781 38.433594 93.660156 L 336.695312 93.660156 C 336.679688 93.296875 336.667969 92.941406 336.65625 92.585938 Z M 38.46875 92.585938 " fill-opacity="1" fill-rule="nonzero"/><path fill="#badfdb" d="M 37.839844 179.007812 L 338.523438 179.007812 C 338.519531 178.648438 338.519531 178.289062 338.515625 177.933594 L 37.832031 177.933594 C 37.835938 178.289062 37.839844 178.648438 37.84375 179.007812 Z M 37.839844 179.007812 " fill-opacity="1" fill-rule="nonzero"/><path fill="#badfdb" d="M 37.695312 139.648438 C 37.691406 140.003906 37.691406 140.363281 37.691406 140.722656 L 338.015625 140.722656 C 338.007812 140.363281 338.003906 140.003906 337.996094 139.648438 Z M 37.695312 139.648438 " fill-opacity="1" fill-rule="nonzero"/><g mask="url(#de00fa2576)"><g transform="matrix(1, 0, 0, 1, 89, 11)"><g clip-path="url(#0e3d378c8f)"><g clip-path="url(#dde219a03d)"><path fill="#badfdb" d="M 25.316406 0.511719 C 16.9375 0.757812 9.035156 1.074219 1.785156 1.460938 L 1.785156 336.59375 C 8.988281 336.898438 16.894531 337.175781 25.316406 337.417969 Z M 25.316406 0.511719 " fill-opacity="1" fill-rule="nonzero"/></g></g></g></g><g mask="url(#4428b497cf)"><g transform="matrix(1, 0, 0, 1, 43, 14)"><g clip-path="url(#a04ee572d6)"><g clip-path="url(#b89197fd68)"><path fill="#badfdb" d="M 24.253906 0.230469 C 14.320312 1.28125 7.351562 2.585938 4.460938 4.164062 C 3.046875 4.933594 1.804688 8.050781 0.722656 13.085938 L 0.722656 301.1875 C 2.429688 318.226562 4.433594 329 6.648438 330.042969 C 8.371094 330.851562 14.660156 331.621094 24.253906 332.3125 Z M 24.253906 0.230469 " fill-opacity="1" fill-rule="nonzero"/></g></g></g></g><g mask="url(#dba46e41ae)"><g transform="matrix(1, 0, 0, 1, 137, 10)"><g clip-path="url(#79e0cb95b0)"><g clip-path="url(#851afbf456)"><path fill="#badfdb" d="M 24.378906 0.84375 C 16.378906 0.855469 8.5 0.910156 0.847656 1.015625 L 0.847656 338.976562 C 8.488281 339.125 16.371094 339.246094 24.378906 339.335938 Z M 24.378906 0.84375 " fill-opacity="1" fill-rule="nonzero"/></g></g></g></g><g mask="url(#4dde04d070)"><g transform="matrix(1, 0, 0, 1, 325, 19)"><g clip-path="url(#e035e59e77)"><g clip-path="url(#4a72c874b5)"><path fill="#badfdb" d="M 5.652344 3.164062 C 5.128906 2.355469 3.5625 1.585938 1.09375 0.855469 L 1.09375 323.921875 C 2.109375 323.578125 2.90625 323.222656 3.464844 322.851562 C 19.40625 312.222656 13.683594 15.570312 5.652344 3.164062 Z M 5.652344 3.164062 " fill-opacity="1" fill-rule="nonzero"/></g></g></g></g><g mask="url(#0d2a3c24b8)"><g transform="matrix(1, 0, 0, 1, 278, 13)"><g clip-path="url(#bb32850256)"><g clip-path="url(#325ae0d35e)"><path fill="#badfdb" d="M 24.5625 3.082031 C 17.664062 2.363281 9.738281 1.714844 1.03125 1.136719 L 1.03125 334.953125 C 9.773438 334.546875 17.707031 334.058594 24.5625 333.476562 Z M 24.5625 3.082031 " fill-opacity="1" fill-rule="nonzero"/></g></g></g></g><g mask="url(#9029b02a48)"><g transform="matrix(1, 0, 0, 1, 231, 11)"><g clip-path="url(#a168d4aede)"><g clip-path="url(#4d8f4f4b0e)"><path fill="#badfdb" d="M 24.5 1.828125 C 16.945312 1.480469 9.0625 1.175781 0.96875 0.914062 L 0.96875 338.273438 C 9.066406 338.160156 16.949219 338 24.5 337.796875 Z M 24.5 1.828125 " fill-opacity="1" fill-rule="nonzero"/></g></g></g></g><g mask="url(#e0f32b5b03)"><g transform="matrix(1, 0, 0, 1, 184, 10)"><g clip-path="url(#37ba261cca)"><g clip-path="url(#77387ca0d2)"><path fill="#badfdb" d="M 24.4375 1.300781 C 16.644531 1.140625 8.769531 1.019531 0.90625 0.945312 L 0.90625 339.507812 C 8.765625 339.535156 16.640625 339.53125 24.4375 339.496094 Z M 24.4375 1.300781 " fill-opacity="1" fill-rule="nonzero"/></g></g></g></g><path fill="#ffffff" d="M 336.429688 110.832031 L 292.230469 110.832031 L 292.230469 66.636719 L 335.46875 66.636719 C 335.417969 65.667969 335.363281 64.714844 335.308594 63.773438 L 292.230469 63.773438 L 292.230469 19.574219 L 325.074219 19.574219 C 321.171875 18.53125 315.410156 17.578125 308.183594 16.707031 L 292.230469 16.707031 L 292.230469 15.121094 C 291.289062 15.042969 290.332031 14.960938 289.367188 14.886719 L 289.367188 16.707031 L 245.167969 16.707031 L 245.167969 12.386719 C 244.21875 12.347656 243.261719 12.3125 242.304688 12.273438 L 242.304688 16.707031 L 198.105469 16.707031 L 198.105469 11.113281 C 197.152344 11.097656 196.199219 11.082031 195.242188 11.070312 L 195.242188 16.707031 L 151.042969 16.707031 L 151.042969 10.882812 C 150.085938 10.886719 149.132812 10.894531 148.179688 10.902344 L 148.179688 16.707031 L 103.980469 16.707031 L 103.980469 11.859375 C 103.019531 11.894531 102.0625 11.933594 101.117188 11.972656 L 101.117188 16.707031 L 56.921875 16.707031 L 56.921875 15.597656 C 55.902344 15.769531 54.941406 15.949219 54.054688 16.132812 L 54.054688 16.707031 L 51.550781 16.707031 C 49.785156 17.164062 48.402344 17.648438 47.460938 18.164062 C 47.019531 18.402344 46.59375 18.886719 46.1875 19.574219 L 54.054688 19.574219 L 54.054688 63.769531 L 39.730469 63.769531 C 39.675781 64.714844 39.621094 65.667969 39.566406 66.632812 L 54.054688 66.632812 L 54.054688 110.832031 L 38.019531 110.832031 C 38.003906 111.785156 37.984375 112.738281 37.96875 113.695312 L 54.054688 113.695312 L 54.054688 157.894531 L 37.6875 157.894531 C 37.691406 158.847656 37.695312 159.800781 37.699219 160.757812 L 54.058594 160.757812 L 54.058594 204.953125 L 38.265625 204.953125 C 38.285156 205.910156 38.308594 206.863281 38.328125 207.816406 L 54.058594 207.816406 L 54.058594 252.015625 L 39.707031 252.015625 C 39.746094 252.972656 39.785156 253.929688 39.828125 254.878906 L 54.058594 254.878906 L 54.058594 299.078125 L 42.332031 299.078125 C 42.402344 300.042969 42.476562 300.996094 42.550781 301.941406 L 54.058594 301.941406 L 54.058594 345.019531 C 54.910156 345.144531 55.863281 345.265625 56.921875 345.386719 L 56.921875 301.941406 L 101.121094 301.941406 L 101.121094 346.136719 L 64.996094 346.136719 C 81.230469 347.402344 108.4375 348.421875 139.386719 349 L 148.183594 349 L 148.183594 349.152344 C 149.132812 349.167969 150.089844 349.183594 151.046875 349.195312 L 151.046875 349.003906 L 195.246094 349.003906 L 195.246094 349.523438 C 196.199219 349.523438 197.152344 349.523438 198.109375 349.519531 L 198.109375 349.003906 L 242.304688 349.003906 L 242.304688 349.097656 C 243.265625 349.078125 244.21875 349.058594 245.167969 349.039062 L 245.167969 349.003906 L 246.855469 349.003906 C 270.425781 348.484375 291.363281 347.5625 306.261719 346.140625 L 292.230469 346.140625 L 292.230469 301.941406 L 335.867188 301.941406 C 335.9375 301 336 300.042969 336.066406 299.078125 L 292.230469 299.078125 L 292.230469 254.878906 L 336.429688 254.878906 L 336.429688 293.273438 C 339.667969 238.078125 338.945312 148.011719 336.429688 86.878906 Z M 101.117188 299.082031 L 56.917969 299.082031 L 56.917969 254.882812 L 101.117188 254.882812 Z M 101.117188 252.019531 L 56.917969 252.019531 L 56.917969 207.820312 L 101.117188 207.820312 Z M 101.117188 204.957031 L 56.917969 204.957031 L 56.917969 160.757812 L 101.117188 160.757812 Z M 101.117188 157.894531 L 56.917969 157.894531 L 56.917969 113.695312 L 101.117188 113.695312 Z M 101.117188 110.832031 L 56.917969 110.832031 L 56.917969 66.632812 L 101.117188 66.632812 Z M 101.117188 63.769531 L 56.917969 63.769531 L 56.917969 19.574219 L 101.117188 19.574219 Z M 148.179688 346.140625 L 103.980469 346.140625 L 103.980469 301.941406 L 148.179688 301.941406 Z M 148.179688 299.078125 L 103.980469 299.078125 L 103.980469 254.878906 L 148.179688 254.878906 Z M 148.179688 252.015625 L 103.980469 252.015625 L 103.980469 207.820312 L 148.179688 207.820312 Z M 148.179688 204.953125 L 103.980469 204.953125 L 103.980469 160.757812 L 148.179688 160.757812 Z M 148.179688 157.890625 L 103.980469 157.890625 L 103.980469 113.695312 L 148.179688 113.695312 Z M 148.179688 110.832031 L 103.980469 110.832031 L 103.980469 66.632812 L 148.179688 66.632812 Z M 148.179688 63.769531 L 103.980469 63.769531 L 103.980469 19.574219 L 148.179688 19.574219 Z M 195.242188 346.140625 L 151.042969 346.140625 L 151.042969 301.941406 L 195.242188 301.941406 Z M 195.242188 299.078125 L 151.042969 299.078125 L 151.042969 254.878906 L 195.242188 254.878906 Z M 195.242188 252.015625 L 151.042969 252.015625 L 151.042969 207.816406 L 195.242188 207.816406 Z M 195.242188 204.953125 L 151.042969 204.953125 L 151.042969 160.753906 L 195.242188 160.753906 Z M 195.242188 157.890625 L 151.042969 157.890625 L 151.042969 113.691406 L 195.242188 113.691406 Z M 195.242188 110.828125 L 151.042969 110.828125 L 151.042969 66.628906 L 195.242188 66.628906 Z M 195.242188 63.765625 L 151.042969 63.765625 L 151.042969 19.574219 L 195.242188 19.574219 L 195.242188 63.769531 Z M 242.304688 346.136719 L 198.105469 346.136719 L 198.105469 301.9375 L 242.304688 301.9375 Z M 242.304688 299.074219 L 198.105469 299.074219 L 198.105469 254.875 L 242.304688 254.875 Z M 242.304688 252.011719 L 198.105469 252.011719 L 198.105469 207.816406 L 242.304688 207.816406 Z M 242.304688 204.949219 L 198.105469 204.949219 L 198.105469 160.753906 L 242.304688 160.753906 Z M 242.304688 157.886719 L 198.105469 157.886719 L 198.105469 113.691406 L 242.304688 113.691406 Z M 242.304688 110.828125 L 198.105469 110.828125 L 198.105469 66.628906 L 242.304688 66.628906 Z M 242.304688 63.765625 L 198.105469 63.765625 L 198.105469 19.574219 L 242.304688 19.574219 L 242.304688 63.769531 Z M 289.367188 346.136719 L 245.167969 346.136719 L 245.167969 301.9375 L 289.367188 301.9375 Z M 289.367188 299.074219 L 245.167969 299.074219 L 245.167969 254.875 L 289.367188 254.875 Z M 289.367188 252.011719 L 245.167969 252.011719 L 245.167969 207.8125 L 289.367188 207.8125 Z M 289.367188 204.949219 L 245.167969 204.949219 L 245.167969 160.75 L 289.367188 160.75 Z M 289.367188 157.886719 L 245.167969 157.886719 L 245.167969 113.6875 L 289.367188 113.6875 Z M 289.367188 110.824219 L 245.167969 110.824219 L 245.167969 66.625 L 289.367188 66.625 Z M 289.367188 63.761719 L 245.167969 63.761719 L 245.167969 19.574219 L 289.367188 19.574219 L 289.367188 63.769531 Z M 336.429688 252.011719 L 292.230469 252.011719 L 292.230469 207.8125 L 336.429688 207.8125 Z M 336.429688 204.949219 L 292.230469 204.949219 L 292.230469 160.75 L 336.429688 160.75 Z M 336.429688 157.886719 L 292.230469 157.886719 L 292.230469 113.6875 L 336.429688 113.6875 Z M 336.429688 157.886719 " fill-opacity="1" fill-rule="nonzero"/><path fill="#000000" d="M 173.140625 350.84375 L 173.132812 350.84375 C 146.683594 350.648438 120.269531 350.105469 98.753906 349.308594 C 97.984375 349.28125 97.378906 348.632812 97.410156 347.859375 C 97.4375 347.089844 98.105469 346.5 98.859375 346.511719 C 120.34375 347.304688 146.730469 347.847656 173.152344 348.046875 C 173.925781 348.050781 174.546875 348.683594 174.539062 349.453125 C 174.535156 350.222656 173.910156 350.84375 173.140625 350.84375 Z M 173.140625 350.84375 " fill-opacity="1" fill-rule="nonzero"/><path fill="#000000" d="M 195.359375 350.925781 C 192.238281 350.925781 189.234375 350.921875 186.375 350.910156 C 185.601562 350.910156 184.980469 350.28125 184.980469 349.507812 C 184.984375 348.738281 185.609375 348.113281 186.378906 348.113281 L 186.382812 348.113281 C 211.914062 348.195312 248.851562 347.976562 279.832031 346.511719 C 280.609375 346.492188 281.257812 347.074219 281.292969 347.84375 C 281.332031 348.617188 280.734375 349.273438 279.960938 349.308594 C 252.394531 350.609375 220.136719 350.925781 195.359375 350.925781 Z M 195.359375 350.925781 " fill-opacity="1" fill-rule="nonzero"/><path fill="#000000" d="M 289.363281 348.808594 C 288.628906 348.808594 288.011719 348.234375 287.96875 347.492188 C 287.925781 346.722656 288.511719 346.058594 289.285156 346.011719 C 316.871094 344.382812 325.394531 342.214844 327.6875 340.6875 C 329.515625 339.46875 335.582031 328.253906 336.945312 235.085938 C 336.957031 234.3125 337.574219 233.707031 338.363281 233.707031 C 339.136719 233.71875 339.753906 234.355469 339.742188 235.125 C 339.296875 265.449219 338.304688 290.023438 336.789062 308.160156 C 334.421875 336.46875 331.347656 341.609375 329.238281 343.015625 C 325.429688 345.554688 312.414062 347.449219 289.449219 348.804688 C 289.421875 348.808594 289.390625 348.808594 289.363281 348.808594 Z M 289.363281 348.808594 " fill-opacity="1" fill-rule="nonzero"/><path fill="#000000" d="M 338.457031 227.46875 L 338.441406 227.46875 C 337.671875 227.460938 337.050781 226.828125 337.058594 226.054688 C 337.46875 187.421875 336.953125 142.789062 335.648438 103.597656 C 335.621094 102.824219 336.226562 102.179688 337 102.152344 C 337.769531 102.136719 338.417969 102.730469 338.445312 103.503906 C 339.75 142.734375 340.265625 187.414062 339.855469 226.082031 C 339.847656 226.851562 339.222656 227.46875 338.457031 227.46875 Z M 338.457031 227.46875 " fill-opacity="1" fill-rule="nonzero"/><path fill="#000000" d="M 290.800781 16.398438 C 290.761719 16.398438 290.722656 16.398438 290.683594 16.394531 C 256.023438 13.574219 201.210938 11.957031 151.050781 12.28125 L 151.042969 12.28125 C 150.273438 12.28125 149.648438 11.660156 149.644531 10.890625 C 149.640625 10.117188 150.261719 9.488281 151.035156 9.484375 C 201.269531 9.15625 256.171875 10.777344 290.910156 13.605469 C 291.679688 13.667969 292.253906 14.34375 292.191406 15.113281 C 292.132812 15.84375 291.519531 16.398438 290.800781 16.398438 Z M 290.800781 16.398438 " fill-opacity="1" fill-rule="nonzero"/><path fill="#000000" d="M 37.675781 155.125 C 36.902344 155.125 36.277344 154.5 36.277344 153.726562 C 36.21875 116.839844 36.980469 84.890625 38.480469 61.335938 C 41.109375 20.03125 45.234375 17.78125 46.789062 16.933594 C 57.5625 11.058594 118.085938 9.808594 143.605469 9.546875 C 144.371094 9.539062 145.011719 10.15625 145.019531 10.929688 C 145.027344 11.703125 144.40625 12.335938 143.636719 12.34375 C 90.921875 12.890625 55.21875 15.523438 48.128906 19.390625 C 43.519531 21.90625 38.933594 64.417969 39.074219 153.722656 C 39.074219 154.496094 38.449219 155.125 37.675781 155.125 Z M 37.675781 155.125 " fill-opacity="1" fill-rule="nonzero"/><path fill="#000000" d="M 40.691406 274.566406 C 39.953125 274.566406 39.335938 273.988281 39.296875 273.242188 C 37.5625 240.53125 36.46875 199.535156 36.296875 160.765625 C 36.296875 159.992188 36.917969 159.363281 37.691406 159.359375 L 37.695312 159.359375 C 38.46875 159.359375 39.09375 159.980469 39.097656 160.75 C 39.265625 199.480469 40.359375 240.429688 42.089844 273.09375 C 42.128906 273.867188 41.539062 274.523438 40.765625 274.566406 C 40.742188 274.566406 40.714844 274.566406 40.691406 274.566406 Z M 40.691406 274.566406 " fill-opacity="1" fill-rule="nonzero"/><path fill="#ffbdbd" d="M 311.296875 21.511719 C 306.296875 18.453125 306.75 10.664062 309.039062 6.140625 C 310.019531 4.203125 312.527344 2.722656 314.523438 2.078125 C 319.226562 0.5625 324.742188 2.601562 327.636719 6.613281 C 330.53125 10.621094 330.808594 16.246094 328.675781 20.707031 C 331.085938 16.480469 336.914062 14.609375 341.335938 16.648438 C 345.757812 18.683594 348.125 24.328125 346.480469 28.910156 C 344.835938 33.488281 339.417969 36.339844 334.710938 35.097656 C 338.296875 37.015625 339.917969 41.832031 338.398438 45.597656 C 336.878906 49.367188 332.546875 51.703125 328.527344 51.101562 C 326.402344 50.78125 324.40625 49.679688 322.9375 48.121094 C 321.996094 47.125 319.785156 44.507812 320.148438 43.003906 C 319.386719 46.160156 317.453125 49.089844 314.628906 50.6875 C 311.804688 52.285156 308.089844 52.382812 305.378906 50.601562 C 299.457031 46.707031 302.265625 37.726562 307.75 34.917969 C 305.109375 36.269531 302.027344 36.910156 299.128906 36.269531 C 296.230469 35.632812 293.578125 33.59375 292.601562 30.792969 C 291.605469 27.929688 292.488281 24.585938 294.539062 22.351562 C 296.59375 20.117188 299.664062 18.960938 302.699219 18.933594 C 305.730469 18.902344 308.710938 19.929688 311.296875 21.511719 Z M 311.296875 21.511719 " fill-opacity="1" fill-rule="nonzero"/><path fill="#000000" d="M 309.242188 53.316406 C 309.203125 53.316406 309.167969 53.316406 309.132812 53.3125 C 307.769531 53.207031 306.433594 52.8125 305.269531 52.167969 C 302.582031 50.683594 300.960938 48.207031 300.707031 45.1875 C 300.503906 42.730469 301.234375 40.089844 302.640625 37.867188 C 301.332031 37.984375 300.050781 37.90625 298.828125 37.636719 C 295.328125 36.867188 292.363281 34.359375 291.28125 31.253906 C 290.140625 27.988281 291.015625 24.121094 293.507812 21.40625 C 295.738281 18.980469 299.078125 17.570312 302.683594 17.53125 C 304.054688 17.523438 305.421875 17.695312 306.800781 18.054688 C 305.625 14.957031 305.859375 11.304688 306.667969 8.421875 C 306.878906 7.675781 307.652344 7.242188 308.394531 7.453125 C 309.136719 7.664062 309.570312 8.433594 309.363281 9.179688 C 308.488281 12.296875 308.363281 16.847656 310.898438 19.425781 C 311.433594 19.96875 311.5 20.808594 311.054688 21.421875 C 310.609375 22.039062 309.792969 22.238281 309.113281 21.902344 C 306.957031 20.839844 304.789062 20.300781 302.710938 20.332031 C 299.917969 20.359375 297.25 21.46875 295.570312 23.296875 C 293.792969 25.234375 293.128906 28.0625 293.921875 30.332031 C 294.691406 32.542969 296.855469 34.335938 299.429688 34.90625 C 301.339844 35.324219 303.472656 35.128906 305.601562 34.339844 C 306.316406 34.074219 307.109375 34.363281 307.484375 35.027344 C 307.859375 35.691406 307.699219 36.523438 307.097656 37 C 304.742188 38.875 303.261719 42.144531 303.496094 44.953125 C 303.617188 46.40625 304.257812 48.414062 306.621094 49.71875 C 307.4375 50.167969 308.382812 50.449219 309.347656 50.523438 C 310.117188 50.582031 310.695312 51.257812 310.632812 52.023438 C 310.578125 52.757812 309.964844 53.316406 309.242188 53.316406 Z M 305.355469 34.808594 C 305.355469 34.808594 305.355469 34.8125 305.355469 34.8125 C 305.355469 34.8125 305.355469 34.8125 305.355469 34.808594 Z M 308.90625 21.386719 Z M 308.90625 21.386719 " fill-opacity="1" fill-rule="nonzero"/><path fill="#000000" d="M 329.832031 52.597656 C 329.328125 52.597656 328.824219 52.5625 328.320312 52.484375 C 325.925781 52.125 323.652344 50.917969 321.917969 49.082031 C 321.507812 48.644531 320.785156 47.839844 320.136719 46.898438 C 319.210938 48.589844 317.96875 50.046875 316.503906 51.132812 C 315.886719 51.589844 315.007812 51.464844 314.546875 50.84375 C 314.085938 50.222656 314.21875 49.347656 314.835938 48.886719 C 316.53125 47.625 317.855469 45.707031 318.5625 43.484375 C 318.777344 42.816406 319.382812 42.375 320.085938 42.40625 C 320.777344 42.429688 321.378906 42.917969 321.542969 43.589844 C 321.777344 44.542969 322.921875 46.070312 323.953125 47.160156 C 325.238281 48.523438 326.984375 49.453125 328.734375 49.71875 C 332.164062 50.230469 335.84375 48.195312 337.101562 45.078125 C 338.277344 42.152344 337.191406 38.46875 334.628906 36.683594 C 334.03125 36.269531 333.804688 35.507812 334.078125 34.835938 C 334.347656 34.164062 335.039062 33.777344 335.757812 33.890625 C 337.65625 34.199219 339.699219 33.785156 341.5 32.722656 C 342.164062 32.328125 343.023438 32.550781 343.414062 33.214844 C 343.808594 33.882812 343.585938 34.738281 342.921875 35.132812 C 341.53125 35.953125 340.027344 36.476562 338.503906 36.683594 C 340.378906 39.378906 340.933594 43.054688 339.695312 46.121094 C 338.132812 50 334.0625 52.597656 329.832031 52.597656 Z M 318.824219 44.261719 C 318.824219 44.261719 318.824219 44.261719 318.824219 44.265625 C 318.824219 44.265625 318.824219 44.261719 318.824219 44.261719 Z M 318.824219 44.261719 " fill-opacity="1" fill-rule="nonzero"/><path fill="#000000" d="M 345.796875 31.769531 C 345.554688 31.769531 345.3125 31.710938 345.09375 31.578125 C 344.425781 31.191406 344.199219 30.332031 344.589844 29.667969 C 344.820312 29.273438 345.011719 28.859375 345.164062 28.4375 C 346.558594 24.558594 344.496094 19.644531 340.75 17.917969 C 337.414062 16.382812 332.941406 17.480469 330.566406 20.417969 C 330.085938 21.007812 329.257812 21.167969 328.597656 20.796875 C 327.941406 20.425781 327.648438 19.640625 327.90625 18.925781 C 329.316406 14.992188 328.78125 10.585938 326.503906 7.433594 C 323.917969 3.851562 318.953125 2.121094 314.953125 3.410156 C 313.761719 3.792969 312.511719 4.472656 311.605469 5.222656 C 311.011719 5.714844 310.128906 5.632812 309.636719 5.039062 C 309.144531 4.445312 309.226562 3.5625 309.820312 3.066406 C 311.003906 2.085938 312.558594 1.242188 314.09375 0.746094 C 319.28125 -0.925781 325.453125 1.199219 328.769531 5.792969 C 330.855469 8.679688 331.765625 12.394531 331.394531 16.078125 C 334.566406 14.203125 338.597656 13.84375 341.921875 15.375 C 346.992188 17.714844 349.683594 24.125 347.796875 29.382812 C 347.589844 29.964844 347.324219 30.535156 347.007812 31.078125 C 346.746094 31.523438 346.277344 31.769531 345.796875 31.773438 Z M 345.796875 31.769531 " fill-opacity="1" fill-rule="nonzero"/><path fill="#ffffff" d="M 316.945312 25.46875 C 318.609375 24.039062 321.199219 23.8125 323.085938 24.933594 C 324.972656 26.054688 326.011719 28.4375 325.554688 30.582031 C 325.09375 32.726562 323.167969 34.472656 320.988281 34.722656 C 315.933594 35.300781 313.089844 28.78125 316.945312 25.46875 Z M 316.945312 25.46875 " fill-opacity="1" fill-rule="nonzero"/><path fill="#000000" d="M 320.371094 36.15625 C 317.59375 36.15625 315.160156 34.433594 314.171875 31.679688 C 313.90625 30.953125 314.285156 30.152344 315.011719 29.890625 C 315.738281 29.628906 316.539062 30.007812 316.800781 30.734375 C 317.289062 32.089844 318.632812 33.582031 320.828125 33.332031 C 322.410156 33.152344 323.851562 31.84375 324.183594 30.289062 C 324.515625 28.734375 323.738281 26.949219 322.371094 26.136719 C 321.003906 25.324219 319.0625 25.492188 317.855469 26.53125 C 317.53125 26.808594 317.261719 27.125 317.054688 27.472656 C 316.660156 28.136719 315.800781 28.351562 315.136719 27.957031 C 314.476562 27.5625 314.257812 26.703125 314.652344 26.039062 C 315.011719 25.433594 315.476562 24.886719 316.035156 24.40625 C 318.140625 22.597656 321.40625 22.308594 323.800781 23.730469 C 326.191406 25.148438 327.503906 28.15625 326.921875 30.875 C 326.335938 33.59375 323.910156 35.796875 321.148438 36.113281 C 320.886719 36.144531 320.628906 36.15625 320.371094 36.15625 Z M 320.371094 36.15625 " fill-opacity="1" fill-rule="nonzero"/><path fill="#fcf9ea" d="M 333.34375 72.964844 C 329.242188 72.761719 326.910156 67.8125 326.804688 64.265625 C 326.757812 62.746094 327.804688 60.996094 328.816406 59.929688 C 331.203125 57.417969 335.28125 56.828125 338.402344 58.324219 C 341.527344 59.820312 343.585938 63.191406 343.765625 66.648438 C 343.832031 63.242188 346.792969 60.136719 350.195312 59.910156 C 353.597656 59.679688 356.945312 62.359375 357.46875 65.730469 C 357.992188 69.097656 355.613281 72.667969 352.300781 73.480469 C 355.148438 73.460938 357.761719 75.882812 358.089844 78.707031 C 358.417969 81.535156 356.53125 84.425781 353.859375 85.398438 C 352.445312 85.914062 350.847656 85.902344 349.417969 85.4375 C 348.507812 85.140625 346.269531 84.273438 345.992188 83.226562 C 346.578125 85.421875 346.371094 87.875 345.167969 89.804688 C 343.96875 91.734375 341.710938 93.035156 339.449219 92.847656 C 334.5 92.4375 333.21875 85.96875 335.652344 82.40625 C 334.480469 84.121094 332.800781 85.546875 330.804688 86.125 C 328.804688 86.703125 326.492188 86.339844 324.953125 84.941406 C 323.378906 83.515625 322.800781 81.160156 323.316406 79.097656 C 323.828125 77.035156 325.332031 75.296875 327.1875 74.261719 C 329.046875 73.230469 331.222656 72.859375 333.34375 72.964844 Z M 333.34375 72.964844 " fill-opacity="1" fill-rule="nonzero"/><path fill="#000000" d="M 339.941406 94.265625 L 339.902344 94.265625 C 337.609375 94.253906 335.65625 93.203125 334.410156 91.308594 C 333.546875 90 333.089844 88.351562 333.0625 86.683594 C 332.460938 87.019531 331.832031 87.285156 331.191406 87.46875 C 328.601562 88.21875 325.851562 87.648438 324.011719 85.976562 C 322.101562 84.246094 321.296875 81.414062 321.957031 78.757812 C 322.542969 76.40625 324.203125 74.324219 326.507812 73.039062 C 327.164062 72.671875 327.859375 72.375 328.597656 72.140625 C 327.082031 70.582031 326.136719 68.453125 325.703125 66.554688 C 325.53125 65.800781 326.003906 65.050781 326.753906 64.878906 C 327.507812 64.710938 328.257812 65.179688 328.429688 65.933594 C 328.910156 68.035156 330.269531 70.730469 332.519531 71.414062 C 333.226562 71.628906 333.675781 72.3125 333.582031 73.042969 C 333.488281 73.773438 332.886719 74.328125 332.148438 74.355469 C 330.53125 74.421875 329.089844 74.800781 327.867188 75.484375 C 326.261719 76.378906 325.066406 77.855469 324.671875 79.433594 C 324.261719 81.078125 324.753906 82.871094 325.890625 83.90625 C 327 84.910156 328.773438 85.253906 330.414062 84.78125 C 331.652344 84.421875 332.828125 83.628906 333.820312 82.492188 C 334.304688 81.933594 335.113281 81.808594 335.746094 82.203125 C 336.375 82.59375 336.625 83.378906 336.335938 84.0625 C 335.5625 85.886719 335.734375 88.234375 336.746094 89.769531 C 337.484375 90.890625 338.550781 91.460938 339.917969 91.46875 C 340.507812 91.460938 341.128906 91.339844 341.691406 91.085938 C 342.394531 90.769531 343.226562 91.085938 343.539062 91.789062 C 343.855469 92.496094 343.539062 93.324219 342.835938 93.640625 C 341.921875 94.050781 340.921875 94.265625 339.941406 94.265625 Z M 335.933594 84.328125 C 335.933594 84.328125 335.929688 84.328125 335.929688 84.332031 C 335.929688 84.328125 335.933594 84.328125 335.933594 84.328125 Z M 331.707031 74.089844 C 331.707031 74.089844 331.707031 74.089844 331.710938 74.089844 C 331.710938 74.089844 331.707031 74.089844 331.707031 74.089844 Z M 331.707031 74.089844 " fill-opacity="1" fill-rule="nonzero"/><path fill="#000000" d="M 345.582031 90.433594 C 345.386719 90.433594 345.1875 90.390625 344.996094 90.304688 C 344.292969 89.980469 343.988281 89.148438 344.3125 88.445312 C 344.898438 87.183594 345.058594 85.648438 344.765625 84.128906 C 344.636719 83.472656 344.964844 82.804688 345.5625 82.503906 C 346.164062 82.199219 346.902344 82.335938 347.355469 82.835938 C 347.699219 83.210938 348.75 83.75 349.851562 84.109375 C 351.015625 84.488281 352.300781 84.476562 353.378906 84.085938 C 355.492188 83.316406 356.949219 81.023438 356.699219 78.867188 C 356.46875 76.894531 354.691406 75.113281 352.734375 74.902344 C 352.035156 74.824219 351.488281 74.28125 351.40625 73.582031 C 351.328125 72.878906 351.734375 72.226562 352.402344 71.992188 C 353.566406 71.585938 354.632812 70.6875 355.320312 69.53125 C 355.71875 68.867188 356.578125 68.648438 357.238281 69.046875 C 357.902344 69.441406 358.117188 70.300781 357.722656 70.964844 C 357.234375 71.785156 356.625 72.511719 355.929688 73.113281 C 357.832031 74.269531 359.214844 76.28125 359.480469 78.546875 C 359.878906 81.988281 357.667969 85.5 354.339844 86.710938 C 352.65625 87.324219 350.757812 87.34375 348.988281 86.769531 C 348.683594 86.667969 348.210938 86.503906 347.683594 86.273438 C 347.609375 87.453125 347.328125 88.59375 346.855469 89.621094 C 346.617188 90.132812 346.113281 90.433594 345.582031 90.433594 Z M 345.289062 84.722656 C 345.289062 84.722656 345.292969 84.726562 345.296875 84.730469 C 345.292969 84.726562 345.289062 84.726562 345.289062 84.722656 Z M 347.511719 83.59375 C 347.511719 83.59375 347.511719 83.597656 347.511719 83.601562 C 347.511719 83.597656 347.511719 83.59375 347.511719 83.59375 Z M 353.039062 72.121094 C 353.039062 72.121094 353.039062 72.121094 353.042969 72.121094 C 353.042969 72.121094 353.039062 72.121094 353.039062 72.121094 Z M 353.039062 72.121094 " fill-opacity="1" fill-rule="nonzero"/><path fill="#000000" d="M 357.539062 68.257812 C 357.523438 68.257812 357.511719 68.257812 357.496094 68.257812 C 356.722656 68.234375 356.117188 67.589844 356.140625 66.816406 C 356.148438 66.523438 356.132812 66.230469 356.085938 65.945312 C 355.675781 63.292969 352.957031 61.121094 350.289062 61.304688 C 347.90625 61.464844 345.6875 63.488281 345.242188 65.914062 C 345.109375 66.636719 344.460938 67.164062 343.742188 67.148438 C 343.007812 67.136719 342.394531 66.601562 342.28125 65.875 C 341.851562 63.113281 340.136719 60.707031 337.800781 59.585938 C 335.167969 58.324219 331.742188 58.886719 329.828125 60.894531 C 329.261719 61.488281 328.75 62.273438 328.464844 62.992188 C 328.179688 63.710938 327.363281 64.0625 326.648438 63.773438 C 325.929688 63.488281 325.578125 62.675781 325.867188 61.957031 C 326.285156 60.910156 326.988281 59.820312 327.804688 58.964844 C 330.558594 56.070312 335.269531 55.269531 339.007812 57.0625 C 341.128906 58.078125 342.867188 59.859375 343.953125 62.03125 C 345.394531 60.046875 347.664062 58.675781 350.101562 58.511719 C 354.207031 58.230469 358.21875 61.441406 358.851562 65.511719 C 358.921875 65.96875 358.949219 66.433594 358.9375 66.898438 C 358.914062 67.65625 358.292969 68.253906 357.539062 68.253906 Z M 342.488281 65.40625 C 342.488281 65.40625 342.488281 65.40625 342.488281 65.410156 C 342.488281 65.40625 342.488281 65.40625 342.488281 65.40625 Z M 342.488281 65.40625 " fill-opacity="1" fill-rule="nonzero"/><path fill="#ffffff" d="M 338.144531 73.507812 C 338.6875 72.070312 340.207031 71.0625 341.742188 71.121094 C 343.277344 71.179688 344.71875 72.296875 345.152344 73.769531 C 345.589844 75.242188 344.988281 76.964844 343.730469 77.847656 C 340.816406 79.898438 336.882812 76.835938 338.144531 73.507812 Z M 338.144531 73.507812 " fill-opacity="1" fill-rule="nonzero"/><path fill="#000000" d="M 341.667969 79.914062 C 340.453125 79.914062 339.238281 79.460938 338.238281 78.574219 C 337.664062 78.058594 337.609375 77.175781 338.125 76.597656 C 338.636719 76.019531 339.519531 75.96875 340.097656 76.480469 C 340.738281 77.050781 341.863281 77.449219 342.929688 76.703125 C 343.699219 76.160156 344.078125 75.070312 343.8125 74.164062 C 343.542969 73.261719 342.632812 72.554688 341.691406 72.519531 C 340.75 72.480469 339.785156 73.121094 339.453125 74.003906 C 339.363281 74.242188 339.3125 74.480469 339.300781 74.71875 C 339.273438 75.488281 338.636719 76.09375 337.851562 76.0625 C 337.078125 76.03125 336.476562 75.382812 336.507812 74.609375 C 336.527344 74.070312 336.636719 73.535156 336.835938 73.011719 C 337.589844 71.027344 339.671875 69.640625 341.792969 69.722656 C 343.914062 69.800781 345.890625 71.335938 346.496094 73.371094 C 347.097656 75.40625 346.273438 77.769531 344.539062 78.992188 C 343.660156 79.609375 342.664062 79.914062 341.667969 79.914062 Z M 341.667969 79.914062 " fill-opacity="1" fill-rule="nonzero"/><path fill="#fcf9ea" d="M 56.640625 338.21875 C 62.578125 335.25 83.066406 326.777344 89.167969 339.453125 C 95.269531 352.132812 79.84375 370.203125 72.242188 370.167969 C 64.636719 370.136719 53.097656 343.691406 53.097656 343.691406 Z M 56.640625 338.21875 " fill-opacity="1" fill-rule="nonzero"/><path fill="#000000" d="M 72.257812 371.570312 L 72.234375 371.570312 C 64.128906 371.535156 53.800781 348.804688 51.8125 344.25 L 51.511719 343.5625 L 55.671875 337.136719 L 56.015625 336.964844 C 58.78125 335.582031 73.089844 328.851562 82.957031 332.226562 C 86.359375 333.390625 88.871094 335.617188 90.425781 338.847656 C 95.355469 349.085938 87.652344 361.320312 81.273438 367.042969 C 80.699219 367.558594 79.8125 367.511719 79.296875 366.9375 C 78.78125 366.359375 78.832031 365.476562 79.40625 364.960938 C 86.339844 358.738281 91.675781 347.898438 87.90625 340.0625 C 86.671875 337.496094 84.753906 335.796875 82.050781 334.871094 C 73.511719 331.957031 60.289062 338 57.605469 339.304688 L 54.679688 343.816406 C 59.09375 353.742188 67.484375 368.75 72.246094 368.769531 L 72.257812 368.769531 C 73.027344 368.769531 73.988281 368.507812 75.03125 368.007812 C 75.726562 367.671875 76.5625 367.96875 76.898438 368.667969 C 77.230469 369.363281 76.933594 370.199219 76.238281 370.53125 C 74.796875 371.21875 73.460938 371.570312 72.257812 371.570312 Z M 72.257812 371.570312 " fill-opacity="1" fill-rule="nonzero"/><path fill="#fcf9ea" d="M 55.175781 336.640625 C 53.617188 329.933594 46.941406 307.902344 33.726562 310.941406 C 20.511719 313.976562 16.902344 337.941406 21.730469 344.113281 C 26.554688 350.289062 53.371094 342.984375 53.371094 342.984375 Z M 55.175781 336.640625 " fill-opacity="1" fill-rule="nonzero"/><path fill="#000000" d="M 30.828125 347.964844 C 26.273438 347.964844 22.363281 347.199219 20.625 344.976562 C 19.5 343.535156 18.742188 341.304688 18.4375 338.519531 C 18.355469 337.753906 18.910156 337.0625 19.675781 336.980469 C 20.441406 336.898438 21.136719 337.449219 21.21875 338.21875 C 21.464844 340.449219 22.035156 342.238281 22.828125 343.253906 C 25.851562 347.117188 42.144531 344.5 52.242188 341.835938 L 53.730469 336.609375 C 53.0625 333.84375 50.34375 323.648438 45.121094 317.210938 C 44.636719 316.613281 44.726562 315.730469 45.328125 315.246094 C 45.929688 314.757812 46.808594 314.851562 47.296875 315.449219 C 53.15625 322.675781 56.023438 334.105469 56.535156 336.324219 L 56.617188 336.675781 L 54.5 344.125 L 53.738281 344.332031 C 51.839844 344.847656 40.019531 347.964844 30.824219 347.964844 Z M 30.828125 347.964844 " fill-opacity="1" fill-rule="nonzero"/><path fill="#000000" d="M 19.738281 335.1875 C 19.710938 335.1875 19.683594 335.1875 19.65625 335.1875 C 18.886719 335.144531 18.296875 334.480469 18.339844 333.710938 C 18.914062 323.621094 23.878906 311.765625 33.414062 309.578125 C 36.144531 308.949219 38.796875 309.246094 41.300781 310.449219 C 41.996094 310.785156 42.289062 311.621094 41.953125 312.316406 C 41.617188 313.011719 40.78125 313.304688 40.085938 312.96875 C 38.144531 312.035156 36.164062 311.816406 34.039062 312.304688 C 26.273438 314.089844 21.667969 324.503906 21.132812 333.871094 C 21.089844 334.617188 20.472656 335.191406 19.738281 335.191406 Z M 19.738281 335.1875 " fill-opacity="1" fill-rule="nonzero"/><path fill="#fcf9ea" d="M 49.082031 332.796875 C 50.335938 331.480469 51.820312 330.285156 53.589844 329.855469 C 55.648438 329.351562 57.90625 329.988281 59.546875 331.332031 C 61.1875 332.675781 62.238281 334.660156 62.652344 336.742188 C 63.183594 339.390625 62.691406 342.261719 61.164062 344.488281 C 54.121094 354.769531 40.707031 341.558594 49.078125 332.796875 Z M 49.082031 332.796875 " fill-opacity="1" fill-rule="nonzero"/><path fill="#000000" d="M 54.929688 349.636719 C 54.570312 349.636719 54.210938 349.613281 53.84375 349.566406 C 50.246094 349.089844 46.933594 346.246094 45.609375 342.484375 C 44.289062 338.730469 45.183594 334.847656 48.066406 331.832031 C 49.828125 329.992188 51.476562 328.929688 53.257812 328.496094 C 55.683594 327.902344 58.363281 328.5625 60.429688 330.25 C 62.242188 331.730469 63.519531 333.941406 64.023438 336.46875 C 64.644531 339.578125 64.023438 342.792969 62.316406 345.28125 C 60.375 348.117188 57.78125 349.636719 54.929688 349.636719 Z M 50.089844 333.765625 C 47.175781 336.816406 47.6875 339.953125 48.25 341.554688 C 49.21875 344.300781 51.667969 346.457031 54.210938 346.789062 C 56.417969 347.085938 58.425781 346.015625 60.011719 343.699219 C 61.273438 341.855469 61.75 339.359375 61.28125 337.015625 C 60.902344 335.121094 59.972656 333.488281 58.660156 332.414062 C 57.289062 331.292969 55.476562 330.835938 53.921875 331.214844 C 52.683594 331.515625 51.464844 332.324219 50.089844 333.765625 Z M 50.089844 333.765625 " fill-opacity="1" fill-rule="nonzero"/><path fill="#000000" d="M 75.074219 351.714844 C 74.492188 351.714844 73.964844 351.351562 73.761719 350.796875 C 72.714844 349.257812 64.6875 343.878906 62.261719 344.699219 C 61.527344 344.945312 60.734375 344.550781 60.488281 343.820312 C 60.242188 343.085938 60.636719 342.292969 61.371094 342.046875 C 63.164062 341.441406 65.898438 342.167969 69.488281 344.203125 C 69.554688 344.238281 75.988281 347.933594 76.445312 350.019531 C 76.609375 350.773438 76.132812 351.519531 75.375 351.683594 C 75.277344 351.707031 75.175781 351.71875 75.074219 351.71875 Z M 75.074219 351.714844 " fill-opacity="1" fill-rule="nonzero"/><path fill="#000000" d="M 47.488281 336.347656 C 47.226562 336.347656 46.957031 336.273438 46.722656 336.117188 C 42.472656 333.34375 34.207031 330.886719 34.125 330.863281 C 33.382812 330.644531 32.957031 329.863281 33.175781 329.125 C 33.394531 328.382812 34.171875 327.957031 34.914062 328.175781 C 35.269531 328.28125 43.660156 330.773438 48.253906 333.777344 C 48.898438 334.199219 49.082031 335.066406 48.660156 335.710938 C 48.390625 336.121094 47.945312 336.347656 47.488281 336.347656 Z M 47.488281 336.347656 " fill-opacity="1" fill-rule="nonzero"/><path fill="#ffbdbd" d="M 38.574219 290.003906 C 40.457031 286.125 47.652344 273.65625 55.808594 277.769531 C 63.96875 281.878906 63.179688 297.285156 59.253906 300.28125 C 55.324219 303.273438 38.917969 294.226562 38.917969 294.226562 Z M 38.574219 290.003906 " fill-opacity="1" fill-rule="nonzero"/><path fill="#000000" d="M 56.882812 302.257812 C 51.117188 302.257812 41.53125 297.265625 38.242188 295.449219 L 37.582031 295.085938 L 37.148438 289.738281 L 37.316406 289.394531 C 38.207031 287.554688 42.996094 278.269531 49.59375 276.039062 C 51.933594 275.25 54.238281 275.410156 56.441406 276.519531 C 63.269531 279.960938 64.195312 289.566406 63.148438 295.183594 C 63.007812 295.945312 62.28125 296.445312 61.519531 296.304688 C 60.757812 296.164062 60.257812 295.433594 60.398438 294.671875 C 61.472656 288.898438 60.011719 281.449219 55.179688 279.015625 C 53.652344 278.246094 52.117188 278.140625 50.492188 278.691406 C 45.234375 280.464844 40.980469 288.34375 40 290.28125 L 40.25 293.359375 C 47.636719 297.339844 56.484375 300.628906 58.40625 299.167969 C 58.640625 298.988281 59.007812 298.609375 59.394531 297.839844 C 59.746094 297.152344 60.589844 296.875 61.277344 297.226562 C 61.964844 297.574219 62.242188 298.417969 61.890625 299.105469 C 61.386719 300.101562 60.785156 300.871094 60.101562 301.394531 C 59.304688 302 58.191406 302.257812 56.882812 302.257812 Z M 56.882812 302.257812 " fill-opacity="1" fill-rule="nonzero"/><path fill="#ffbdbd" d="M 37.199219 289.773438 C 33.742188 286.933594 21.582031 278.238281 15.980469 285.03125 C 10.378906 291.824219 18.007812 305.589844 22.933594 306.859375 C 27.863281 308.125 38.777344 293.75 38.777344 293.75 Z M 37.199219 289.773438 " fill-opacity="1" fill-rule="nonzero"/><path fill="#000000" d="M 23.515625 308.328125 C 23.195312 308.328125 22.886719 308.289062 22.585938 308.214844 C 21.332031 307.890625 20.015625 307.019531 18.675781 305.621094 C 18.140625 305.0625 18.160156 304.179688 18.714844 303.644531 C 19.273438 303.109375 20.160156 303.125 20.695312 303.683594 C 21.972656 305.015625 22.867188 305.394531 23.285156 305.503906 C 25.679688 306.125 32.25 299.878906 37.183594 293.527344 L 36.03125 290.628906 C 34.480469 289.386719 29.242188 285.421875 24.21875 284.226562 C 23.46875 284.046875 23.003906 283.292969 23.183594 282.539062 C 23.363281 281.789062 24.117188 281.324219 24.867188 281.503906 C 30.851562 282.925781 36.929688 287.742188 38.085938 288.691406 L 38.363281 288.921875 L 40.371094 293.96875 L 39.890625 294.597656 C 38.078125 296.984375 29.167969 308.324219 23.511719 308.324219 Z M 23.515625 308.328125 " fill-opacity="1" fill-rule="nonzero"/><g clip-path="url(#3da2b6906a)"><path fill="#000000" d="M 17.824219 303.730469 C 17.378906 303.730469 16.9375 303.515625 16.667969 303.121094 C 12.871094 297.550781 10.699219 289.238281 14.902344 284.140625 C 16.132812 282.648438 17.707031 281.691406 19.585938 281.300781 C 20.347656 281.144531 21.085938 281.625 21.242188 282.382812 C 21.398438 283.140625 20.914062 283.878906 20.160156 284.039062 C 18.902344 284.300781 17.886719 284.917969 17.0625 285.921875 C 13.921875 289.726562 15.652344 296.660156 18.980469 301.542969 C 19.414062 302.179688 19.25 303.050781 18.613281 303.484375 C 18.371094 303.652344 18.097656 303.730469 17.824219 303.730469 Z M 17.824219 303.730469 " fill-opacity="1" fill-rule="nonzero"/></g><path fill="#ffbdbd" d="M 32.539062 290.207031 C 32.664062 289.03125 32.953125 287.828125 33.695312 286.90625 C 34.554688 285.832031 35.96875 285.269531 37.347656 285.308594 C 38.722656 285.351562 40.050781 285.957031 41.085938 286.863281 C 42.40625 288.019531 43.292969 289.691406 43.386719 291.441406 C 43.828125 299.523438 31.695312 298.03125 32.539062 290.207031 Z M 32.539062 290.207031 " fill-opacity="1" fill-rule="nonzero"/><path fill="#000000" d="M 38.539062 298.230469 C 37.089844 298.230469 35.597656 297.808594 34.320312 296.976562 C 31.992188 295.464844 30.835938 292.941406 31.148438 290.058594 C 31.335938 288.316406 31.796875 287.035156 32.605469 286.03125 C 33.714844 284.648438 35.515625 283.863281 37.390625 283.914062 C 39.023438 283.960938 40.664062 284.636719 42.007812 285.8125 C 43.660156 287.253906 44.671875 289.28125 44.785156 291.367188 C 44.933594 294.074219 43.898438 296.207031 41.875 297.378906 C 40.886719 297.949219 39.726562 298.230469 38.542969 298.230469 Z M 33.929688 290.355469 C 33.664062 292.820312 35.015625 294.09375 35.84375 294.632812 C 37.28125 295.566406 39.1875 295.699219 40.472656 294.953125 C 41.554688 294.328125 42.078125 293.140625 41.992188 291.519531 C 41.917969 290.199219 41.234375 288.851562 40.164062 287.917969 C 39.304688 287.167969 38.289062 286.738281 37.304688 286.707031 C 36.3125 286.675781 35.339844 287.089844 34.785156 287.78125 C 34.328125 288.351562 34.054688 289.167969 33.929688 290.355469 Z M 33.929688 290.355469 " fill-opacity="1" fill-rule="nonzero"/><path fill="#000000" d="M 43.277344 292.011719 C 43.007812 292.011719 42.738281 291.933594 42.5 291.773438 C 41.859375 291.34375 41.6875 290.472656 42.117188 289.832031 C 42.898438 288.671875 44.65625 287.914062 47.496094 287.515625 C 48.007812 287.441406 52.535156 286.839844 53.757812 287.867188 C 54.347656 288.367188 54.421875 289.246094 53.925781 289.839844 C 53.488281 290.359375 52.753906 290.480469 52.179688 290.164062 C 50.699219 289.785156 45.105469 290.402344 44.441406 291.390625 C 44.171875 291.792969 43.730469 292.007812 43.277344 292.007812 Z M 51.953125 290.007812 Z M 51.953125 290.007812 " fill-opacity="1" fill-rule="nonzero"/><path fill="#000000" d="M 23.746094 295.683594 C 23.183594 295.683594 22.65625 295.34375 22.441406 294.792969 C 22.160156 294.074219 22.515625 293.261719 23.234375 292.980469 C 23.460938 292.890625 28.832031 290.808594 32.460938 290.527344 C 33.230469 290.464844 33.902344 291.046875 33.960938 291.816406 C 34.019531 292.585938 33.445312 293.257812 32.675781 293.316406 C 29.457031 293.566406 24.304688 295.566406 24.253906 295.585938 C 24.085938 295.652344 23.914062 295.683594 23.746094 295.683594 Z M 23.746094 295.683594 " fill-opacity="1" fill-rule="nonzero"/><g clip-path="url(#f888062991)"><path fill="#000000" d="M 352.191406 37.210938 C 352.617188 35.910156 352.976562 34.546875 353.558594 33.316406 C 353.875 32.660156 354.855469 32.847656 354.917969 33.570312 C 355.035156 34.855469 355.238281 36.125 355.691406 37.324219 C 356.390625 39.191406 357.792969 40.90625 359.707031 41.464844 C 360.355469 41.652344 361.148438 41.785156 361.417969 42.40625 C 361.628906 42.882812 361.398438 43.457031 361.023438 43.816406 C 360.648438 44.179688 360.15625 44.390625 359.695312 44.628906 C 357.113281 45.976562 355.25 48.617188 354.84375 51.503906 C 354.738281 52.242188 354.507812 53.214844 353.761719 53.234375 C 353.09375 53.25 352.757812 52.4375 352.671875 51.777344 C 352.273438 48.75 351.789062 45.65625 348.375 44.597656 C 347.9375 44.464844 347.390625 44.296875 347.328125 43.84375 C 347.273438 43.472656 347.601562 43.167969 347.898438 42.9375 C 348.859375 42.183594 350.023438 41.492188 350.714844 40.492188 C 351.378906 39.539062 351.832031 38.308594 352.191406 37.210938 Z M 352.191406 37.210938 " fill-opacity="1" fill-rule="nonzero"/></g><path fill="#000000" d="M 24.179688 260.925781 C 24.601562 259.621094 24.960938 258.257812 25.546875 257.027344 C 25.859375 256.371094 26.839844 256.558594 26.90625 257.28125 C 27.019531 258.566406 27.226562 259.835938 27.675781 261.035156 C 28.375 262.902344 29.777344 264.617188 31.695312 265.175781 C 32.339844 265.363281 33.132812 265.5 33.40625 266.117188 C 33.613281 266.59375 33.382812 267.167969 33.007812 267.53125 C 32.636719 267.894531 32.144531 268.101562 31.683594 268.34375 C 29.101562 269.6875 27.234375 272.328125 26.828125 275.214844 C 26.726562 275.953125 26.492188 276.929688 25.75 276.945312 C 25.082031 276.960938 24.746094 276.148438 24.65625 275.488281 C 24.261719 272.460938 23.773438 269.367188 20.359375 268.308594 C 19.925781 268.175781 19.378906 268.007812 19.3125 267.558594 C 19.261719 267.183594 19.589844 266.878906 19.882812 266.648438 C 20.84375 265.894531 22.007812 265.207031 22.703125 264.203125 C 23.363281 263.25 23.820312 262.023438 24.175781 260.921875 Z M 24.179688 260.925781 " fill-opacity="1" fill-rule="nonzero"/><path fill="#000000" d="M 72.859375 308.019531 C 73.28125 306.71875 73.640625 305.351562 74.226562 304.125 C 74.539062 303.464844 75.519531 303.652344 75.585938 304.378906 C 75.699219 305.664062 75.90625 306.929688 76.355469 308.132812 C 77.054688 310 78.457031 311.714844 80.371094 312.273438 C 81.019531 312.460938 81.8125 312.59375 82.085938 313.214844 C 82.292969 313.691406 82.0625 314.261719 81.6875 314.625 C 81.316406 314.988281 80.824219 315.195312 80.363281 315.4375 C 77.777344 316.785156 75.914062 319.425781 75.507812 322.308594 C 75.40625 323.050781 75.171875 324.023438 74.425781 324.042969 C 73.757812 324.058594 73.425781 323.246094 73.335938 322.582031 C 72.941406 319.558594 72.453125 316.464844 69.039062 315.40625 C 68.605469 315.273438 68.058594 315.105469 67.992188 314.652344 C 67.9375 314.28125 68.265625 313.976562 68.5625 313.746094 C 69.523438 312.992188 70.6875 312.300781 71.382812 311.300781 C 72.042969 310.34375 72.5 309.117188 72.855469 308.019531 Z M 72.859375 308.019531 " fill-opacity="1" fill-rule="nonzero"/><path fill="#000000" d="M 39.371094 357.898438 C 39.792969 356.59375 40.15625 355.230469 40.738281 354 C 41.050781 353.34375 42.03125 353.53125 42.097656 354.253906 C 42.210938 355.539062 42.417969 356.808594 42.867188 358.007812 C 43.566406 359.875 44.96875 361.589844 46.886719 362.148438 C 47.535156 362.335938 48.324219 362.472656 48.597656 363.089844 C 48.804688 363.566406 48.574219 364.140625 48.199219 364.503906 C 47.828125 364.863281 47.335938 365.074219 46.875 365.316406 C 44.292969 366.660156 42.425781 369.300781 42.023438 372.1875 C 41.917969 372.925781 41.683594 373.902344 40.941406 373.917969 C 40.273438 373.933594 39.9375 373.121094 39.847656 372.460938 C 39.453125 369.433594 38.964844 366.339844 35.554688 365.28125 C 35.117188 365.148438 34.570312 364.980469 34.503906 364.53125 C 34.453125 364.15625 34.78125 363.851562 35.074219 363.621094 C 36.035156 362.867188 37.199219 362.179688 37.894531 361.175781 C 38.554688 360.222656 39.011719 358.996094 39.367188 357.894531 Z M 39.371094 357.898438 " fill-opacity="1" fill-rule="nonzero"/><path fill="#000000" d="M 303.472656 79.019531 C 303.894531 77.71875 304.257812 76.355469 304.839844 75.125 C 305.152344 74.46875 306.132812 74.65625 306.199219 75.378906 C 306.3125 76.664062 306.519531 77.933594 306.96875 79.132812 C 307.671875 81 309.074219 82.714844 310.988281 83.273438 C 311.636719 83.460938 312.429688 83.59375 312.699219 84.214844 C 312.90625 84.691406 312.675781 85.265625 312.304688 85.625 C 311.929688 85.988281 311.4375 86.199219 310.976562 86.4375 C 308.394531 87.785156 306.53125 90.425781 306.125 93.3125 C 306.019531 94.050781 305.789062 95.023438 305.042969 95.042969 C 304.375 95.058594 304.039062 94.246094 303.953125 93.585938 C 303.554688 90.558594 303.066406 87.464844 299.65625 86.40625 C 299.21875 86.273438 298.671875 86.105469 298.605469 85.652344 C 298.554688 85.28125 298.882812 84.976562 299.179688 84.746094 C 300.140625 83.992188 301.300781 83.304688 301.996094 82.300781 C 302.65625 81.347656 303.113281 80.117188 303.472656 79.019531 Z M 303.472656 79.019531 " fill-opacity="1" fill-rule="nonzero"/><path fill="#000000" d="M 313.273438 62.417969 C 313.476562 61.796875 313.648438 61.148438 313.925781 60.566406 C 314.074219 60.25 314.539062 60.339844 314.570312 60.6875 C 314.625 61.296875 314.722656 61.898438 314.9375 62.46875 C 315.269531 63.359375 315.9375 64.171875 316.847656 64.4375 C 317.15625 64.527344 317.53125 64.589844 317.660156 64.886719 C 317.757812 65.113281 317.652344 65.382812 317.472656 65.558594 C 317.296875 65.730469 317.0625 65.828125 316.84375 65.941406 C 315.617188 66.582031 314.730469 67.839844 314.535156 69.207031 C 314.488281 69.558594 314.375 70.023438 314.023438 70.03125 C 313.707031 70.039062 313.546875 69.652344 313.503906 69.339844 C 313.316406 67.902344 313.085938 66.429688 311.460938 65.925781 C 311.253906 65.863281 310.996094 65.785156 310.964844 65.570312 C 310.9375 65.390625 311.09375 65.246094 311.234375 65.136719 C 311.691406 64.78125 312.246094 64.453125 312.574219 63.976562 C 312.890625 63.523438 313.109375 62.9375 313.277344 62.414062 Z M 313.273438 62.417969 " fill-opacity="1" fill-rule="nonzero"/><path fill="#000000" d="M 17.324219 247.136719 C 17.523438 246.519531 17.695312 245.867188 17.972656 245.285156 C 18.121094 244.972656 18.585938 245.0625 18.621094 245.40625 C 18.675781 246.015625 18.769531 246.621094 18.984375 247.191406 C 19.320312 248.078125 19.984375 248.890625 20.894531 249.15625 C 21.203125 249.246094 21.582031 249.3125 21.707031 249.605469 C 21.808594 249.832031 21.699219 250.105469 21.519531 250.277344 C 21.34375 250.449219 21.109375 250.546875 20.890625 250.664062 C 19.664062 251.304688 18.777344 252.558594 18.585938 253.929688 C 18.535156 254.28125 18.425781 254.746094 18.070312 254.753906 C 17.753906 254.761719 17.59375 254.375 17.554688 254.058594 C 17.363281 252.621094 17.132812 251.148438 15.511719 250.648438 C 15.304688 250.582031 15.042969 250.503906 15.011719 250.289062 C 14.988281 250.113281 15.144531 249.96875 15.285156 249.859375 C 15.742188 249.5 16.292969 249.171875 16.625 248.695312 C 16.9375 248.242188 17.15625 247.660156 17.324219 247.136719 Z M 17.324219 247.136719 " fill-opacity="1" fill-rule="nonzero"/><path fill="#000000" d="M 57.800781 317.40625 C 58.003906 316.785156 58.175781 316.136719 58.453125 315.554688 C 58.601562 315.238281 59.066406 315.328125 59.097656 315.675781 C 59.152344 316.285156 59.25 316.886719 59.464844 317.457031 C 59.796875 318.347656 60.464844 319.160156 61.375 319.425781 C 61.683594 319.515625 62.058594 319.578125 62.1875 319.875 C 62.289062 320.101562 62.179688 320.375 62 320.546875 C 61.824219 320.71875 61.589844 320.816406 61.371094 320.933594 C 60.144531 321.570312 59.257812 322.828125 59.0625 324.199219 C 59.015625 324.546875 58.902344 325.011719 58.550781 325.023438 C 58.234375 325.027344 58.074219 324.644531 58.03125 324.328125 C 57.84375 322.890625 57.613281 321.417969 55.992188 320.917969 C 55.785156 320.851562 55.523438 320.773438 55.492188 320.558594 C 55.46875 320.378906 55.621094 320.234375 55.765625 320.125 C 56.222656 319.769531 56.773438 319.441406 57.105469 318.964844 C 57.417969 318.511719 57.636719 317.925781 57.804688 317.40625 Z M 57.800781 317.40625 " fill-opacity="1" fill-rule="nonzero"/><path fill="#000000" d="M 346.269531 102.542969 C 346.46875 101.925781 346.640625 101.277344 346.917969 100.691406 C 347.066406 100.378906 347.53125 100.46875 347.5625 100.8125 C 347.621094 101.421875 347.714844 102.027344 347.929688 102.597656 C 348.265625 103.484375 348.929688 104.300781 349.839844 104.566406 C 350.148438 104.65625 350.527344 104.71875 350.652344 105.011719 C 350.753906 105.238281 350.644531 105.511719 350.464844 105.683594 C 350.289062 105.855469 350.054688 105.957031 349.835938 106.070312 C 348.609375 106.710938 347.722656 107.964844 347.53125 109.335938 C 347.480469 109.6875 347.371094 110.152344 347.015625 110.160156 C 346.699219 110.167969 346.539062 109.78125 346.5 109.464844 C 346.308594 108.027344 346.078125 106.558594 344.457031 106.054688 C 344.25 105.988281 343.988281 105.910156 343.957031 105.695312 C 343.933594 105.519531 344.089844 105.375 344.230469 105.265625 C 344.6875 104.90625 345.238281 104.578125 345.570312 104.101562 C 345.882812 103.648438 346.101562 103.066406 346.269531 102.542969 Z M 346.269531 102.542969 " fill-opacity="1" fill-rule="nonzero"/><g clip-path="url(#97bab48007)"><g clip-path="url(#287fed13d2)"><g transform="matrix(1, 0, 0, 1, 65, 54)"><g clip-path="url(#2190c3d739)"><g clip-path="url(#9dddb48deb)"><g clip-path="url(#0d5e1d5d3a)"><path fill="#ffffff" d="M 0.609375 0.816406 L 255.683594 0.816406 L 255.683594 276.8125 L 0.609375 276.8125 Z M 0.609375 0.816406 " fill-opacity="1" fill-rule="nonzero"/></g></g></g></g></g></g><g clip-path="url(#29d472f8b0)"><g clip-path="url(#e2861f3e18)"><path stroke-linecap="butt" transform="matrix(0.748125, 0, 0, 0.748125, 65.610816, 54.815758)" fill="none" stroke-linejoin="miter" d="M 9.99703 0.00608843 L 330.940022 0.00608843 C 333.592487 0.00608843 336.135302 1.060809 338.00978 2.935287 C 339.884258 4.809764 340.938978 7.35258 340.938978 10.005044 L 340.938978 358.887678 C 340.938978 361.540143 339.884258 364.082958 338.00978 365.957436 C 336.135302 367.831914 333.592487 368.886634 330.940022 368.886634 L 9.99703 368.886634 C 7.349787 368.886634 4.80175 367.831914 2.927272 365.957436 C 1.052794 364.082958 -0.00192601 361.540143 -0.00192601 358.887678 L -0.00192601 10.005044 C -0.00192601 7.35258 1.052794 4.809764 2.927272 2.935287 C 4.80175 1.060809 7.349787 0.00608843 9.99703 0.00608843 Z M 9.99703 0.00608843 " stroke="#000000" stroke-width="8" stroke-opacity="1" stroke-miterlimit="4"/></g></g><g clip-path="url(#9ccbd111e7)"><g clip-path="url(#5b9a32a515)"><g transform="matrix(1, 0, 0, 1, 52, 23)"><g clip-path="url(#bc161c4643)"><g clip-path="url(#e9807c7f3f)"><g clip-path="url(#7f603d8981)"><path fill="#ffffff" d="M 0.140625 0.9375 L 27.078125 0.9375 L 27.078125 27.875 L 0.140625 27.875 Z M 0.140625 0.9375 " fill-opacity="1" fill-rule="nonzero"/></g></g></g></g></g></g><g clip-path="url(#b012c595f3)"><g clip-path="url(#03eee0bdd9)"><path stroke-linecap="butt" transform="matrix(0.748125, 0, 0, 0.748125, 52.142379, 23.937777)" fill="none" stroke-linejoin="miter" d="M 18.000999 -0.000370044 C 8.059477 -0.000370044 -0.00234459 8.061452 -0.00234459 17.997752 C -0.00234459 27.939273 8.059477 36.001095 18.000999 36.001095 C 27.94252 36.001095 35.999121 27.939273 35.999121 17.997752 C 35.999121 8.061452 27.94252 -0.000370044 18.000999 -0.000370044 Z M 18.000999 -0.000370044 " stroke="#000000" stroke-width="8" stroke-opacity="1" stroke-miterlimit="4"/></g></g><g clip-path="url(#9cd346bf52)"><g clip-path="url(#e7a332437b)"><g clip-path="url(#952cd52640)"><g transform="matrix(1, 0, 0, 1, 56, 28)"><g clip-path="url(#a28243b196)"><g clip-path="url(#89ab9a4f53)"><g clip-path="url(#3a47eef6d5)"><g clip-path="url(#caea289809)"><path fill="#ffa4a4" d="M 9.609375 -4.0625 L 23.078125 9.40625 L 9.609375 22.875 L -3.859375 9.40625 Z M 9.609375 -4.0625 " fill-opacity="1" fill-rule="nonzero"/></g></g></g></g></g></g></g></g><g clip-path="url(#cc05952767)"><g clip-path="url(#c3b71ddaed)"><g clip-path="url(#d25f18a289)"><g clip-path="url(#0bb4ce931a)"><path stroke-linecap="butt" transform="matrix(0.529004, 0.529004, -0.529004, 0.529004, 65.608252, 23.938887)" fill="none" stroke-linejoin="miter" d="M 16.499649 0.00131946 L 8.95304 0.00131946 C 8.687211 0.00131946 8.436149 0.104698 8.247853 0.292994 C 8.059557 0.48129 7.952487 0.736043 7.956179 0.998181 L 7.952487 6.953503 C 7.952487 7.219333 7.845417 7.474086 7.660813 7.65869 C 7.472517 7.846986 7.217764 7.954056 6.951934 7.954056 L 1.000304 7.954056 C 0.734474 7.954056 0.479721 8.061126 0.295117 8.24573 C 0.106821 8.434026 -0.000249619 8.68878 -0.000249619 8.954609 L -0.000249619 16.501218 C -0.000249619 16.767047 0.103129 17.018109 0.291425 17.206405 C 0.479721 17.394701 0.734474 17.501771 1.000304 17.501771 L 6.955626 17.498079 C 7.221456 17.498079 7.476209 17.605149 7.660813 17.789753 C 7.849109 17.978049 7.956179 18.232802 7.956179 18.498632 L 7.952487 24.453954 C 7.952487 24.719784 8.059557 24.974537 8.247853 25.162833 C 8.432457 25.347437 8.687211 25.454508 8.95304 25.454508 L 16.499649 25.454508 C 16.765478 25.454508 17.020232 25.347437 17.208528 25.159141 C 17.393131 24.974537 17.500202 24.719784 17.500202 24.453954 L 17.49651 18.498632 C 17.49651 18.232802 17.60358 17.978049 17.791876 17.789753 C 17.97648 17.605149 18.231233 17.498079 18.497063 17.498079 L 24.456077 17.498079 C 24.718215 17.501771 24.972968 17.394701 25.161264 17.206405 C 25.34956 17.018109 25.452938 16.767047 25.452938 16.501218 L 25.452938 8.954609 C 25.452938 8.68878 25.345868 8.434026 25.161264 8.249422 C 24.972968 8.061126 24.718215 7.954056 24.452385 7.954056 L 18.500755 7.954056 C 18.234925 7.954056 17.980172 7.846986 17.791876 7.65869 C 17.607272 7.474086 17.500202 7.219333 17.500202 6.953503 L 17.500202 1.001873 C 17.500202 0.736043 17.393131 0.48129 17.204835 0.292994 C 17.016539 0.104698 16.765478 0.00131946 16.499649 0.00131946 Z M 16.499649 0.00131946 " stroke="#000000" stroke-width="6" stroke-opacity="1" stroke-miterlimit="4"/></g></g></g></g></svg>