<svg xmlns="http://www.w3.org/2000/svg" xmlns:xlink="http://www.w3.org/1999/xlink" width="500" zoomAndPan="magnify" viewBox="0 0 375.12 383.03998" height="500" preserveAspectRatio="xMidYMid meet" version="1.0"><defs><filter x="0%" y="0%" width="100%" height="100%" id="024aac445b"><feColorMatrix values="0 0 0 0 1 0 0 0 0 1 0 0 0 0 1 0 0 0 1 0" color-interpolation-filters="sRGB"/></filter><mask id="613788d972"><g filter="url(#024aac445b)"><rect x="-37.512" width="450.144" fill="#000000" y="-38.303998" height="459.647976" fill-opacity="0.5"/></g></mask><clipPath id="f0a180d76d"><path d="M 0.015625 1 L 367 1 L 367 142 L 0.015625 142 Z M 0.015625 1 " clip-rule="nonzero"/></clipPath><clipPath id="bae7c21f14"><rect x="0" width="368" y="0" height="143"/></clipPath><mask id="8c5a048f00"><g filter="url(#024aac445b)"><rect x="-37.512" width="450.144" fill="#000000" y="-38.303998" height="459.647976" fill-opacity="0.5"/></g></mask><clipPath id="c50ae72c4d"><path d="M 0.015625 0.0546875 L 366 0.0546875 L 366 27 L 0.015625 27 Z M 0.015625 0.0546875 " clip-rule="nonzero"/></clipPath><clipPath id="645ba43bd8"><rect x="0" width="367" y="0" height="28"/></clipPath><mask id="ae6c65d1e8"><g filter="url(#024aac445b)"><rect x="-37.512" width="450.144" fill="#000000" y="-38.303998" height="459.647976" fill-opacity="0.5"/></g></mask><clipPath id="7f99a818a6"><path d="M 0.015625 0.625 L 367 0.625 L 367 27.917969 L 0.015625 27.917969 Z M 0.015625 0.625 " clip-rule="nonzero"/></clipPath><clipPath id="22feb2f194"><rect x="0" width="368" y="0" height="28"/></clipPath><mask id="1903b9e607"><g filter="url(#024aac445b)"><rect x="-37.512" width="450.144" fill="#000000" y="-38.303998" height="459.647976" fill-opacity="0.5"/></g></mask><clipPath id="e67a9e7440"><path d="M 0.410156 1 L 364 1 L 364 11 L 0.410156 11 Z M 0.410156 1 " clip-rule="nonzero"/></clipPath><clipPath id="857defff14"><rect x="0" width="365" y="0" height="12"/></clipPath><mask id="946c07d0e0"><g filter="url(#024aac445b)"><rect x="-37.512" width="450.144" fill="#000000" y="-38.303998" height="459.647976" fill-opacity="0.5"/></g></mask><clipPath id="770864c153"><path d="M 0.292969 2 L 27 2 L 27 142 L 0.292969 142 Z M 0.292969 2 " clip-rule="nonzero"/></clipPath><clipPath id="5994112e6d"><path d="M 315 1 L 341.917969 1 L 341.917969 142 L 315 142 Z M 315 1 " clip-rule="nonzero"/></clipPath><clipPath id="cdaa43725c"><rect x="0" width="342" y="0" height="143"/></clipPath><clipPath id="2bc2b88ed9"><path d="M 328 111.050781 L 358 111.050781 L 358 124 L 328 124 Z M 328 111.050781 " clip-rule="nonzero"/></clipPath><clipPath id="1e04d5ff9f"><path d="M 22 249 L 47 249 L 47 262.917969 L 22 262.917969 Z M 22 249 " clip-rule="nonzero"/></clipPath><clipPath id="4910185777"><path d="M 0.03125 238 L 23 238 L 23 262.917969 L 0.03125 262.917969 Z M 0.03125 238 " clip-rule="nonzero"/></clipPath><clipPath id="74ccc29ae8"><path d="M 350 135 L 374.09375 135 L 374.09375 149 L 350 149 Z M 350 135 " clip-rule="nonzero"/></clipPath><clipPath id="775962d44e"><path d="M 40.425781 154.402344 L 333.816406 154.402344 L 333.816406 219.65625 L 40.425781 219.65625 Z M 40.425781 154.402344 " clip-rule="nonzero"/></clipPath><clipPath id="67e5f70637"><path d="M 333.695312 161.882812 L 333.695312 212.175781 C 333.695312 216.308594 330.347656 219.65625 326.214844 219.65625 L 47.90625 219.65625 C 43.773438 219.65625 40.425781 216.308594 40.425781 212.175781 L 40.425781 161.882812 C 40.425781 157.75 43.773438 154.402344 47.90625 154.402344 L 326.214844 154.402344 C 330.347656 154.402344 333.695312 157.75 333.695312 161.882812 Z M 333.695312 161.882812 " clip-rule="nonzero"/></clipPath><clipPath id="79f16e9812"><path d="M 0.425781 0.402344 L 293.753906 0.402344 L 293.753906 65.65625 L 0.425781 65.65625 Z M 0.425781 0.402344 " clip-rule="nonzero"/></clipPath><clipPath id="82e6416584"><path d="M 293.695312 7.882812 L 293.695312 58.175781 C 293.695312 62.308594 290.347656 65.65625 286.214844 65.65625 L 7.90625 65.65625 C 3.773438 65.65625 0.425781 62.308594 0.425781 58.175781 L 0.425781 7.882812 C 0.425781 3.75 3.773438 0.402344 7.90625 0.402344 L 286.214844 0.402344 C 290.347656 0.402344 293.695312 3.75 293.695312 7.882812 Z M 293.695312 7.882812 " clip-rule="nonzero"/></clipPath><clipPath id="e2186e9f5c"><rect x="0" width="294" y="0" height="66"/></clipPath><clipPath id="7317d290ad"><path d="M 40.433594 154.402344 L 333.691406 154.402344 L 333.691406 219.488281 L 40.433594 219.488281 Z M 40.433594 154.402344 " clip-rule="nonzero"/></clipPath><clipPath id="57ba20b7c9"><path d="M 333.683594 161.882812 L 333.683594 212.171875 C 333.683594 216.304688 330.335938 219.652344 326.203125 219.652344 L 47.914062 219.652344 C 43.78125 219.652344 40.433594 216.304688 40.433594 212.171875 L 40.433594 161.882812 C 40.433594 157.75 43.78125 154.402344 47.914062 154.402344 L 326.203125 154.402344 C 330.335938 154.402344 333.683594 157.75 333.683594 161.882812 Z M 333.683594 161.882812 " clip-rule="nonzero"/></clipPath></defs><path fill="#a9cbc7" d="M 10.714844 219.644531 C 8.980469 215.582031 6.582031 211.625 6.390625 207.203125 C 6.027344 198.921875 13.484375 191.378906 11.738281 183.28125 C 10.800781 178.914062 7.277344 175.355469 6.84375 170.90625 C 6.296875 165.308594 10.75 160.476562 11.636719 154.925781 C 12.453125 149.820312 10.1875 144.808594 8.542969 139.910156 C 6.476562 133.746094 6.960938 124.847656 11.1875 119.664062 C 18.316406 110.917969 28.261719 117.84375 37.03125 118.613281 C 46.042969 119.402344 53.167969 114.566406 62 114.472656 C 67.632812 114.414062 74.519531 114.050781 79.742188 116.246094 C 88.359375 119.871094 98.636719 123.921875 107.726562 119.535156 C 117.566406 114.785156 128.75 113.417969 139.753906 115.644531 C 145.417969 116.792969 150.714844 119.761719 156.480469 120.023438 C 166.90625 120.496094 175.773438 115.023438 186.191406 114.472656 C 199.101562 113.789062 210.910156 122.269531 223.730469 120.589844 C 231.613281 119.554688 238.445312 115.609375 246.316406 114.472656 C 260.578125 112.414062 274.152344 124.324219 287.96875 120.195312 C 292.945312 118.710938 296.621094 116.710938 301.613281 115.28125 C 309.6875 112.96875 318.488281 115.222656 326.527344 117.660156 C 331.789062 119.257812 337.585938 119.816406 343.03125 119.058594 C 345.144531 118.765625 347.636719 118.144531 349.480469 117.042969 C 351.128906 116.058594 352.507812 115.296875 354.46875 114.917969 C 358.484375 114.144531 362.796875 114.820312 366.316406 116.925781 C 368.375 118.160156 370.191406 119.882812 371.246094 122.039062 C 373.28125 126.214844 372.191406 131.203125 370.671875 135.59375 C 369.109375 140.105469 368.003906 144.199219 367.449219 148.929688 C 366.9375 153.300781 367.992188 158.023438 369.386719 162.183594 C 370.738281 166.226562 372.722656 170.234375 372.484375 174.492188 C 372.140625 180.640625 366.972656 184.511719 367.300781 190.792969 C 367.570312 195.980469 371.746094 200.449219 371.550781 205.644531 C 371.386719 210.046875 368.066406 212.644531 366.765625 216.476562 C 365.53125 220.113281 367.816406 226.378906 368.921875 229.902344 C 370.003906 233.347656 371.425781 236.710938 371.984375 240.277344 C 372.539062 243.847656 372.105469 247.773438 369.824219 250.570312 C 367.015625 254.011719 362.074219 254.957031 357.660156 254.464844 C 353.246094 253.972656 349.050781 252.300781 344.691406 251.449219 C 341.898438 250.902344 338.859375 250.660156 336.011719 250.601562 C 333.261719 250.546875 330.894531 251.855469 328.277344 252.53125 C 321.800781 254.203125 314.945312 253.820312 308.390625 252.859375 C 299.234375 251.519531 290.726562 247.417969 281.496094 248.113281 C 270.621094 248.9375 259.320312 255.746094 248.578125 253.851562 C 241.378906 252.582031 234.777344 248.21875 227.46875 248.285156 C 221.664062 248.339844 217.109375 251.390625 211.742188 252.863281 C 206.167969 254.390625 200.164062 253.652344 194.632812 252.308594 C 187.085938 250.472656 179.636719 247.542969 171.871094 247.710938 C 161.699219 247.929688 152.078125 255.011719 141.933594 254.269531 C 132.71875 253.597656 124.140625 247.480469 114.949219 248.382812 C 105.964844 249.261719 98.191406 255.21875 89.171875 254.847656 C 83.59375 254.621094 78.589844 251.503906 73.207031 250.027344 C 63.179688 247.269531 52.609375 250.308594 42.488281 252.699219 C 36.46875 254.121094 30.25 255.261719 24.039062 254.867188 C 19.984375 254.609375 11.875 253.6875 9.871094 249.589844 C 5.183594 240.007812 14.914062 229.5 10.714844 219.644531 Z M 10.714844 219.644531 " fill-opacity="1" fill-rule="nonzero"/><g mask="url(#613788d972)"><g transform="matrix(1, 0, 0, 1, 6, 113)"><g clip-path="url(#bae7c21f14)"><g clip-path="url(#f0a180d76d)"><path fill="#e8e8e8" d="M 4.714844 106.644531 C 2.980469 102.582031 0.582031 98.625 0.390625 94.203125 C 0.0273438 85.921875 7.484375 78.378906 5.738281 70.28125 C 4.800781 65.914062 1.277344 62.355469 0.84375 57.90625 C 0.296875 52.308594 4.75 47.476562 5.636719 41.925781 C 6.453125 36.820312 4.1875 31.808594 2.542969 26.910156 C 0.476562 20.746094 0.960938 11.847656 5.1875 6.664062 C 12.316406 -2.082031 22.261719 4.84375 31.03125 5.613281 C 40.042969 6.402344 47.167969 1.566406 56 1.472656 C 61.632812 1.414062 68.519531 1.050781 73.742188 3.246094 C 82.359375 6.871094 92.636719 10.921875 101.726562 6.535156 C 111.566406 1.785156 122.75 0.417969 133.753906 2.644531 C 139.417969 3.792969 144.714844 6.761719 150.480469 7.023438 C 160.90625 7.496094 169.773438 2.023438 180.191406 1.472656 C 193.101562 0.789062 204.910156 9.269531 217.730469 7.589844 C 225.613281 6.554688 232.445312 2.609375 240.316406 1.472656 C 254.578125 -0.585938 268.152344 11.324219 281.96875 7.195312 C 286.945312 5.710938 290.621094 3.710938 295.613281 2.28125 C 303.6875 -0.03125 312.488281 2.222656 320.527344 4.660156 C 325.789062 6.257812 331.585938 6.816406 337.03125 6.058594 C 339.144531 5.765625 341.636719 5.144531 343.480469 4.042969 C 345.128906 3.058594 346.507812 2.296875 348.46875 1.917969 C 352.484375 1.144531 356.796875 1.820312 360.316406 3.925781 C 362.375 5.160156 364.191406 6.882812 365.246094 9.039062 C 367.28125 13.214844 366.191406 18.203125 364.671875 22.59375 C 363.109375 27.105469 362.003906 31.199219 361.449219 35.929688 C 360.9375 40.300781 361.992188 45.023438 363.386719 49.183594 C 364.738281 53.226562 366.722656 57.234375 366.484375 61.492188 C 366.140625 67.640625 360.972656 71.511719 361.300781 77.792969 C 361.570312 82.980469 365.746094 87.449219 365.550781 92.644531 C 365.386719 97.046875 362.066406 99.644531 360.765625 103.476562 C 359.53125 107.113281 361.816406 113.378906 362.921875 116.902344 C 364.003906 120.347656 365.425781 123.710938 365.984375 127.277344 C 366.539062 130.847656 366.105469 134.773438 363.824219 137.570312 C 361.015625 141.011719 356.074219 141.957031 351.660156 141.464844 C 347.246094 140.972656 343.050781 139.300781 338.691406 138.449219 C 335.898438 137.902344 332.859375 137.660156 330.011719 137.601562 C 327.261719 137.546875 324.894531 138.855469 322.277344 139.53125 C 315.800781 141.203125 308.945312 140.820312 302.390625 139.859375 C 293.234375 138.519531 284.726562 134.417969 275.496094 135.113281 C 264.621094 135.9375 253.320312 142.746094 242.578125 140.851562 C 235.378906 139.582031 228.777344 135.21875 221.46875 135.285156 C 215.664062 135.339844 211.109375 138.390625 205.742188 139.863281 C 200.167969 141.390625 194.164062 140.652344 188.632812 139.308594 C 181.085938 137.472656 173.636719 134.542969 165.871094 134.710938 C 155.699219 134.929688 146.078125 142.011719 135.933594 141.269531 C 126.71875 140.597656 118.140625 134.480469 108.949219 135.382812 C 99.964844 136.261719 92.191406 142.21875 83.171875 141.847656 C 77.59375 141.621094 72.589844 138.503906 67.207031 137.027344 C 57.179688 134.269531 46.609375 137.308594 36.488281 139.699219 C 30.46875 141.121094 24.25 142.261719 18.039062 141.867188 C 13.984375 141.609375 5.875 140.6875 3.871094 136.589844 C -0.816406 127.007812 8.914062 116.5 4.714844 106.644531 Z M 4.714844 106.644531 " fill-opacity="1" fill-rule="nonzero"/></g></g></g></g><path fill="#a9cbc7" d="M 30.183594 254.789062 L 22.976562 254.789062 C 23.351562 254.816406 23.710938 254.84375 24.039062 254.867188 C 26.089844 254.996094 28.140625 254.945312 30.183594 254.789062 Z M 30.183594 254.789062 " fill-opacity="1" fill-rule="nonzero"/><g mask="url(#8c5a048f00)"><g transform="matrix(1, 0, 0, 1, 6, 202)"><g clip-path="url(#645ba43bd8)"><g clip-path="url(#c50ae72c4d)"><path fill="#a9cbc7" d="M 0.390625 5.203125 C 0.582031 9.625 2.980469 13.582031 4.714844 17.644531 C 5.980469 20.613281 5.976562 23.636719 5.488281 26.679688 L 362.535156 26.679688 C 361.367188 23.066406 359.664062 17.726562 360.765625 14.476562 C 362.066406 10.644531 365.386719 8.046875 365.554688 3.644531 C 365.59375 2.550781 365.433594 1.492188 365.164062 0.449219 L 0.941406 0.449219 C 0.546875 2.011719 0.320312 3.59375 0.390625 5.203125 Z M 0.390625 5.203125 " fill-opacity="1" fill-rule="nonzero"/></g></g></g></g><g mask="url(#ae6c65d1e8)"><g transform="matrix(1, 0, 0, 1, 6, 149)"><g clip-path="url(#22feb2f194)"><g clip-path="url(#7f99a818a6)"><path fill="#a9cbc7" d="M 5.582031 0.992188 C 5.839844 2.625 5.902344 4.273438 5.640625 5.925781 C 4.753906 11.476562 0.300781 16.308594 0.84375 21.90625 C 1.027344 23.792969 1.769531 25.523438 2.636719 27.222656 L 366.246094 27.222656 C 366.363281 26.664062 366.453125 26.089844 366.488281 25.496094 C 366.726562 21.234375 364.738281 17.226562 363.386719 13.183594 C 362.105469 9.355469 361.125 5.058594 361.375 0.992188 Z M 5.582031 0.992188 " fill-opacity="1" fill-rule="nonzero"/></g></g></g></g><path fill="#a9cbc7" d="M 88.335938 254.789062 C 88.613281 254.8125 88.890625 254.835938 89.171875 254.847656 C 89.980469 254.882812 90.777344 254.847656 91.570312 254.789062 Z M 88.335938 254.789062 " fill-opacity="1" fill-rule="nonzero"/><g mask="url(#1903b9e607)"><g transform="matrix(1, 0, 0, 1, 8, 113)"><g clip-path="url(#857defff14)"><g clip-path="url(#e67a9e7440)"><path fill="#a9cbc7" d="M 358.316406 3.925781 C 354.796875 1.820312 350.484375 1.144531 346.46875 1.917969 C 344.511719 2.296875 343.128906 3.058594 341.480469 4.042969 C 339.636719 5.144531 337.144531 5.765625 335.03125 6.058594 C 329.585938 6.816406 323.789062 6.257812 318.527344 4.660156 C 310.488281 2.222656 301.691406 -0.03125 293.613281 2.28125 C 288.621094 3.710938 284.945312 5.710938 279.96875 7.195312 C 266.152344 11.324219 252.578125 -0.585938 238.320312 1.472656 C 230.445312 2.609375 223.617188 6.554688 215.730469 7.589844 C 202.914062 9.269531 191.101562 0.789062 178.195312 1.472656 C 167.777344 2.027344 158.90625 7.496094 148.484375 7.023438 C 142.714844 6.761719 137.417969 3.792969 131.753906 2.644531 C 120.75 0.417969 109.566406 1.785156 99.726562 6.535156 C 90.636719 10.921875 80.363281 6.871094 71.742188 3.246094 C 66.519531 1.050781 59.636719 1.414062 54 1.472656 C 45.167969 1.566406 38.042969 6.402344 29.03125 5.613281 C 20.261719 4.84375 10.320312 -2.082031 3.1875 6.664062 C 2.214844 7.859375 1.449219 9.253906 0.859375 10.761719 L 363.898438 10.761719 C 363.730469 10.175781 363.519531 9.601562 363.246094 9.039062 C 362.191406 6.882812 360.375 5.160156 358.316406 3.925781 Z M 358.316406 3.925781 " fill-opacity="1" fill-rule="nonzero"/></g></g></g></g><g mask="url(#946c07d0e0)"><g transform="matrix(1, 0, 0, 1, 22, 113)"><g clip-path="url(#cdaa43725c)"><path fill="#a9cbc7" d="M 79.347656 8.324219 C 72.027344 9.089844 64.390625 6.042969 57.742188 3.246094 C 56.304688 2.644531 54.742188 2.238281 53.117188 1.960938 L 53.117188 137.617188 C 57.789062 139.207031 62.257812 141.648438 67.171875 141.847656 C 71.421875 142.023438 75.394531 140.789062 79.347656 139.347656 Z M 79.347656 8.324219 " fill-opacity="1" fill-rule="nonzero"/><g clip-path="url(#770864c153)"><path fill="#a9cbc7" d="M 26.886719 4.066406 C 23.101562 5.109375 19.277344 5.984375 15.03125 5.613281 C 10.371094 5.207031 5.378906 3.058594 0.65625 2.449219 L 0.65625 141.761719 C 1.152344 141.804688 1.621094 141.839844 2.039062 141.867188 C 8.246094 142.257812 14.46875 141.121094 20.488281 139.699219 C 22.605469 139.199219 24.738281 138.671875 26.886719 138.175781 Z M 26.886719 4.066406 " fill-opacity="1" fill-rule="nonzero"/></g><path fill="#a9cbc7" d="M 131.804688 139.378906 L 131.804688 6.710938 C 127.046875 5.871094 122.53125 3.613281 117.753906 2.644531 C 113.695312 1.824219 109.609375 1.496094 105.574219 1.640625 L 105.574219 137.449219 C 110.308594 139.011719 115.027344 140.910156 119.929688 141.269531 C 123.949219 141.5625 127.886719 140.628906 131.804688 139.378906 Z M 131.804688 139.378906 " fill-opacity="1" fill-rule="nonzero"/><g clip-path="url(#5994112e6d)"><path fill="#a9cbc7" d="M 341.644531 141.167969 L 341.644531 2.65625 C 338.734375 1.582031 335.515625 1.332031 332.46875 1.917969 C 330.511719 2.296875 329.128906 3.058594 327.480469 4.042969 C 325.636719 5.140625 323.144531 5.761719 321.03125 6.058594 C 319.1875 6.316406 317.304688 6.40625 315.414062 6.375 L 315.414062 137.652344 C 317.84375 137.753906 320.351562 137.992188 322.691406 138.449219 C 327.050781 139.300781 331.246094 140.972656 335.660156 141.464844 C 337.628906 141.683594 339.703125 141.617188 341.644531 141.167969 Z M 341.644531 141.167969 " fill-opacity="1" fill-rule="nonzero"/></g><path fill="#a9cbc7" d="M 184.265625 140.6875 L 184.265625 5.277344 C 177.671875 3.355469 171.089844 1.105469 164.191406 1.472656 C 162.085938 1.585938 160.042969 1.902344 158.035156 2.328125 L 158.035156 135.519531 C 162.933594 136.488281 167.761719 138.121094 172.632812 139.308594 C 176.386719 140.21875 180.359375 140.851562 184.265625 140.6875 Z M 184.265625 140.6875 " fill-opacity="1" fill-rule="nonzero"/><path fill="#a9cbc7" d="M 289.183594 140.226562 L 289.183594 1.398438 C 285.945312 1.183594 282.726562 1.390625 279.613281 2.28125 C 274.621094 3.710938 270.945312 5.710938 265.96875 7.195312 C 264.964844 7.496094 263.957031 7.703125 262.953125 7.84375 L 262.953125 135.0625 C 270.882812 135.40625 278.386719 138.6875 286.394531 139.859375 C 287.316406 139.996094 288.25 140.117188 289.183594 140.226562 Z M 289.183594 140.226562 " fill-opacity="1" fill-rule="nonzero"/><path fill="#a9cbc7" d="M 236.726562 140.539062 L 236.726562 2.515625 C 232.632812 1.472656 228.503906 0.867188 224.320312 1.472656 C 219.480469 2.171875 215.035156 3.929688 210.496094 5.421875 L 210.496094 135.875 C 215.898438 137.097656 221.0625 139.878906 226.578125 140.851562 C 229.917969 141.441406 233.308594 141.1875 236.726562 140.539062 Z M 236.726562 140.539062 " fill-opacity="1" fill-rule="nonzero"/></g></g></g><path fill="#e8e8e8" d="M 240.148438 210.101562 L 290.679688 210.101562 L 290.679688 248.769531 C 291.324219 248.890625 291.964844 249.023438 292.605469 249.167969 L 292.605469 210.101562 L 343.148438 210.101562 L 343.148438 251.191406 C 343.667969 251.273438 344.1875 251.351562 344.691406 251.449219 C 344.820312 251.472656 344.949219 251.507812 345.078125 251.53125 L 345.078125 210.101562 L 370.25 210.101562 C 370.574219 209.488281 370.859375 208.847656 371.082031 208.175781 L 345.078125 208.175781 L 345.078125 157.644531 L 368.105469 157.644531 C 367.960938 157.003906 367.828125 156.363281 367.71875 155.714844 L 345.078125 155.714844 L 345.078125 118.683594 C 344.417969 118.832031 343.769531 118.953125 343.148438 119.039062 L 343.148438 155.714844 L 292.605469 155.714844 L 292.605469 118.578125 C 291.976562 118.820312 291.332031 119.058594 290.679688 119.296875 L 290.679688 155.714844 L 240.148438 155.714844 L 240.148438 115.894531 C 239.5 116.085938 238.859375 116.289062 238.21875 116.496094 L 238.21875 155.714844 L 187.6875 155.714844 L 187.6875 114.4375 C 187.191406 114.4375 186.695312 114.445312 186.191406 114.472656 C 186.046875 114.480469 185.90625 114.5 185.757812 114.507812 L 185.757812 155.714844 L 135.226562 155.714844 L 135.226562 114.941406 C 134.585938 114.867188 133.941406 114.804688 133.300781 114.757812 L 133.300781 155.714844 L 82.769531 155.714844 L 82.769531 117.496094 C 82.117188 117.234375 81.476562 116.96875 80.839844 116.707031 L 80.839844 155.714844 L 30.308594 155.714844 L 30.308594 117.226562 C 29.667969 117.050781 29.023438 116.875 28.382812 116.699219 L 28.382812 155.714844 L 11.480469 155.714844 C 11.339844 156.367188 11.152344 157.007812 10.933594 157.644531 L 28.382812 157.644531 L 28.382812 208.175781 L 6.46875 208.175781 C 6.546875 208.828125 6.667969 209.46875 6.820312 210.101562 L 28.382812 210.101562 L 28.382812 254.902344 C 29.023438 254.875 29.667969 254.832031 30.308594 254.777344 L 30.308594 210.101562 L 80.839844 210.101562 L 80.839844 252.800781 C 81.480469 253.042969 82.125 253.28125 82.769531 253.5 L 82.769531 210.101562 L 133.300781 210.101562 L 133.300781 252.378906 C 133.941406 252.585938 134.585938 252.78125 135.230469 252.96875 L 135.230469 210.101562 L 185.761719 210.101562 L 185.761719 249.894531 C 186.402344 250.066406 187.046875 250.246094 187.6875 250.425781 L 187.6875 210.101562 L 238.21875 210.101562 L 238.21875 250.625 C 238.863281 250.855469 239.503906 251.089844 240.148438 251.328125 Z M 292.605469 157.644531 L 343.148438 157.644531 L 343.148438 208.175781 L 292.605469 208.175781 Z M 240.148438 157.644531 L 290.679688 157.644531 L 290.679688 208.175781 L 240.148438 208.175781 Z M 80.839844 208.175781 L 30.308594 208.175781 L 30.308594 157.644531 L 80.839844 157.644531 Z M 133.300781 208.175781 L 82.769531 208.175781 L 82.769531 157.644531 L 133.300781 157.644531 Z M 185.757812 208.175781 L 135.226562 208.175781 L 135.226562 157.644531 L 185.757812 157.644531 Z M 238.21875 208.175781 L 187.6875 208.175781 L 187.6875 157.644531 L 238.21875 157.644531 Z M 238.21875 208.175781 " fill-opacity="1" fill-rule="nonzero"/><path fill="#000000" d="M 89.972656 255.882812 C 89.691406 255.882812 89.410156 255.878906 89.128906 255.867188 C 85.414062 255.714844 81.957031 254.347656 78.613281 253.023438 C 76.761719 252.289062 74.84375 251.53125 72.9375 251.007812 C 65.71875 249.027344 58.046875 250.210938 51.492188 251.632812 C 50.945312 251.75 50.398438 251.402344 50.28125 250.851562 C 50.160156 250.300781 50.507812 249.757812 51.058594 249.640625 C 57.855469 248.167969 65.835938 246.945312 73.476562 249.042969 C 75.492188 249.597656 77.460938 250.375 79.363281 251.128906 C 82.695312 252.445312 85.839844 253.691406 89.214844 253.828125 C 93.976562 254.027344 98.363281 252.382812 103.007812 250.648438 C 106.78125 249.234375 110.6875 247.773438 114.847656 247.367188 C 117.78125 247.078125 120.917969 247.441406 124.722656 248.503906 C 125.265625 248.65625 125.582031 249.214844 125.429688 249.757812 C 125.28125 250.300781 124.714844 250.617188 124.175781 250.464844 C 120.621094 249.472656 117.71875 249.132812 115.046875 249.394531 C 111.152344 249.777344 107.375 251.191406 103.722656 252.554688 C 99.347656 254.191406 94.828125 255.882812 89.972656 255.882812 Z M 89.972656 255.882812 " fill-opacity="1" fill-rule="nonzero"/><path fill="#000000" d="M 143.429688 255.34375 C 142.90625 255.34375 142.382812 255.324219 141.855469 255.285156 C 137.679688 254.980469 133.636719 253.59375 129.726562 252.253906 L 129.609375 252.210938 C 129.078125 252.03125 128.792969 251.449219 128.976562 250.917969 C 129.160156 250.386719 129.738281 250.101562 130.269531 250.285156 L 130.386719 250.324219 C 134.171875 251.625 138.089844 252.964844 142.003906 253.253906 C 147.1875 253.632812 152.195312 251.898438 157.492188 250.0625 C 162.128906 248.457031 166.921875 246.796875 171.847656 246.6875 C 177.746094 246.5625 183.476562 248.179688 189.023438 249.742188 C 190.941406 250.285156 192.925781 250.84375 194.871094 251.316406 C 201.617188 252.957031 206.890625 253.132812 211.472656 251.878906 C 213.308594 251.375 215.097656 250.660156 216.828125 249.96875 C 220.113281 248.65625 223.507812 247.300781 227.460938 247.265625 C 227.515625 247.265625 227.574219 247.265625 227.628906 247.265625 C 232.035156 247.265625 236.1875 248.789062 240.203125 250.261719 C 242.066406 250.945312 243.992188 251.652344 245.898438 252.1875 C 246.441406 252.339844 246.757812 252.902344 246.605469 253.441406 C 246.453125 253.984375 245.890625 254.300781 245.351562 254.148438 C 243.363281 253.589844 241.398438 252.871094 239.5 252.175781 C 235.425781 250.679688 231.558594 249.25 227.476562 249.304688 C 223.910156 249.335938 220.835938 250.5625 217.585938 251.863281 C 215.800781 252.574219 213.960938 253.308594 212.011719 253.84375 C 207.085938 255.195312 201.484375 255.019531 194.390625 253.296875 C 192.40625 252.8125 190.40625 252.25 188.472656 251.703125 C 183.070312 250.179688 177.472656 248.605469 171.890625 248.726562 C 167.285156 248.824219 162.648438 250.433594 158.160156 251.988281 C 153.394531 253.640625 148.476562 255.339844 143.429688 255.339844 Z M 143.429688 255.34375 " fill-opacity="1" fill-rule="nonzero"/><path fill="#000000" d="M 359.839844 255.605469 C 359.085938 255.605469 358.320312 255.5625 357.546875 255.476562 C 354.867188 255.179688 352.261719 254.457031 349.742188 253.757812 C 348.023438 253.285156 346.25 252.792969 344.496094 252.449219 C 342.011719 251.964844 339.148438 251.683594 335.988281 251.621094 C 334.320312 251.585938 332.757812 252.128906 331.101562 252.703125 C 330.277344 252.992188 329.421875 253.289062 328.53125 253.519531 C 321.179688 255.417969 313.429688 254.628906 308.246094 253.867188 C 304.796875 253.363281 301.417969 252.46875 298.15625 251.605469 C 292.527344 250.113281 287.210938 248.703125 281.574219 249.128906 C 277.253906 249.457031 272.734375 250.792969 268.359375 252.082031 C 262.472656 253.816406 256.382812 255.613281 250.441406 255.121094 C 249.878906 255.074219 249.460938 254.582031 249.507812 254.019531 C 249.554688 253.460938 250.0625 253.039062 250.609375 253.089844 C 256.175781 253.550781 262.078125 251.808594 267.78125 250.128906 C 272.257812 248.808594 276.886719 247.441406 281.421875 247.097656 C 287.402344 246.644531 293.136719 248.164062 298.679688 249.632812 C 301.886719 250.484375 305.207031 251.363281 308.539062 251.851562 C 313.550781 252.585938 321.027344 253.351562 328.023438 251.546875 C 328.832031 251.335938 329.644531 251.050781 330.433594 250.777344 C 332.183594 250.171875 333.972656 249.542969 336.03125 249.582031 C 339.304688 249.648438 342.285156 249.941406 344.886719 250.449219 C 346.71875 250.808594 348.53125 251.308594 350.285156 251.796875 C 352.726562 252.472656 355.253906 253.171875 357.773438 253.453125 C 361.027344 253.816406 364.097656 253.328125 366.40625 252.074219 C 366.898438 251.804688 367.519531 251.988281 367.789062 252.480469 C 368.058594 252.976562 367.875 253.59375 367.378906 253.863281 C 365.273438 255.007812 362.652344 255.605469 359.839844 255.605469 Z M 359.839844 255.605469 " fill-opacity="1" fill-rule="nonzero"/><path fill="#000000" d="M 370.78125 250.164062 C 370.617188 250.164062 370.449219 250.125 370.292969 250.039062 C 369.796875 249.765625 369.617188 249.148438 369.886719 248.652344 C 371.078125 246.488281 371.464844 243.570312 370.976562 240.433594 C 370.59375 237.96875 369.75 235.519531 368.933594 233.152344 C 368.597656 232.171875 368.261719 231.191406 367.953125 230.207031 C 367.839844 229.851562 367.71875 229.472656 367.589844 229.070312 C 366.390625 225.355469 364.582031 219.738281 365.800781 216.148438 C 366.351562 214.523438 367.226562 213.132812 368.066406 211.789062 C 369.289062 209.839844 370.445312 208 370.53125 205.605469 C 370.625 203.105469 369.59375 200.746094 368.5 198.246094 C 367.476562 195.90625 366.417969 193.488281 366.28125 190.84375 C 366.09375 187.246094 367.550781 184.421875 368.960938 181.6875 C 370.171875 179.335938 371.316406 177.113281 371.46875 174.4375 C 371.644531 171.316406 370.542969 168.339844 369.378906 165.183594 C 369.046875 164.289062 368.71875 163.398438 368.417969 162.503906 C 367.777344 160.582031 367.292969 158.820312 366.945312 157.113281 C 366.832031 156.5625 367.183594 156.023438 367.738281 155.910156 C 368.28125 155.796875 368.824219 156.152344 368.941406 156.703125 C 369.273438 158.328125 369.734375 160.015625 370.351562 161.859375 C 370.644531 162.734375 370.964844 163.605469 371.289062 164.476562 C 372.476562 167.6875 373.703125 171.007812 373.503906 174.550781 C 373.328125 177.664062 372.03125 180.183594 370.773438 182.621094 C 369.429688 185.230469 368.160156 187.691406 368.316406 190.738281 C 368.433594 193.011719 369.375 195.160156 370.367188 197.429688 C 371.503906 200.03125 372.679688 202.71875 372.570312 205.683594 C 372.460938 208.621094 371.105469 210.785156 369.796875 212.875 C 368.976562 214.175781 368.207031 215.40625 367.730469 216.804688 C 366.730469 219.757812 368.414062 224.988281 369.53125 228.449219 C 369.660156 228.855469 369.785156 229.242188 369.898438 229.597656 C 370.199219 230.566406 370.53125 231.527344 370.863281 232.488281 C 371.707031 234.941406 372.578125 237.476562 372.992188 240.121094 C 373.546875 243.699219 373.078125 247.078125 371.675781 249.636719 C 371.488281 249.972656 371.140625 250.164062 370.78125 250.164062 Z M 370.78125 250.164062 " fill-opacity="1" fill-rule="nonzero"/><path fill="#000000" d="M 370.082031 138.371094 C 369.976562 138.371094 369.871094 138.351562 369.769531 138.320312 C 369.230469 138.144531 368.9375 137.570312 369.113281 137.035156 C 369.304688 136.449219 369.5 135.859375 369.710938 135.257812 C 371.035156 131.433594 372.300781 126.523438 370.328125 122.488281 C 369.441406 120.667969 367.871094 119.046875 365.792969 117.800781 C 362.558594 115.867188 358.5 115.179688 354.664062 115.917969 C 353.148438 116.210938 352.019531 116.765625 351.027344 117.324219 C 350.535156 117.597656 349.914062 117.421875 349.640625 116.929688 C 349.363281 116.441406 349.539062 115.820312 350.03125 115.542969 C 351.175781 114.902344 352.480469 114.265625 354.277344 113.917969 C 358.601562 113.082031 363.179688 113.863281 366.839844 116.054688 C 369.257812 117.503906 371.097656 119.417969 372.160156 121.59375 C 374.460938 126.304688 373.085938 131.730469 371.636719 135.925781 C 371.433594 136.511719 371.238281 137.09375 371.050781 137.667969 C 370.910156 138.097656 370.511719 138.371094 370.082031 138.371094 Z M 370.082031 138.371094 " fill-opacity="1" fill-rule="nonzero"/><path fill="#000000" d="M 281.800781 122.085938 C 276.34375 122.085938 270.949219 120.351562 265.679688 118.65625 C 259.402344 116.636719 252.90625 114.550781 246.464844 115.480469 C 242.6875 116.027344 239.054688 117.269531 235.542969 118.472656 C 232.890625 119.378906 230.148438 120.316406 227.328125 120.96875 C 226.777344 121.09375 226.230469 120.75 226.105469 120.203125 C 225.976562 119.65625 226.320312 119.109375 226.871094 118.980469 C 229.589844 118.355469 232.28125 117.433594 234.882812 116.542969 C 238.484375 115.3125 242.210938 114.035156 246.171875 113.464844 C 253.082031 112.46875 259.804688 114.628906 266.304688 116.71875 C 273.675781 119.085938 280.632812 121.324219 287.679688 119.21875 C 290.046875 118.511719 292.164062 117.667969 294.210938 116.851562 C 296.425781 115.964844 298.710938 115.054688 301.332031 114.304688 C 308.648438 112.207031 316.472656 113.804688 322.46875 115.425781 C 323.015625 115.574219 323.335938 116.132812 323.1875 116.675781 C 323.039062 117.21875 322.476562 117.542969 321.9375 117.394531 C 316.195312 115.839844 308.726562 114.308594 301.894531 116.261719 C 299.371094 116.984375 297.234375 117.835938 294.96875 118.742188 C 292.878906 119.574219 290.71875 120.4375 288.261719 121.171875 C 286.101562 121.816406 283.945312 122.085938 281.800781 122.085938 Z M 281.800781 122.085938 " fill-opacity="1" fill-rule="nonzero"/><path fill="#000000" d="M 220.277344 121.828125 C 214.636719 121.828125 209.132812 120.195312 203.804688 118.617188 C 198.105469 116.921875 192.214844 115.171875 186.246094 115.492188 C 181.609375 115.738281 177.175781 117.015625 172.886719 118.25 C 167.667969 119.753906 162.269531 121.3125 156.4375 121.042969 C 152.855469 120.878906 149.457031 119.71875 146.171875 118.597656 C 144.011719 117.859375 141.777344 117.097656 139.554688 116.644531 C 129.359375 114.582031 119.058594 115.644531 109.769531 119.71875 C 109.25 119.941406 108.652344 119.707031 108.425781 119.191406 C 108.199219 118.675781 108.433594 118.074219 108.949219 117.851562 C 118.625 113.609375 129.347656 112.5 139.957031 114.648438 C 142.3125 115.125 144.609375 115.910156 146.832031 116.667969 C 150.125 117.792969 153.238281 118.855469 156.527344 119.003906 C 162.027344 119.257812 167.027344 117.816406 172.324219 116.289062 C 176.722656 115.023438 181.269531 113.714844 186.140625 113.457031 C 192.460938 113.121094 198.519531 114.921875 204.386719 116.660156 C 209.921875 118.304688 215.160156 119.84375 220.605469 119.789062 L 220.617188 119.789062 C 221.175781 119.789062 221.628906 120.238281 221.636719 120.796875 C 221.640625 121.359375 221.191406 121.820312 220.628906 121.828125 C 220.511719 121.828125 220.394531 121.832031 220.277344 121.832031 Z M 220.277344 121.828125 " fill-opacity="1" fill-rule="nonzero"/><path fill="#000000" d="M 7.628906 137.027344 C 7.132812 137.027344 6.695312 136.660156 6.621094 136.15625 C 5.875 131.027344 6.472656 123.835938 10.398438 119.019531 C 15.941406 112.21875 23.253906 114.230469 29.707031 116.003906 C 32.183594 116.6875 34.746094 117.390625 37.121094 117.597656 C 41.8125 118.007812 45.933594 116.847656 50.296875 115.617188 C 53.984375 114.574219 57.800781 113.5 61.988281 113.453125 C 62.550781 113.449219 63.125 113.4375 63.710938 113.429688 C 69.113281 113.347656 75.238281 113.25 80.136719 115.308594 C 87.980469 118.605469 95.621094 121.453125 102.851562 120.078125 C 103.402344 119.96875 103.9375 120.335938 104.042969 120.886719 C 104.148438 121.441406 103.785156 121.972656 103.230469 122.078125 C 95.449219 123.5625 87.492188 120.613281 79.347656 117.1875 C 74.84375 115.292969 68.945312 115.386719 63.742188 115.46875 C 63.15625 115.476562 62.578125 115.484375 62.011719 115.492188 C 58.09375 115.53125 54.410156 116.574219 50.847656 117.578125 C 46.5 118.804688 42.003906 120.074219 36.945312 119.628906 C 34.382812 119.40625 31.730469 118.675781 29.167969 117.96875 C 22.746094 116.207031 16.679688 114.539062 11.976562 120.308594 C 9.042969 123.90625 7.765625 129.867188 8.636719 135.859375 C 8.71875 136.417969 8.332031 136.933594 7.777344 137.015625 C 7.726562 137.023438 7.679688 137.027344 7.628906 137.027344 Z M 7.628906 137.027344 " fill-opacity="1" fill-rule="nonzero"/><path fill="#000000" d="M 9.574219 218.140625 C 9.1875 218.140625 8.820312 217.921875 8.648438 217.550781 L 8.535156 217.304688 C 7.058594 214.140625 5.53125 210.863281 5.371094 207.246094 C 5.195312 203.191406 6.761719 199.367188 8.28125 195.664062 C 9.996094 191.484375 11.613281 187.539062 10.742188 183.496094 C 10.34375 181.632812 9.429688 179.917969 8.46875 178.101562 C 7.296875 175.898438 6.082031 173.617188 5.828125 171.003906 C 5.488281 167.496094 6.933594 164.320312 8.332031 161.25 C 9.289062 159.144531 10.28125 156.96875 10.632812 154.765625 C 11.226562 151.046875 10.078125 147.351562 8.636719 143.257812 C 8.449219 142.726562 8.726562 142.144531 9.257812 141.957031 C 9.789062 141.773438 10.371094 142.050781 10.558594 142.582031 C 12.09375 146.941406 13.3125 150.894531 12.644531 155.085938 C 12.25 157.5625 11.199219 159.867188 10.183594 162.09375 C 8.839844 165.050781 7.566406 167.839844 7.855469 170.804688 C 8.074219 173.015625 9.136719 175.023438 10.265625 177.144531 C 11.253906 179.003906 12.273438 180.925781 12.734375 183.066406 C 13.738281 187.726562 11.921875 192.15625 10.164062 196.4375 C 8.730469 199.933594 7.25 203.546875 7.40625 207.15625 C 7.546875 210.367188 8.921875 213.320312 10.382812 216.445312 L 10.496094 216.691406 C 10.734375 217.199219 10.511719 217.804688 10 218.042969 C 9.863281 218.109375 9.714844 218.140625 9.570312 218.140625 Z M 9.574219 218.140625 " fill-opacity="1" fill-rule="nonzero"/><path fill="#000000" d="M 8.605469 243.425781 C 8.582031 243.425781 8.558594 243.425781 8.535156 243.421875 C 7.972656 243.386719 7.550781 242.898438 7.585938 242.335938 C 7.769531 239.628906 8.488281 236.886719 9.183594 234.234375 C 10.324219 229.863281 11.40625 225.734375 10.347656 221.710938 C 10.203125 221.164062 10.527344 220.609375 11.074219 220.464844 C 11.617188 220.320312 12.175781 220.648438 12.316406 221.191406 C 13.511719 225.734375 12.3125 230.320312 11.15625 234.75 C 10.453125 237.429688 9.792969 239.960938 9.621094 242.476562 C 9.585938 243.011719 9.136719 243.425781 8.605469 243.425781 Z M 8.605469 243.425781 " fill-opacity="1" fill-rule="nonzero"/><path fill="#e89595" d="M 32.378906 132.421875 C 32.664062 132.019531 40.421875 125.335938 41.820312 128.898438 C 43.214844 132.464844 41.488281 137.417969 41.488281 137.417969 C 41.488281 137.417969 47.53125 140.375 48.402344 142.960938 C 49.273438 145.542969 41.789062 146.085938 41.789062 146.085938 C 41.789062 146.085938 40.089844 153.328125 37.449219 154.910156 C 34.804688 156.496094 30.40625 147.015625 30.40625 147.015625 C 30.40625 147.015625 22.765625 150.3125 21.8125 147.214844 C 20.855469 144.117188 25.480469 140.175781 25.480469 140.175781 C 25.480469 140.175781 21.339844 132.234375 23.179688 130.078125 C 25.023438 127.921875 32.378906 132.421875 32.378906 132.421875 Z M 32.378906 132.421875 " fill-opacity="1" fill-rule="nonzero"/><path fill="#000000" d="M 36.808594 156.109375 C 36.5625 156.109375 36.3125 156.070312 36.058594 155.992188 C 33.59375 155.234375 30.988281 150.492188 29.902344 148.316406 C 28.148438 148.972656 24.417969 150.152344 22.324219 149.1875 C 21.585938 148.847656 21.070312 148.269531 20.839844 147.515625 C 19.914062 144.515625 22.871094 141.242188 24.226562 139.941406 C 23.851562 139.160156 23.238281 137.824219 22.707031 136.355469 C 22.519531 135.824219 22.792969 135.242188 23.324219 135.050781 C 23.851562 134.859375 24.433594 135.132812 24.625 135.664062 C 25.394531 137.792969 26.375 139.6875 26.386719 139.703125 L 26.761719 140.425781 L 26.144531 140.953125 C 25.078125 141.863281 22.167969 144.917969 22.785156 146.914062 C 22.847656 147.117188 22.960938 147.238281 23.179688 147.339844 C 24.484375 147.9375 27.957031 146.964844 30.007812 146.082031 L 30.917969 145.6875 L 31.332031 146.585938 C 32.644531 149.40625 35.160156 153.585938 36.65625 154.046875 C 36.828125 154.097656 36.886719 154.0625 36.925781 154.039062 C 38.578125 153.046875 40.179688 148.492188 40.796875 145.855469 L 40.96875 145.125 L 41.71875 145.070312 C 44.066406 144.898438 46.917969 144.207031 47.421875 143.449219 C 47.457031 143.394531 47.464844 143.375 47.4375 143.285156 C 47.304688 142.898438 46.710938 141.804688 44.027344 140.050781 C 43.554688 139.742188 43.421875 139.109375 43.730469 138.640625 C 44.039062 138.167969 44.671875 138.035156 45.140625 138.34375 C 47.542969 139.914062 48.925781 141.316406 49.367188 142.636719 C 49.597656 143.316406 49.511719 143.988281 49.117188 144.578125 C 48 146.257812 44.324219 146.847656 42.601562 147.035156 C 42.070312 149.042969 40.46875 154.289062 37.972656 155.785156 C 37.613281 156 37.222656 156.109375 36.8125 156.109375 Z M 36.808594 156.109375 " fill-opacity="1" fill-rule="nonzero"/><path fill="#000000" d="M 41.488281 138.4375 C 41.378906 138.4375 41.265625 138.417969 41.15625 138.378906 C 40.625 138.195312 40.34375 137.617188 40.527344 137.085938 C 40.542969 137.039062 42.109375 132.433594 40.871094 129.269531 C 40.765625 129 40.636719 128.929688 40.453125 128.894531 C 38.691406 128.566406 34.070312 132.105469 33.179688 133.050781 L 32.65625 133.785156 L 31.847656 133.289062 C 28.722656 131.382812 24.6875 129.886719 23.957031 130.742188 C 23.863281 130.851562 23.578125 131.320312 23.828125 132.808594 C 23.921875 133.363281 23.550781 133.886719 22.992188 133.980469 C 22.441406 134.074219 21.914062 133.703125 21.820312 133.144531 C 21.53125 131.4375 21.722656 130.214844 22.40625 129.417969 C 24.429688 127.050781 29.835938 129.765625 32.253906 131.160156 C 33.890625 129.726562 37.988281 126.523438 40.648438 126.863281 C 41.640625 126.984375 42.394531 127.574219 42.769531 128.527344 C 44.285156 132.398438 42.527344 137.535156 42.453125 137.753906 C 42.304688 138.171875 41.910156 138.4375 41.488281 138.4375 Z M 41.488281 138.4375 " fill-opacity="1" fill-rule="nonzero"/><path fill="#e8acac" d="M 66.570312 131.386719 C 66.542969 131.117188 67.339844 125.582031 69.195312 126.546875 C 71.046875 127.515625 72.117188 130.175781 72.117188 130.175781 C 72.117188 130.175781 75.664062 129.222656 76.949219 129.976562 C 78.234375 130.730469 75.347656 133.636719 75.347656 133.636719 C 75.347656 133.636719 77.246094 137.230469 76.726562 138.828125 C 76.207031 140.429688 70.996094 138.101562 70.996094 138.101562 C 70.996094 138.101562 69.03125 142.203125 67.527344 141.269531 C 66.019531 140.335938 66.511719 137.054688 66.511719 137.054688 C 66.511719 137.054688 61.957031 135.269531 61.941406 133.722656 C 61.925781 132.171875 66.570312 131.386719 66.570312 131.386719 Z M 66.570312 131.386719 " fill-opacity="1" fill-rule="nonzero"/><path fill="#000000" d="M 67.996094 142.429688 C 67.644531 142.429688 67.300781 142.332031 66.988281 142.136719 C 65.472656 141.199219 65.363281 138.945312 65.425781 137.710938 C 63.679688 136.953125 60.941406 135.484375 60.921875 133.730469 C 60.90625 131.832031 63.8125 130.914062 65.660156 130.523438 C 65.875 129.117188 66.460938 126.597656 67.722656 125.746094 C 68.3125 125.347656 69.023438 125.308594 69.664062 125.644531 C 71.144531 126.414062 72.167969 128.015625 72.679688 128.992188 C 74.015625 128.707031 76.25 128.386719 77.464844 129.097656 C 77.925781 129.367188 78.214844 129.800781 78.285156 130.324219 C 78.4375 131.484375 77.375 132.921875 76.578125 133.816406 C 77.175781 135.078125 78.199219 137.597656 77.699219 139.144531 C 77.546875 139.613281 77.203125 139.988281 76.730469 140.195312 C 75.414062 140.78125 72.933594 139.984375 71.460938 139.40625 C 70.855469 140.46875 69.800781 141.984375 68.574219 142.34375 C 68.382812 142.402344 68.1875 142.429688 67.996094 142.429688 Z M 62.976562 133.75 C 63.203125 134.25 65.058594 135.390625 66.882812 136.105469 L 67.636719 136.402344 L 67.519531 137.207031 C 67.359375 138.285156 67.453125 139.964844 68.027344 140.382812 C 68.46875 140.25 69.460938 138.941406 70.074219 137.664062 L 70.503906 136.769531 L 71.410156 137.171875 C 73.15625 137.949219 75.144531 138.484375 75.789062 138.367188 C 75.90625 137.527344 75.210938 135.566406 74.445312 134.113281 L 74.097656 133.453125 L 74.625 132.917969 C 75.339844 132.199219 76.023438 131.257812 76.210938 130.773438 C 75.464844 130.585938 73.730469 130.796875 72.375 131.160156 L 71.503906 131.394531 L 71.167969 130.554688 C 70.914062 129.921875 69.992188 128.164062 68.789062 127.488281 C 68.25 127.980469 67.648438 130.449219 67.589844 131.351562 L 67.675781 132.230469 L 66.738281 132.390625 C 65.078125 132.675781 63.304688 133.320312 62.976562 133.75 Z M 62.976562 133.75 " fill-opacity="1" fill-rule="nonzero"/><path fill="#e8acac" d="M 26.308594 171.097656 C 26.28125 170.832031 27.078125 165.292969 28.933594 166.261719 C 30.789062 167.226562 31.855469 169.886719 31.855469 169.886719 C 31.855469 169.886719 35.402344 168.9375 36.6875 169.691406 C 37.976562 170.441406 35.089844 173.351562 35.089844 173.351562 C 35.089844 173.351562 36.988281 176.941406 36.46875 178.542969 C 35.949219 180.144531 30.734375 177.816406 30.734375 177.816406 C 30.734375 177.816406 28.773438 181.917969 27.265625 180.984375 C 25.757812 180.050781 26.25 176.765625 26.25 176.765625 C 26.25 176.765625 21.695312 174.984375 21.679688 173.433594 C 21.664062 171.886719 26.308594 171.097656 26.308594 171.097656 Z M 26.308594 171.097656 " fill-opacity="1" fill-rule="nonzero"/><path fill="#000000" d="M 27.734375 182.140625 C 27.382812 182.140625 27.042969 182.042969 26.726562 181.851562 C 25.210938 180.910156 25.101562 178.65625 25.167969 177.421875 C 23.421875 176.664062 20.679688 175.199219 20.660156 173.445312 C 20.644531 171.542969 23.554688 170.625 25.398438 170.234375 C 25.613281 168.832031 26.199219 166.308594 27.460938 165.460938 C 28.054688 165.058594 28.761719 165.023438 29.402344 165.359375 C 30.886719 166.128906 31.90625 167.730469 32.417969 168.703125 C 33.753906 168.417969 35.988281 168.097656 37.203125 168.8125 C 37.664062 169.078125 37.953125 169.515625 38.023438 170.039062 C 38.175781 171.199219 37.113281 172.636719 36.316406 173.53125 C 36.914062 174.792969 37.9375 177.3125 37.4375 178.859375 C 37.285156 179.328125 36.941406 179.699219 36.46875 179.910156 C 35.152344 180.496094 32.671875 179.695312 31.203125 179.117188 C 30.59375 180.183594 29.542969 181.699219 28.316406 182.058594 C 28.121094 182.113281 27.925781 182.144531 27.734375 182.144531 Z M 22.714844 173.464844 C 22.941406 173.964844 24.796875 175.101562 26.621094 175.820312 L 27.378906 176.117188 L 27.257812 176.917969 C 27.101562 177.996094 27.191406 179.679688 27.769531 180.09375 C 28.210938 179.964844 29.203125 178.652344 29.816406 177.375 L 30.242188 176.484375 L 31.148438 176.886719 C 32.894531 177.664062 34.886719 178.195312 35.53125 178.082031 C 35.648438 177.238281 34.953125 175.277344 34.1875 173.824219 L 33.839844 173.164062 L 34.367188 172.632812 C 35.078125 171.914062 35.765625 170.96875 35.953125 170.484375 C 35.207031 170.300781 33.472656 170.511719 32.117188 170.871094 L 31.246094 171.105469 L 30.910156 170.265625 C 30.652344 169.636719 29.734375 167.875 28.53125 167.203125 C 27.992188 167.695312 27.390625 170.160156 27.332031 171.0625 L 27.417969 171.945312 L 26.480469 172.101562 C 24.820312 172.386719 23.042969 173.03125 22.714844 173.464844 Z M 22.714844 173.464844 " fill-opacity="1" fill-rule="nonzero"/><path fill="#e89595" d="M 97.078125 131.207031 C 97.152344 131.046875 99.386719 128.226562 100.105469 129.363281 C 100.824219 130.5 100.558594 132.328125 100.558594 132.328125 C 100.558594 132.328125 102.839844 132.949219 103.3125 133.78125 C 103.785156 134.617188 101.234375 135.300781 101.234375 135.300781 C 101.234375 135.300781 101.128906 137.914062 100.320312 138.636719 C 99.515625 139.359375 97.367188 136.375 97.367188 136.375 C 97.367188 136.375 94.945312 138.023438 94.410156 137.015625 C 93.875 136.007812 95.210938 134.339844 95.210938 134.339844 C 95.210938 134.339844 93.253906 131.871094 93.75 131.007812 C 94.242188 130.140625 97.078125 131.207031 97.078125 131.207031 Z M 97.078125 131.207031 " fill-opacity="1" fill-rule="nonzero"/><path fill="#000000" d="M 100.015625 139.769531 C 99.957031 139.769531 99.898438 139.765625 99.839844 139.757812 C 98.894531 139.65625 97.859375 138.632812 97.113281 137.71875 C 96.367188 138.117188 95.367188 138.503906 94.558594 138.304688 C 94.101562 138.191406 93.726562 137.902344 93.511719 137.496094 C 92.9375 136.417969 93.484375 135.148438 93.957031 134.367188 C 93.039062 133.082031 92.269531 131.542969 92.863281 130.503906 C 93.539062 129.3125 95.359375 129.585938 96.730469 130.011719 C 97.386719 129.234375 98.496094 128.148438 99.523438 128.078125 C 100.117188 128.035156 100.644531 128.308594 100.96875 128.820312 C 101.527344 129.703125 101.632812 130.824219 101.628906 131.59375 C 102.542969 131.917969 103.742188 132.472656 104.199219 133.28125 C 104.425781 133.679688 104.453125 134.128906 104.277344 134.550781 C 103.964844 135.289062 103.015625 135.777344 102.203125 136.066406 C 102.097656 137.085938 101.808594 138.675781 101 139.398438 C 100.730469 139.640625 100.386719 139.769531 100.015625 139.769531 Z M 97.613281 134.976562 L 98.191406 135.78125 C 98.714844 136.503906 99.386719 137.234375 99.8125 137.566406 C 100.003906 137.0625 100.179688 136.109375 100.21875 135.257812 L 100.25 134.511719 L 100.96875 134.316406 C 101.304688 134.226562 101.671875 134.089844 101.960938 133.960938 C 101.53125 133.730469 100.882812 133.472656 100.289062 133.3125 L 99.417969 133.074219 L 99.550781 132.179688 C 99.59375 131.863281 99.644531 130.933594 99.410156 130.253906 C 98.949219 130.574219 98.25 131.316406 97.972656 131.699219 L 97.609375 132.492188 L 96.722656 132.160156 C 96.050781 131.910156 95.25 131.722656 94.773438 131.6875 C 94.96875 132.191406 95.476562 133.035156 96.011719 133.707031 L 96.515625 134.34375 L 96.007812 134.976562 C 95.664062 135.410156 95.40625 135.941406 95.324219 136.273438 C 95.707031 136.15625 96.3125 135.859375 96.792969 135.535156 L 97.613281 134.980469 Z M 97.613281 134.976562 " fill-opacity="1" fill-rule="nonzero"/><path fill="#e89595" d="M 19.277344 197.460938 C 19.347656 197.304688 21.585938 194.480469 22.304688 195.621094 C 23.023438 196.757812 22.753906 198.585938 22.753906 198.585938 C 22.753906 198.585938 25.035156 199.203125 25.507812 200.039062 C 25.980469 200.875 23.433594 201.558594 23.433594 201.558594 C 23.433594 201.558594 23.324219 204.171875 22.519531 204.894531 C 21.710938 205.617188 19.5625 202.632812 19.5625 202.632812 C 19.5625 202.632812 17.144531 204.277344 16.605469 203.273438 C 16.070312 202.265625 17.40625 200.597656 17.40625 200.597656 C 17.40625 200.597656 15.453125 198.128906 15.945312 197.261719 C 16.4375 196.394531 19.277344 197.460938 19.277344 197.460938 Z M 19.277344 197.460938 " fill-opacity="1" fill-rule="nonzero"/><path fill="#000000" d="M 22.210938 206.027344 C 22.15625 206.027344 22.097656 206.023438 22.039062 206.015625 C 21.09375 205.914062 20.058594 204.890625 19.308594 203.976562 C 18.5625 204.375 17.566406 204.761719 16.757812 204.5625 C 16.300781 204.449219 15.925781 204.160156 15.707031 203.75 C 15.132812 202.671875 15.679688 201.402344 16.152344 200.625 C 15.234375 199.339844 14.46875 197.800781 15.058594 196.757812 C 15.738281 195.570312 17.558594 195.84375 18.929688 196.265625 C 19.585938 195.488281 20.691406 194.402344 21.71875 194.335938 C 22.316406 194.296875 22.84375 194.566406 23.164062 195.074219 C 23.726562 195.960938 23.832031 197.082031 23.824219 197.851562 C 24.738281 198.171875 25.9375 198.730469 26.394531 199.539062 C 26.621094 199.9375 26.648438 200.386719 26.472656 200.808594 C 26.160156 201.546875 25.214844 202.03125 24.398438 202.324219 C 24.292969 203.34375 24.003906 204.933594 23.195312 205.652344 C 22.925781 205.894531 22.582031 206.023438 22.210938 206.023438 Z M 19.808594 201.234375 L 20.390625 202.035156 C 20.914062 202.761719 21.582031 203.492188 22.011719 203.820312 C 22.203125 203.320312 22.378906 202.367188 22.414062 201.515625 L 22.445312 200.769531 L 23.167969 200.574219 C 23.503906 200.484375 23.867188 200.347656 24.15625 200.214844 C 23.726562 199.988281 23.082031 199.730469 22.484375 199.566406 L 21.617188 199.328125 L 21.746094 198.4375 C 21.792969 198.117188 21.839844 197.1875 21.605469 196.511719 C 21.144531 196.828125 20.445312 197.574219 20.171875 197.957031 L 19.808594 198.75 L 18.917969 198.417969 C 18.25 198.164062 17.445312 197.976562 16.96875 197.945312 C 17.160156 198.445312 17.664062 199.277344 18.207031 199.964844 L 18.710938 200.601562 L 18.203125 201.234375 C 17.863281 201.664062 17.601562 202.195312 17.519531 202.527344 C 17.910156 202.410156 18.519531 202.109375 18.988281 201.789062 Z M 19.808594 201.234375 " fill-opacity="1" fill-rule="nonzero"/><path fill="#000000" d="M 16.535156 158.835938 C 16.84375 157.886719 17.105469 156.894531 17.53125 156 C 17.761719 155.519531 18.476562 155.65625 18.523438 156.183594 C 18.605469 157.121094 18.753906 158.042969 19.082031 158.917969 C 19.59375 160.28125 20.617188 161.527344 22.007812 161.933594 C 22.480469 162.074219 23.058594 162.167969 23.257812 162.621094 C 23.40625 162.96875 23.242188 163.386719 22.96875 163.648438 C 22.695312 163.914062 22.339844 164.066406 22.003906 164.242188 C 20.121094 165.222656 18.761719 167.144531 18.46875 169.246094 C 18.390625 169.785156 18.222656 170.496094 17.679688 170.507812 C 17.191406 170.519531 16.949219 169.925781 16.886719 169.445312 C 16.597656 167.242188 16.242188 164.988281 13.753906 164.21875 C 13.4375 164.117188 13.039062 163.996094 12.992188 163.667969 C 12.953125 163.398438 13.191406 163.175781 13.40625 163.003906 C 14.109375 162.457031 14.957031 161.957031 15.460938 161.226562 C 15.941406 160.53125 16.273438 159.636719 16.535156 158.835938 Z M 16.535156 158.835938 " fill-opacity="1" fill-rule="nonzero"/><path fill="#000000" d="M 52.019531 123.101562 C 52.328125 122.152344 52.589844 121.160156 53.015625 120.265625 C 53.242188 119.785156 53.957031 119.921875 54.003906 120.449219 C 54.089844 121.386719 54.238281 122.308594 54.566406 123.183594 C 55.078125 124.546875 56.097656 125.792969 57.492188 126.199219 C 57.964844 126.339844 58.542969 126.433594 58.738281 126.886719 C 58.890625 127.234375 58.722656 127.652344 58.453125 127.914062 C 58.179688 128.179688 57.820312 128.332031 57.484375 128.507812 C 55.605469 129.488281 54.246094 131.410156 53.949219 133.511719 C 53.875 134.050781 53.707031 134.761719 53.164062 134.773438 C 52.675781 134.785156 52.433594 134.191406 52.367188 133.710938 C 52.078125 131.507812 51.726562 129.253906 49.238281 128.484375 C 48.921875 128.382812 48.523438 128.261719 48.476562 127.933594 C 48.4375 127.664062 48.675781 127.441406 48.890625 127.269531 C 49.589844 126.722656 50.4375 126.222656 50.945312 125.492188 C 51.425781 124.796875 51.757812 123.902344 52.019531 123.101562 Z M 52.019531 123.101562 " fill-opacity="1" fill-rule="nonzero"/><path fill="#000000" d="M 28.050781 188.605469 C 28.195312 188.15625 28.320312 187.683594 28.523438 187.257812 C 28.632812 187.027344 28.972656 187.09375 28.996094 187.34375 C 29.035156 187.789062 29.105469 188.230469 29.261719 188.644531 C 29.503906 189.292969 29.988281 189.886719 30.652344 190.078125 C 30.875 190.144531 31.152344 190.191406 31.246094 190.40625 C 31.316406 190.570312 31.238281 190.769531 31.109375 190.894531 C 30.980469 191.019531 30.808594 191.09375 30.648438 191.175781 C 29.753906 191.640625 29.109375 192.554688 28.96875 193.554688 C 28.933594 193.8125 28.851562 194.148438 28.59375 194.15625 C 28.363281 194.160156 28.246094 193.878906 28.21875 193.648438 C 28.078125 192.601562 27.910156 191.53125 26.730469 191.164062 C 26.578125 191.117188 26.386719 191.058594 26.367188 190.902344 C 26.347656 190.773438 26.460938 190.667969 26.5625 190.589844 C 26.898438 190.328125 27.300781 190.089844 27.539062 189.742188 C 27.769531 189.410156 27.925781 188.988281 28.050781 188.605469 Z M 28.050781 188.605469 " fill-opacity="1" fill-rule="nonzero"/><path fill="#000000" d="M 85.007812 135.925781 C 85.15625 135.472656 85.28125 135 85.484375 134.574219 C 85.59375 134.347656 85.929688 134.414062 85.953125 134.664062 C 85.992188 135.109375 86.0625 135.546875 86.21875 135.964844 C 86.460938 136.609375 86.949219 137.203125 87.613281 137.398438 C 87.835938 137.464844 88.109375 137.511719 88.203125 137.722656 C 88.277344 137.890625 88.195312 138.085938 88.066406 138.214844 C 87.9375 138.339844 87.769531 138.410156 87.609375 138.496094 C 86.714844 138.960938 86.066406 139.875 85.929688 140.875 C 85.890625 141.128906 85.8125 141.46875 85.554688 141.472656 C 85.320312 141.480469 85.207031 141.199219 85.175781 140.96875 C 85.039062 139.921875 84.871094 138.851562 83.6875 138.484375 C 83.535156 138.4375 83.347656 138.378906 83.324219 138.222656 C 83.304688 138.09375 83.421875 137.988281 83.523438 137.90625 C 83.855469 137.648438 84.257812 137.40625 84.5 137.0625 C 84.726562 136.730469 84.886719 136.304688 85.011719 135.925781 Z M 85.007812 135.925781 " fill-opacity="1" fill-rule="nonzero"/><path fill="#e89595" d="M 355.667969 235.980469 C 356.132812 235.824219 364.777344 230.332031 361.769531 227.960938 C 358.761719 225.59375 353.519531 225.816406 353.519531 225.816406 C 353.519531 225.816406 352.433594 219.179688 350.210938 217.597656 C 347.988281 216.015625 345.308594 223.023438 345.308594 223.023438 C 345.308594 223.023438 337.886719 222.558594 335.601562 224.628906 C 333.324219 226.699219 341.128906 233.648438 341.128906 233.648438 C 341.128906 233.648438 335.761719 240.007812 338.453125 241.820312 C 341.140625 243.632812 346.253906 240.34375 346.253906 240.34375 C 346.253906 240.34375 352.65625 246.601562 355.253906 245.464844 C 357.851562 244.324219 355.667969 235.980469 355.667969 235.980469 Z M 355.667969 235.980469 " fill-opacity="1" fill-rule="nonzero"/><path fill="#000000" d="M 349.714844 244.304688 C 349.503906 244.304688 349.289062 244.238281 349.109375 244.101562 C 347.851562 243.171875 346.75 242.199219 346.113281 241.613281 C 344.472656 242.535156 340.488281 244.421875 337.882812 242.667969 C 337.226562 242.226562 336.824219 241.566406 336.710938 240.761719 C 336.390625 238.480469 338.597656 235.25 339.738281 233.757812 C 337.96875 232.089844 334.179688 228.226562 334.167969 225.648438 C 334.164062 224.9375 334.421875 224.324219 334.917969 223.875 C 337.070312 221.921875 342.554688 221.902344 344.632812 221.972656 C 345.308594 220.378906 346.9375 217.03125 348.871094 216.445312 C 349.550781 216.242188 350.21875 216.351562 350.800781 216.769531 C 351.933594 217.574219 352.878906 219.304688 353.6875 222.054688 C 353.847656 222.59375 353.539062 223.160156 352.996094 223.320312 C 352.457031 223.476562 351.890625 223.167969 351.730469 222.628906 C 350.828125 219.550781 349.953125 218.664062 349.621094 218.429688 C 349.546875 218.375 349.523438 218.378906 349.460938 218.398438 C 348.507812 218.683594 346.988281 221.480469 346.257812 223.386719 L 345.992188 224.085938 L 345.242188 224.039062 C 342.539062 223.871094 337.714844 224.089844 336.289062 225.382812 C 336.253906 225.414062 336.203125 225.457031 336.203125 225.636719 C 336.210938 227.203125 339.484375 230.820312 341.804688 232.890625 L 342.546875 233.550781 L 341.90625 234.308594 C 340.566406 235.898438 338.519531 238.980469 338.730469 240.480469 C 338.761719 240.714844 338.847656 240.859375 339.019531 240.976562 C 340.753906 242.144531 344.519531 240.246094 345.703125 239.484375 L 346.382812 239.050781 L 346.964844 239.613281 C 346.980469 239.628906 348.507812 241.117188 350.324219 242.46875 C 350.777344 242.804688 350.871094 243.441406 350.535156 243.894531 C 350.335938 244.164062 350.027344 244.304688 349.714844 244.304688 Z M 349.714844 244.304688 " fill-opacity="1" fill-rule="nonzero"/><path fill="#000000" d="M 354.527344 246.621094 C 353.785156 246.621094 352.921875 246.375 351.921875 245.878906 C 351.417969 245.632812 351.210938 245.019531 351.460938 244.515625 C 351.710938 244.011719 352.324219 243.804688 352.824219 244.054688 C 354.179688 244.726562 354.710938 244.589844 354.839844 244.53125 C 355.871094 244.078125 355.609375 239.78125 354.683594 236.242188 L 354.441406 235.320312 L 355.296875 235.03125 C 356.460938 234.457031 361.183594 231.054688 361.378906 229.273438 C 361.398438 229.085938 361.367188 228.945312 361.136719 228.765625 C 358.46875 226.664062 353.609375 226.835938 353.558594 226.835938 C 352.992188 226.855469 352.523438 226.421875 352.5 225.859375 C 352.476562 225.296875 352.910156 224.824219 353.472656 224.800781 C 353.703125 224.789062 359.128906 224.589844 362.398438 227.164062 C 363.203125 227.796875 363.550781 228.6875 363.378906 229.675781 C 362.921875 232.320312 358.6875 235.316406 356.835938 236.464844 C 357.476562 239.183594 358.507812 245.148438 355.660156 246.398438 C 355.316406 246.546875 354.941406 246.625 354.527344 246.625 Z M 354.527344 246.621094 " fill-opacity="1" fill-rule="nonzero"/><path fill="#e8acac" d="M 347.953125 199.324219 C 348.21875 199.351562 353.757812 198.554688 352.789062 196.703125 C 351.824219 194.847656 349.164062 193.78125 349.164062 193.78125 C 349.164062 193.78125 350.113281 190.230469 349.359375 188.945312 C 348.609375 187.660156 345.699219 190.546875 345.699219 190.546875 C 345.699219 190.546875 342.109375 188.648438 340.507812 189.167969 C 338.910156 189.6875 341.234375 194.902344 341.234375 194.902344 C 341.234375 194.902344 337.136719 196.863281 338.066406 198.371094 C 339 199.875 342.285156 199.382812 342.285156 199.382812 C 342.285156 199.382812 344.066406 203.9375 345.617188 203.953125 C 347.164062 203.96875 347.953125 199.324219 347.953125 199.324219 Z M 347.953125 199.324219 " fill-opacity="1" fill-rule="nonzero"/><path fill="#000000" d="M 345.625 204.972656 L 345.605469 204.972656 C 343.855469 204.957031 342.386719 202.214844 341.628906 200.46875 C 340.398438 200.53125 338.140625 200.421875 337.199219 198.90625 C 336.902344 198.425781 336.832031 197.878906 336.996094 197.320312 C 337.355469 196.09375 338.871094 195.039062 339.933594 194.433594 C 339.355469 192.964844 338.554688 190.480469 339.140625 189.164062 C 339.351562 188.695312 339.726562 188.351562 340.191406 188.199219 C 341.738281 187.695312 344.257812 188.722656 345.519531 189.316406 C 346.414062 188.519531 347.851562 187.460938 349.011719 187.613281 C 349.535156 187.679688 349.972656 187.972656 350.242188 188.433594 C 350.953125 189.648438 350.632812 191.878906 350.347656 193.214844 C 351.320312 193.730469 352.921875 194.75 353.695312 196.230469 C 354.027344 196.875 353.992188 197.582031 353.589844 198.175781 C 352.738281 199.4375 350.21875 200.019531 348.816406 200.238281 C 348.425781 202.078125 347.511719 204.972656 345.625 204.972656 Z M 342.9375 198.257812 L 343.234375 199.011719 C 343.9375 200.8125 345.054688 202.640625 345.597656 202.914062 C 346.03125 202.566406 346.667969 200.804688 346.949219 199.15625 L 347.105469 198.21875 L 347.988281 198.304688 C 348.890625 198.246094 351.355469 197.644531 351.851562 197.105469 C 351.167969 195.894531 349.414062 194.980469 348.78125 194.726562 L 347.949219 194.386719 L 348.179688 193.515625 C 348.539062 192.164062 348.753906 190.429688 348.566406 189.683594 C 348.082031 189.871094 347.140625 190.558594 346.417969 191.269531 L 345.886719 191.796875 L 345.226562 191.449219 C 343.773438 190.683594 341.816406 189.988281 340.972656 190.105469 C 340.855469 190.75 341.390625 192.742188 342.167969 194.484375 L 342.570312 195.390625 L 341.675781 195.820312 C 340.398438 196.433594 339.089844 197.421875 338.957031 197.867188 C 339.375 198.441406 341.054688 198.53125 342.136719 198.375 Z M 342.9375 198.257812 " fill-opacity="1" fill-rule="nonzero"/><path fill="#e8acac" d="M 317.234375 232.960938 C 317.5 232.984375 323.039062 232.191406 322.070312 230.335938 C 321.105469 228.480469 318.445312 227.414062 318.445312 227.414062 C 318.445312 227.414062 319.394531 223.867188 318.640625 222.578125 C 317.890625 221.292969 314.980469 224.179688 314.980469 224.179688 C 314.980469 224.179688 311.390625 222.28125 309.789062 222.800781 C 308.1875 223.320312 310.515625 228.535156 310.515625 228.535156 C 310.515625 228.535156 306.414062 230.496094 307.347656 232.003906 C 308.28125 233.507812 311.566406 233.019531 311.566406 233.019531 C 311.566406 233.019531 313.347656 237.574219 314.898438 237.585938 C 316.445312 237.601562 317.234375 232.960938 317.234375 232.960938 Z M 317.234375 232.960938 " fill-opacity="1" fill-rule="nonzero"/><path fill="#000000" d="M 314.90625 238.605469 L 314.886719 238.605469 C 313.136719 238.589844 311.667969 235.847656 310.910156 234.101562 C 309.679688 234.167969 307.421875 234.058594 306.480469 232.539062 C 306.183594 232.058594 306.113281 231.511719 306.277344 230.953125 C 306.636719 229.726562 308.148438 228.675781 309.214844 228.066406 C 308.636719 226.597656 307.835938 224.117188 308.421875 222.796875 C 308.632812 222.328125 309.003906 221.984375 309.472656 221.832031 C 311.019531 221.332031 313.539062 222.355469 314.800781 222.953125 C 315.695312 222.15625 317.128906 221.101562 318.292969 221.246094 C 318.816406 221.316406 319.25 221.605469 319.519531 222.066406 C 320.230469 223.28125 319.914062 225.515625 319.625 226.851562 C 320.601562 227.363281 322.203125 228.382812 322.972656 229.867188 C 323.308594 230.507812 323.269531 231.214844 322.871094 231.808594 C 322.019531 233.070312 319.5 233.65625 318.09375 233.871094 C 317.707031 235.710938 316.792969 238.609375 314.902344 238.609375 Z M 312.214844 231.894531 L 312.511719 232.644531 C 313.21875 234.445312 314.335938 236.273438 314.878906 236.546875 C 315.3125 236.199219 315.949219 234.4375 316.230469 232.789062 L 316.386719 231.855469 L 317.269531 231.941406 C 318.171875 231.878906 320.636719 231.28125 321.128906 230.738281 C 320.445312 229.527344 318.695312 228.613281 318.0625 228.359375 L 317.230469 228.023438 L 317.460938 227.152344 C 317.820312 225.796875 318.035156 224.0625 317.847656 223.316406 C 317.363281 223.503906 316.421875 224.1875 315.699219 224.902344 L 315.167969 225.429688 L 314.507812 225.082031 C 313.054688 224.3125 311.097656 223.625 310.253906 223.738281 C 310.136719 224.382812 310.667969 226.371094 311.449219 228.117188 L 311.851562 229.023438 L 310.957031 229.453125 C 309.679688 230.066406 308.371094 231.058594 308.238281 231.5 C 308.65625 232.074219 310.335938 232.167969 311.414062 232.007812 L 312.21875 231.890625 Z M 312.214844 231.894531 " fill-opacity="1" fill-rule="nonzero"/><path fill="#e89595" d="M 356.996094 170.835938 C 357.152344 170.761719 359.976562 168.527344 358.835938 167.808594 C 357.699219 167.089844 355.871094 167.359375 355.871094 167.359375 C 355.871094 167.359375 355.25 165.074219 354.417969 164.605469 C 353.582031 164.132812 352.898438 166.679688 352.898438 166.679688 C 352.898438 166.679688 350.285156 166.789062 349.5625 167.59375 C 348.839844 168.402344 351.824219 170.546875 351.824219 170.546875 C 351.824219 170.546875 350.179688 172.96875 351.183594 173.503906 C 352.191406 174.042969 353.859375 172.703125 353.859375 172.703125 C 353.859375 172.703125 356.328125 174.660156 357.195312 174.167969 C 358.0625 173.671875 356.996094 170.835938 356.996094 170.835938 Z M 356.996094 170.835938 " fill-opacity="1" fill-rule="nonzero"/><path fill="#000000" d="M 356.855469 175.261719 C 355.917969 175.261719 354.800781 174.652344 353.832031 173.960938 C 353.054688 174.433594 351.785156 174.976562 350.707031 174.40625 C 350.296875 174.1875 350.007812 173.816406 349.894531 173.355469 C 349.695312 172.546875 350.082031 171.550781 350.480469 170.804688 C 349.566406 170.054688 348.542969 169.019531 348.441406 168.074219 C 348.390625 167.640625 348.519531 167.230469 348.800781 166.914062 C 349.523438 166.109375 351.113281 165.820312 352.132812 165.714844 C 352.421875 164.898438 352.90625 163.953125 353.648438 163.640625 C 354.070312 163.464844 354.519531 163.492188 354.917969 163.714844 C 355.726562 164.175781 356.28125 165.371094 356.605469 166.289062 C 357.351562 166.292969 358.492188 166.386719 359.378906 166.945312 C 359.890625 167.269531 360.160156 167.796875 360.121094 168.394531 C 360.050781 169.421875 358.964844 170.527344 358.191406 171.183594 C 358.613281 172.554688 358.886719 174.375 357.695312 175.050781 C 357.441406 175.195312 357.160156 175.257812 356.855469 175.257812 Z M 353.855469 171.402344 L 354.492188 171.90625 C 355.179688 172.449219 356.011719 172.953125 356.511719 173.144531 C 356.476562 172.667969 356.289062 171.863281 356.039062 171.191406 L 355.707031 170.304688 L 356.5 169.941406 C 356.882812 169.667969 357.625 168.964844 357.945312 168.507812 C 357.265625 168.273438 356.335938 168.320312 356.015625 168.367188 L 355.128906 168.492188 L 354.886719 167.625 C 354.726562 167.035156 354.46875 166.390625 354.238281 165.957031 C 354.105469 166.246094 353.972656 166.613281 353.882812 166.945312 L 353.6875 167.664062 L 352.941406 167.699219 C 352.089844 167.734375 351.136719 167.910156 350.632812 168.101562 C 350.964844 168.53125 351.695312 169.203125 352.417969 169.722656 L 353.222656 170.300781 L 352.664062 171.121094 C 352.339844 171.601562 352.042969 172.207031 351.925781 172.59375 C 352.269531 172.507812 352.828125 172.222656 353.21875 171.910156 L 353.851562 171.402344 Z M 353.855469 171.402344 " fill-opacity="1" fill-rule="nonzero"/><path fill="#e89595" d="M 291.933594 239.992188 C 292.089844 239.921875 294.914062 237.683594 293.777344 236.964844 C 292.636719 236.246094 290.8125 236.515625 290.8125 236.515625 C 290.8125 236.515625 290.191406 234.234375 289.355469 233.761719 C 288.519531 233.289062 287.835938 235.835938 287.835938 235.835938 C 287.835938 235.835938 285.226562 235.945312 284.503906 236.75 C 283.78125 237.558594 286.761719 239.707031 286.761719 239.707031 C 286.761719 239.707031 285.117188 242.125 286.125 242.660156 C 287.132812 243.199219 288.800781 241.859375 288.800781 241.859375 C 288.800781 241.859375 291.265625 243.816406 292.132812 243.324219 C 293 242.832031 291.933594 239.992188 291.933594 239.992188 Z M 291.933594 239.992188 " fill-opacity="1" fill-rule="nonzero"/><path fill="#000000" d="M 291.796875 244.417969 C 290.859375 244.417969 289.742188 243.808594 288.773438 243.117188 C 287.992188 243.589844 286.726562 244.136719 285.644531 243.5625 C 285.238281 243.34375 284.949219 242.972656 284.835938 242.511719 C 284.636719 241.703125 285.019531 240.707031 285.417969 239.960938 C 284.507812 239.210938 283.484375 238.179688 283.378906 237.234375 C 283.332031 236.800781 283.460938 236.386719 283.742188 236.074219 C 284.464844 235.265625 286.050781 234.976562 287.070312 234.871094 C 287.363281 234.058594 287.847656 233.109375 288.589844 232.796875 C 289.007812 232.621094 289.457031 232.648438 289.855469 232.875 C 290.667969 233.332031 291.222656 234.53125 291.542969 235.445312 C 292.320312 235.449219 293.433594 235.542969 294.320312 236.101562 C 294.828125 236.425781 295.097656 236.953125 295.058594 237.546875 C 294.992188 238.574219 293.90625 239.683594 293.128906 240.339844 C 293.550781 241.710938 293.828125 243.53125 292.636719 244.210938 C 292.382812 244.355469 292.097656 244.417969 291.796875 244.417969 Z M 288.796875 240.558594 L 289.433594 241.0625 C 290.117188 241.605469 290.949219 242.109375 291.453125 242.300781 C 291.417969 241.824219 291.230469 241.019531 290.980469 240.351562 L 290.648438 239.464844 L 291.4375 239.097656 C 291.824219 238.824219 292.566406 238.125 292.886719 237.664062 C 292.207031 237.429688 291.277344 237.476562 290.957031 237.523438 L 290.066406 237.648438 L 289.828125 236.78125 C 289.664062 236.1875 289.40625 235.542969 289.175781 235.113281 C 289.046875 235.402344 288.910156 235.769531 288.820312 236.101562 L 288.625 236.820312 L 287.878906 236.855469 C 287.027344 236.890625 286.074219 237.066406 285.574219 237.257812 C 285.90625 237.683594 286.636719 238.355469 287.359375 238.878906 L 288.160156 239.457031 L 287.605469 240.277344 C 287.277344 240.757812 286.980469 241.363281 286.867188 241.75 C 287.210938 241.664062 287.765625 241.378906 288.160156 241.066406 L 288.792969 240.558594 Z M 288.796875 240.558594 " fill-opacity="1" fill-rule="nonzero"/><path fill="#000000" d="M 324.675781 245.386719 C 324.984375 246.335938 325.246094 247.332031 325.671875 248.226562 C 325.898438 248.703125 326.613281 248.570312 326.660156 248.039062 C 326.746094 247.105469 326.894531 246.179688 327.222656 245.304688 C 327.730469 243.945312 328.753906 242.695312 330.148438 242.289062 C 330.621094 242.152344 331.199219 242.054688 331.394531 241.605469 C 331.546875 241.257812 331.378906 240.839844 331.105469 240.574219 C 330.835938 240.308594 330.476562 240.15625 330.140625 239.984375 C 328.257812 239 326.902344 237.078125 326.605469 234.976562 C 326.53125 234.4375 326.359375 233.730469 325.816406 233.714844 C 325.332031 233.703125 325.085938 234.296875 325.023438 234.777344 C 324.734375 236.984375 324.378906 239.234375 321.894531 240.007812 C 321.578125 240.105469 321.175781 240.226562 321.128906 240.554688 C 321.089844 240.828125 321.332031 241.050781 321.546875 241.21875 C 322.246094 241.765625 323.09375 242.269531 323.601562 243 C 324.082031 243.695312 324.414062 244.589844 324.675781 245.386719 Z M 324.675781 245.386719 " fill-opacity="1" fill-rule="nonzero"/><path fill="#000000" d="M 355.773438 211.265625 C 356.082031 212.214844 356.34375 213.207031 356.769531 214.101562 C 356.996094 214.582031 357.710938 214.445312 357.757812 213.917969 C 357.84375 212.980469 357.992188 212.058594 358.320312 211.183594 C 358.832031 209.820312 359.851562 208.574219 361.246094 208.167969 C 361.71875 208.027344 362.296875 207.933594 362.492188 207.480469 C 362.644531 207.132812 362.476562 206.714844 362.207031 206.453125 C 361.933594 206.1875 361.574219 206.035156 361.238281 205.859375 C 359.359375 204.878906 358 202.957031 357.703125 200.855469 C 357.628906 200.316406 357.460938 199.605469 356.917969 199.59375 C 356.429688 199.582031 356.1875 200.175781 356.125 200.65625 C 355.835938 202.859375 355.480469 205.113281 352.992188 205.882812 C 352.675781 205.984375 352.277344 206.105469 352.230469 206.433594 C 352.191406 206.703125 352.429688 206.925781 352.644531 207.09375 C 353.347656 207.644531 354.191406 208.144531 354.699219 208.875 C 355.179688 209.570312 355.511719 210.464844 355.773438 211.265625 Z M 355.773438 211.265625 " fill-opacity="1" fill-rule="nonzero"/><path fill="#000000" d="M 297.992188 232.480469 C 298.136719 232.929688 298.261719 233.402344 298.464844 233.828125 C 298.574219 234.058594 298.914062 233.992188 298.9375 233.742188 C 298.976562 233.296875 299.046875 232.859375 299.203125 232.441406 C 299.445312 231.792969 299.929688 231.199219 300.59375 231.007812 C 300.820312 230.941406 301.09375 230.894531 301.1875 230.679688 C 301.257812 230.515625 301.179688 230.316406 301.050781 230.191406 C 300.921875 230.066406 300.75 229.992188 300.589844 229.910156 C 299.695312 229.445312 299.050781 228.53125 298.910156 227.53125 C 298.875 227.277344 298.792969 226.9375 298.535156 226.933594 C 298.304688 226.925781 298.1875 227.207031 298.160156 227.4375 C 298.019531 228.484375 297.851562 229.554688 296.671875 229.921875 C 296.519531 229.96875 296.332031 230.027344 296.308594 230.183594 C 296.289062 230.3125 296.402344 230.417969 296.507812 230.5 C 296.839844 230.757812 297.242188 230.996094 297.480469 231.34375 C 297.710938 231.675781 297.867188 232.101562 297.992188 232.480469 Z M 297.992188 232.480469 " fill-opacity="1" fill-rule="nonzero"/><path fill="#000000" d="M 344.648438 180.703125 C 344.792969 181.15625 344.917969 181.628906 345.121094 182.054688 C 345.230469 182.28125 345.570312 182.21875 345.59375 181.964844 C 345.632812 181.523438 345.703125 181.082031 345.859375 180.664062 C 346.101562 180.019531 346.585938 179.425781 347.25 179.230469 C 347.476562 179.167969 347.75 179.121094 347.84375 178.90625 C 347.914062 178.742188 347.835938 178.542969 347.707031 178.417969 C 347.578125 178.289062 347.40625 178.21875 347.246094 178.136719 C 346.351562 177.667969 345.707031 176.753906 345.566406 175.753906 C 345.53125 175.5 345.449219 175.160156 345.191406 175.15625 C 344.960938 175.148438 344.84375 175.433594 344.816406 175.660156 C 344.679688 176.707031 344.507812 177.78125 343.328125 178.144531 C 343.175781 178.191406 342.988281 178.25 342.964844 178.40625 C 342.945312 178.535156 343.058594 178.640625 343.164062 178.722656 C 343.496094 178.984375 343.898438 179.222656 344.136719 179.570312 C 344.367188 179.898438 344.523438 180.324219 344.648438 180.703125 Z M 344.648438 180.703125 " fill-opacity="1" fill-rule="nonzero"/><path fill="#e8e8e8" d="M 333.328125 112.285156 C 336.375 112.636719 338.914062 115.332031 339.324219 118.335938 C 339.386719 118.816406 339.941406 119.042969 340.3125 118.730469 C 341.433594 117.785156 342.941406 117.296875 344.371094 117.589844 C 346.007812 117.929688 347.371094 119.390625 347.558594 121.019531 C 347.601562 121.40625 348.007812 121.640625 348.375 121.5 C 349.539062 121.054688 350.730469 120.671875 351.96875 120.628906 C 353.5 120.574219 355.144531 121.140625 355.984375 122.421875 C 356.605469 123.375 356.707031 124.585938 356.558594 125.710938 C 356.199219 128.414062 354.449219 130.894531 352.019531 132.132812 C 349.777344 133.269531 347.023438 133.324219 344.730469 132.308594 C 344.429688 132.171875 344.070312 132.320312 343.945312 132.628906 C 342.9375 135.132812 340.488281 137.023438 337.796875 137.3125 C 335.226562 137.585938 332.566406 136.382812 331.011719 134.332031 C 330.753906 133.992188 330.246094 133.988281 330.019531 134.34375 C 328.78125 136.257812 326.292969 137.34375 324.054688 136.820312 C 321.855469 136.304688 320.132812 134.289062 319.824219 132.070312 C 319.765625 131.644531 319.304688 131.425781 318.925781 131.628906 C 317.410156 132.449219 315.363281 132.273438 313.988281 131.1875 C 312.328125 129.875 311.707031 127.472656 312.324219 125.445312 C 312.9375 123.417969 314.65625 121.820312 316.65625 121.125 C 317.953125 120.675781 319.503906 120.628906 320.867188 120.535156 C 322.132812 120.453125 323.417969 120.601562 324.632812 120.972656 C 325.011719 121.089844 325.402344 120.820312 325.414062 120.421875 C 325.441406 119.535156 325.703125 118.292969 325.78125 118.03125 C 326.097656 116.90625 326.71875 115.972656 327.359375 115.011719 C 328.636719 113.101562 330.996094 112.015625 333.328125 112.285156 Z M 333.328125 112.285156 " fill-opacity="1" fill-rule="nonzero"/><path fill="#000000" d="M 337.054688 138.371094 C 336.246094 138.371094 335.433594 138.246094 334.625 138.003906 C 334.085938 137.839844 333.78125 137.269531 333.945312 136.730469 C 334.109375 136.191406 334.679688 135.890625 335.21875 136.050781 C 336.042969 136.300781 336.875 136.382812 337.6875 136.296875 C 339.988281 136.050781 342.125 134.425781 343 132.246094 C 343.164062 131.84375 343.488281 131.519531 343.890625 131.355469 C 344.292969 131.191406 344.746094 131.199219 345.144531 131.375 C 347.160156 132.269531 349.617188 132.210938 351.554688 131.222656 C 353.671875 130.144531 355.238281 127.929688 355.546875 125.578125 C 355.621094 125.023438 356.132812 124.628906 356.691406 124.703125 C 357.25 124.777344 357.640625 125.289062 357.570312 125.84375 C 357.167969 128.890625 355.21875 131.644531 352.480469 133.039062 C 350.097656 134.25 347.226562 134.378906 344.71875 133.40625 C 343.476562 136.0625 340.789062 138.015625 337.90625 138.324219 C 337.621094 138.355469 337.339844 138.371094 337.054688 138.371094 Z M 337.054688 138.371094 " fill-opacity="1" fill-rule="nonzero"/><g clip-path="url(#2bc2b88ed9)"><path fill="#000000" d="M 355.984375 123.441406 C 355.652344 123.441406 355.328125 123.277344 355.132812 122.980469 C 354.574219 122.121094 353.335938 121.601562 352.003906 121.648438 C 350.882812 121.6875 349.769531 122.058594 348.738281 122.453125 C 348.261719 122.632812 347.742188 122.585938 347.308594 122.320312 C 346.878906 122.0625 346.601562 121.628906 346.546875 121.132812 C 346.410156 119.953125 345.367188 118.835938 344.167969 118.589844 C 343.105469 118.371094 341.914062 118.714844 340.96875 119.507812 C 340.515625 119.890625 339.894531 119.996094 339.34375 119.785156 C 338.789062 119.570312 338.394531 119.066406 338.3125 118.46875 C 337.957031 115.859375 335.71875 113.585938 333.210938 113.296875 C 332.179688 113.175781 331.128906 113.371094 330.175781 113.855469 C 329.671875 114.109375 329.058594 113.910156 328.804688 113.40625 C 328.550781 112.90625 328.75 112.292969 329.25 112.039062 C 330.5625 111.371094 332.011719 111.105469 333.445312 111.273438 C 336.671875 111.644531 339.476562 114.28125 340.210938 117.53125 C 341.535156 116.640625 343.121094 116.292969 344.578125 116.59375 C 346.476562 116.984375 348.042969 118.53125 348.476562 120.375 C 349.546875 119.988281 350.695312 119.65625 351.929688 119.609375 C 353.996094 119.53125 355.878906 120.398438 356.835938 121.863281 C 357.144531 122.335938 357.011719 122.964844 356.542969 123.273438 C 356.371094 123.386719 356.175781 123.441406 355.984375 123.441406 Z M 355.984375 123.441406 " fill-opacity="1" fill-rule="nonzero"/></g><path fill="#000000" d="M 325.1875 137.964844 C 324.730469 137.964844 324.273438 137.914062 323.824219 137.8125 C 321.425781 137.25 319.472656 135.214844 318.917969 132.757812 C 317.109375 133.496094 314.894531 133.203125 313.355469 131.988281 C 311.417969 130.453125 310.59375 127.640625 311.351562 125.148438 C 312.03125 122.902344 313.9375 120.992188 316.324219 120.164062 C 317.609375 119.71875 319.0625 119.628906 320.34375 119.546875 L 320.800781 119.519531 C 322.03125 119.4375 323.25 119.550781 324.433594 119.855469 C 324.519531 118.996094 324.714844 118.050781 324.800781 117.75 C 325.125 116.59375 325.71875 115.640625 326.300781 114.765625 C 326.609375 114.296875 327.242188 114.171875 327.710938 114.480469 C 328.179688 114.789062 328.308594 115.421875 328 115.894531 C 327.488281 116.664062 327.007812 117.429688 326.761719 118.304688 C 326.703125 118.519531 326.460938 119.683594 326.4375 120.453125 C 326.421875 120.960938 326.175781 121.421875 325.761719 121.714844 C 325.347656 122.011719 324.828125 122.097656 324.332031 121.945312 C 323.234375 121.609375 322.089844 121.476562 320.9375 121.554688 L 320.472656 121.582031 C 319.261719 121.65625 318.015625 121.734375 316.992188 122.089844 C 315.210938 122.707031 313.796875 124.105469 313.300781 125.742188 C 312.789062 127.425781 313.34375 129.378906 314.621094 130.390625 C 315.667969 131.21875 317.277344 131.363281 318.441406 130.734375 C 318.917969 130.476562 319.488281 130.46875 319.96875 130.710938 C 320.4375 130.949219 320.761719 131.410156 320.835938 131.933594 C 321.089844 133.78125 322.542969 135.417969 324.289062 135.828125 C 326.078125 136.246094 328.128906 135.390625 329.164062 133.789062 C 329.445312 133.351562 329.929688 133.078125 330.449219 133.058594 C 330.980469 133.046875 331.5 133.285156 331.824219 133.714844 C 332.144531 134.136719 332.523438 134.523438 332.949219 134.863281 C 333.390625 135.214844 333.460938 135.855469 333.113281 136.296875 C 332.761719 136.738281 332.121094 136.8125 331.679688 136.460938 C 331.265625 136.128906 330.882812 135.761719 330.539062 135.367188 C 329.265625 136.992188 327.210938 137.96875 325.1875 137.96875 Z M 325.1875 137.964844 " fill-opacity="1" fill-rule="nonzero"/><path fill="#e8e8e8" d="M 22.289062 236.78125 C 25.332031 237.132812 27.875 239.828125 28.28125 242.832031 C 28.347656 243.3125 28.902344 243.539062 29.269531 243.226562 C 30.394531 242.28125 31.902344 241.792969 33.332031 242.085938 C 34.964844 242.425781 36.332031 243.886719 36.515625 245.515625 C 36.5625 245.902344 36.96875 246.136719 37.332031 245.996094 C 38.496094 245.554688 39.6875 245.167969 40.925781 245.125 C 42.457031 245.070312 44.105469 245.636719 44.941406 246.917969 C 45.566406 247.871094 45.664062 249.082031 45.515625 250.207031 C 45.160156 252.910156 43.40625 255.390625 40.976562 256.628906 C 38.738281 257.765625 35.984375 257.820312 33.691406 256.804688 C 33.386719 256.667969 33.027344 256.816406 32.902344 257.125 C 31.894531 259.628906 29.445312 261.519531 26.753906 261.808594 C 24.183594 262.082031 21.523438 260.882812 19.96875 258.828125 C 19.714844 258.488281 19.207031 258.484375 18.976562 258.839844 C 17.738281 260.753906 15.253906 261.839844 13.015625 261.316406 C 10.816406 260.800781 9.089844 258.789062 8.785156 256.570312 C 8.726562 256.140625 8.265625 255.921875 7.882812 256.125 C 6.367188 256.945312 4.320312 256.773438 2.945312 255.683594 C 1.285156 254.371094 0.667969 251.96875 1.28125 249.941406 C 1.894531 247.917969 3.617188 246.316406 5.617188 245.625 C 6.914062 245.171875 8.464844 245.125 9.828125 245.035156 C 11.09375 244.949219 12.375 245.097656 13.589844 245.46875 C 13.972656 245.585938 14.363281 245.320312 14.375 244.921875 C 14.402344 244.03125 14.664062 242.792969 14.738281 242.527344 C 15.054688 241.402344 15.679688 240.46875 16.316406 239.511719 C 17.597656 237.597656 19.953125 236.511719 22.285156 236.78125 Z M 22.289062 236.78125 " fill-opacity="1" fill-rule="nonzero"/><g clip-path="url(#1e04d5ff9f)"><path fill="#000000" d="M 26.015625 262.867188 C 25.207031 262.867188 24.390625 262.742188 23.582031 262.5 C 23.042969 262.335938 22.742188 261.765625 22.902344 261.226562 C 23.066406 260.6875 23.636719 260.382812 24.175781 260.546875 C 25 260.796875 25.832031 260.882812 26.648438 260.792969 C 28.949219 260.546875 31.082031 258.921875 31.960938 256.742188 C 32.121094 256.339844 32.445312 256.015625 32.847656 255.851562 C 33.253906 255.691406 33.710938 255.695312 34.105469 255.871094 C 36.117188 256.765625 38.574219 256.707031 40.515625 255.71875 C 42.628906 254.644531 44.195312 252.429688 44.507812 250.074219 C 44.582031 249.519531 45.089844 249.125 45.652344 249.199219 C 46.207031 249.273438 46.601562 249.785156 46.527344 250.34375 C 46.125 253.386719 44.175781 256.144531 41.441406 257.535156 C 39.054688 258.75 36.1875 258.878906 33.679688 257.902344 C 32.4375 260.558594 29.75 262.511719 26.863281 262.820312 C 26.582031 262.851562 26.300781 262.867188 26.015625 262.867188 Z M 26.015625 262.867188 " fill-opacity="1" fill-rule="nonzero"/></g><path fill="#000000" d="M 44.945312 247.9375 C 44.613281 247.9375 44.285156 247.773438 44.089844 247.476562 C 43.53125 246.617188 42.292969 246.101562 40.964844 246.144531 C 39.839844 246.183594 38.730469 246.554688 37.695312 246.949219 C 37.222656 247.132812 36.703125 247.082031 36.265625 246.820312 C 35.839844 246.558594 35.5625 246.125 35.503906 245.628906 C 35.371094 244.449219 34.324219 243.335938 33.125 243.085938 C 32.0625 242.867188 30.871094 243.210938 29.929688 244.007812 C 29.476562 244.386719 28.855469 244.492188 28.304688 244.28125 C 27.75 244.066406 27.351562 243.566406 27.273438 242.96875 C 26.917969 240.355469 24.675781 238.085938 22.171875 237.792969 C 21.136719 237.675781 20.085938 237.867188 19.132812 238.351562 C 18.632812 238.605469 18.019531 238.40625 17.761719 237.90625 C 17.507812 237.402344 17.707031 236.789062 18.210938 236.535156 C 19.519531 235.867188 20.972656 235.605469 22.40625 235.769531 C 25.632812 236.144531 28.433594 238.78125 29.171875 242.027344 C 30.492188 241.140625 32.082031 240.789062 33.539062 241.089844 C 35.433594 241.480469 37 243.03125 37.4375 244.871094 C 38.503906 244.484375 39.652344 244.152344 40.890625 244.105469 C 42.960938 244.03125 44.839844 244.898438 45.796875 246.359375 C 46.105469 246.832031 45.972656 247.464844 45.5 247.773438 C 45.328125 247.882812 45.136719 247.9375 44.945312 247.9375 Z M 44.945312 247.9375 " fill-opacity="1" fill-rule="nonzero"/><g clip-path="url(#4910185777)"><path fill="#000000" d="M 14.148438 262.460938 C 13.6875 262.460938 13.230469 262.414062 12.785156 262.308594 C 10.382812 261.746094 8.429688 259.710938 7.875 257.257812 C 6.070312 257.992188 3.855469 257.703125 2.316406 256.484375 C 0.375 254.953125 -0.449219 252.140625 0.308594 249.648438 C 0.992188 247.398438 2.898438 245.488281 5.28125 244.660156 C 6.566406 244.214844 8.019531 244.125 9.304688 244.046875 L 9.761719 244.019531 C 10.992188 243.933594 12.210938 244.050781 13.394531 244.355469 C 13.480469 243.445312 13.695312 242.476562 13.757812 242.25 C 14.085938 241.089844 14.679688 240.140625 15.257812 239.265625 C 15.570312 238.796875 16.199219 238.667969 16.671875 238.976562 C 17.140625 239.289062 17.269531 239.921875 16.957031 240.390625 C 16.445312 241.160156 15.96875 241.925781 15.722656 242.804688 C 15.652344 243.042969 15.417969 244.183594 15.394531 244.949219 C 15.378906 245.457031 15.136719 245.917969 14.722656 246.210938 C 14.308594 246.507812 13.785156 246.59375 13.292969 246.445312 C 12.191406 246.105469 11.050781 245.976562 9.898438 246.050781 L 9.429688 246.078125 C 8.222656 246.15625 6.972656 246.230469 5.953125 246.585938 C 4.167969 247.203125 2.753906 248.605469 2.261719 250.238281 C 1.75 251.921875 2.304688 253.875 3.578125 254.886719 C 4.628906 255.714844 6.234375 255.859375 7.402344 255.230469 C 7.878906 254.972656 8.449219 254.964844 8.925781 255.207031 C 9.398438 255.445312 9.722656 255.902344 9.796875 256.429688 C 10.050781 258.277344 11.503906 259.914062 13.25 260.324219 C 15.039062 260.742188 17.089844 259.886719 18.121094 258.285156 C 18.40625 257.847656 18.886719 257.574219 19.410156 257.554688 C 19.933594 257.53125 20.457031 257.78125 20.785156 258.214844 C 21.105469 258.636719 21.480469 259.019531 21.910156 259.359375 C 22.351562 259.710938 22.421875 260.351562 22.070312 260.792969 C 21.722656 261.234375 21.082031 261.304688 20.640625 260.953125 C 20.222656 260.625 19.839844 260.257812 19.5 259.863281 C 18.222656 261.484375 16.171875 262.464844 14.148438 262.464844 Z M 14.148438 262.460938 " fill-opacity="1" fill-rule="nonzero"/></g><path fill="#e8e8e8" d="M 364.324219 137.648438 C 365.488281 138.335938 366.382812 139.507812 366.683594 140.828125 C 366.75 141.113281 367.078125 141.253906 367.300781 141.0625 C 368.382812 140.136719 370.136719 140.019531 371.355469 140.8125 C 372.792969 141.746094 373.402344 143.699219 372.945312 145.351562 C 372.488281 147.003906 371.089844 148.308594 369.46875 148.867188 C 368.007812 149.371094 366.398438 149.316406 364.910156 148.882812 C 364.675781 148.8125 364.4375 148.960938 364.402344 149.203125 C 364.25 150.324219 363.347656 151.292969 362.316406 151.816406 C 361.066406 152.445312 359.496094 152.5625 358.285156 151.863281 C 357.316406 151.300781 356.683594 150.160156 356.757812 149.070312 C 356.777344 148.769531 356.472656 148.570312 356.195312 148.695312 C 354.480469 149.453125 352.300781 149.183594 350.941406 147.875 C 349.375 146.371094 349.179688 143.609375 350.609375 141.972656 C 351.960938 140.433594 354.730469 140.027344 356.636719 140.871094 C 356.871094 140.976562 357.15625 140.855469 357.195312 140.597656 C 357.3125 139.828125 358.011719 138.769531 358.3125 138.527344 C 360.167969 137.042969 362.0625 136.316406 364.320312 137.648438 Z M 364.324219 137.648438 " fill-opacity="1" fill-rule="nonzero"/><g clip-path="url(#74ccc29ae8)"><path fill="#000000" d="M 371.992188 148.160156 C 371.761719 148.160156 371.53125 148.082031 371.339844 147.925781 C 370.90625 147.5625 370.847656 146.921875 371.207031 146.488281 C 371.570312 146.054688 371.824219 145.582031 371.964844 145.078125 C 372.320312 143.796875 371.816406 142.332031 370.800781 141.667969 C 369.960938 141.121094 368.714844 141.195312 367.964844 141.839844 C 367.59375 142.15625 367.097656 142.25 366.636719 142.097656 C 366.164062 141.941406 365.804688 141.542969 365.691406 141.054688 C 365.457031 140.03125 364.753906 139.085938 363.804688 138.527344 C 362.207031 137.585938 360.847656 137.808594 358.949219 139.324219 C 358.789062 139.480469 358.277344 140.28125 358.203125 140.75 C 358.140625 141.179688 357.886719 141.546875 357.503906 141.753906 C 357.113281 141.96875 356.632812 141.988281 356.222656 141.804688 C 355.113281 141.3125 353.585938 141.347656 352.417969 141.890625 C 351.910156 142.128906 351.300781 141.910156 351.0625 141.398438 C 350.824219 140.890625 351.046875 140.28125 351.554688 140.042969 C 353.035156 139.351562 354.863281 139.234375 356.394531 139.699219 C 356.71875 138.859375 357.304688 138.03125 357.679688 137.730469 C 359.28125 136.449219 361.765625 134.960938 364.839844 136.769531 C 366.003906 137.457031 366.925781 138.539062 367.417969 139.765625 C 368.800781 139.058594 370.59375 139.101562 371.910156 139.957031 C 373.671875 141.101562 374.519531 143.484375 373.929688 145.621094 C 373.710938 146.40625 373.324219 147.136719 372.777344 147.792969 C 372.574219 148.035156 372.285156 148.160156 371.992188 148.160156 Z M 367.679688 140.601562 Z M 356.1875 140.445312 L 356.1875 140.449219 Z M 356.1875 140.445312 " fill-opacity="1" fill-rule="nonzero"/></g><path fill="#000000" d="M 360.167969 153.359375 C 359.3125 153.359375 358.484375 153.15625 357.777344 152.746094 C 356.730469 152.140625 356.003906 151.070312 355.792969 149.917969 C 353.835938 150.457031 351.648438 149.96875 350.238281 148.613281 C 348.683594 147.117188 348.183594 144.65625 349.027344 142.625 C 349.242188 142.105469 349.835938 141.859375 350.359375 142.074219 C 350.878906 142.289062 351.125 142.886719 350.910156 143.40625 C 350.390625 144.660156 350.703125 146.230469 351.648438 147.140625 C 352.664062 148.113281 354.402344 148.375 355.785156 147.761719 C 356.25 147.558594 356.773438 147.605469 357.183594 147.894531 C 357.589844 148.179688 357.808594 148.644531 357.777344 149.136719 C 357.730469 149.835938 358.15625 150.609375 358.796875 150.980469 C 359.621094 151.457031 360.824219 151.429688 361.855469 150.90625 C 362.695312 150.480469 363.296875 149.757812 363.394531 149.0625 C 363.453125 148.65625 363.679688 148.292969 364.023438 148.070312 C 364.371094 147.847656 364.796875 147.789062 365.195312 147.902344 C 366.171875 148.1875 367.648438 148.421875 369.136719 147.90625 C 369.667969 147.722656 370.25 148.003906 370.433594 148.535156 C 370.617188 149.070312 370.335938 149.648438 369.800781 149.832031 C 368.402344 150.316406 366.84375 150.378906 365.25 150.019531 C 364.871094 151.121094 363.972656 152.117188 362.773438 152.722656 C 361.941406 153.148438 361.039062 153.359375 360.167969 153.359375 Z M 360.167969 153.359375 " fill-opacity="1" fill-rule="nonzero"/><path fill="#e8e8e8" d="M 51.839844 221.683594 C 53.003906 222.371094 53.902344 223.542969 54.203125 224.863281 C 54.269531 225.148438 54.597656 225.289062 54.816406 225.097656 C 55.902344 224.171875 57.652344 224.054688 58.875 224.847656 C 60.3125 225.78125 60.917969 227.734375 60.460938 229.386719 C 60.003906 231.039062 58.609375 232.34375 56.988281 232.902344 C 55.527344 233.40625 53.914062 233.351562 52.429688 232.917969 C 52.191406 232.847656 51.957031 232.996094 51.921875 233.238281 C 51.765625 234.359375 50.867188 235.328125 49.832031 235.851562 C 48.582031 236.480469 47.015625 236.597656 45.804688 235.898438 C 44.835938 235.335938 44.203125 234.195312 44.277344 233.105469 C 44.296875 232.804688 43.992188 232.605469 43.714844 232.730469 C 41.996094 233.488281 39.820312 233.21875 38.460938 231.910156 C 36.890625 230.402344 36.695312 227.644531 38.128906 226.007812 C 39.476562 224.464844 42.25 224.0625 44.152344 224.90625 C 44.390625 225.011719 44.675781 224.890625 44.710938 224.632812 C 44.828125 223.863281 45.53125 222.800781 45.832031 222.5625 C 47.6875 221.078125 49.578125 220.351562 51.839844 221.683594 Z M 51.839844 221.683594 " fill-opacity="1" fill-rule="nonzero"/><path fill="#000000" d="M 59.507812 232.195312 C 59.277344 232.195312 59.046875 232.117188 58.855469 231.957031 C 58.425781 231.597656 58.367188 230.957031 58.726562 230.523438 C 59.089844 230.089844 59.339844 229.617188 59.480469 229.113281 C 59.835938 227.832031 59.335938 226.363281 58.316406 225.703125 C 57.476562 225.15625 56.230469 225.230469 55.480469 225.871094 C 55.109375 226.1875 54.613281 226.285156 54.152344 226.132812 C 53.683594 225.976562 53.320312 225.578125 53.207031 225.089844 C 52.976562 224.066406 52.269531 223.121094 51.324219 222.5625 C 49.722656 221.621094 48.363281 221.84375 46.46875 223.359375 C 46.304688 223.515625 45.792969 224.316406 45.722656 224.785156 C 45.65625 225.214844 45.402344 225.582031 45.019531 225.789062 C 44.628906 226.003906 44.152344 226.023438 43.738281 225.839844 C 42.632812 225.347656 41.101562 225.382812 39.933594 225.925781 C 39.425781 226.164062 38.820312 225.945312 38.582031 225.433594 C 38.34375 224.925781 38.5625 224.316406 39.074219 224.078125 C 40.550781 223.390625 42.378906 223.269531 43.914062 223.734375 C 44.234375 222.894531 44.820312 222.066406 45.195312 221.765625 C 46.796875 220.488281 49.285156 218.996094 52.359375 220.804688 C 53.519531 221.492188 54.441406 222.574219 54.933594 223.804688 C 56.320312 223.09375 58.109375 223.136719 59.425781 223.992188 C 61.1875 225.136719 62.035156 227.519531 61.445312 229.65625 C 61.226562 230.441406 60.839844 231.171875 60.289062 231.828125 C 60.089844 232.070312 59.800781 232.195312 59.507812 232.195312 Z M 59.507812 232.195312 " fill-opacity="1" fill-rule="nonzero"/><path fill="#000000" d="M 47.683594 237.394531 C 46.828125 237.394531 46 237.1875 45.292969 236.78125 C 44.25 236.175781 43.519531 235.105469 43.3125 233.953125 C 41.351562 234.488281 39.164062 234.003906 37.753906 232.648438 C 36.199219 231.152344 35.703125 228.691406 36.542969 226.660156 C 36.757812 226.140625 37.355469 225.894531 37.875 226.109375 C 38.394531 226.324219 38.640625 226.921875 38.425781 227.441406 C 37.90625 228.695312 38.21875 230.265625 39.167969 231.179688 C 40.179688 232.148438 41.917969 232.410156 43.300781 231.796875 C 43.765625 231.59375 44.289062 231.640625 44.699219 231.929688 C 45.105469 232.214844 45.328125 232.679688 45.292969 233.175781 C 45.246094 233.871094 45.675781 234.648438 46.316406 235.015625 C 47.140625 235.492188 48.339844 235.460938 49.375 234.941406 C 50.210938 234.515625 50.816406 233.792969 50.914062 233.097656 C 50.96875 232.691406 51.199219 232.332031 51.542969 232.109375 C 51.886719 231.882812 52.3125 231.824219 52.714844 231.9375 C 53.691406 232.222656 55.167969 232.457031 56.65625 231.941406 C 57.1875 231.757812 57.769531 232.039062 57.953125 232.574219 C 58.136719 233.105469 57.851562 233.683594 57.320312 233.867188 C 55.921875 234.351562 54.359375 234.414062 52.769531 234.058594 C 52.390625 235.15625 51.492188 236.152344 50.292969 236.761719 C 49.457031 237.183594 48.554688 237.394531 47.683594 237.394531 Z M 47.683594 237.394531 " fill-opacity="1" fill-rule="nonzero"/><g clip-path="url(#775962d44e)"><g clip-path="url(#67e5f70637)"><g transform="matrix(1, 0, 0, 1, 40, 154)"><g clip-path="url(#e2186e9f5c)"><g clip-path="url(#79f16e9812)"><g clip-path="url(#82e6416584)"><path fill="#e8e8e8" d="M 0.425781 0.402344 L 293.816406 0.402344 L 293.816406 65.65625 L 0.425781 65.65625 Z M 0.425781 0.402344 " fill-opacity="1" fill-rule="nonzero"/></g></g></g></g></g></g><g clip-path="url(#7317d290ad)"><g clip-path="url(#57ba20b7c9)"><path stroke-linecap="butt" transform="matrix(0.748125, 0, 0, 0.748125, 40.425577, 154.402406)" fill="none" stroke-linejoin="miter" d="M 391.990703 9.998873 L 391.990703 77.219013 C 391.990703 82.743241 387.515974 87.21797 381.991746 87.21797 L 10.009673 87.21797 C 4.485445 87.21797 0.0107161 82.743241 0.0107161 77.219013 L 0.0107161 9.998873 C 0.0107161 4.474645 4.485445 -0.0000837676 10.009673 -0.0000837676 L 381.991746 -0.0000837676 C 387.515974 -0.0000837676 391.990703 4.474645 391.990703 9.998873 Z M 391.990703 9.998873 " stroke="#000000" stroke-width="6" stroke-opacity="1" stroke-miterlimit="4"/></g></g></svg>