<svg xmlns="http://www.w3.org/2000/svg" xmlns:xlink="http://www.w3.org/1999/xlink" width="500" zoomAndPan="magnify" viewBox="0 0 375.12 383.03998" height="500" preserveAspectRatio="xMidYMid meet" version="1.0"><defs><filter x="0%" y="0%" width="100%" height="100%" id="9b88bbec94"><feColorMatrix values="0 0 0 0 1 0 0 0 0 1 0 0 0 0 1 0 0 0 1 0" color-interpolation-filters="sRGB"/></filter><mask id="514e2b3282"><g filter="url(#9b88bbec94)"><rect x="-37.512" width="450.144" fill="#000000" y="-38.303998" height="459.647976" fill-opacity="0.6"/></g></mask><clipPath id="bdc170f5b0"><path d="M 0.167969 0.390625 L 361 0.390625 L 361 139 L 0.167969 139 Z M 0.167969 0.390625 " clip-rule="nonzero"/></clipPath><clipPath id="34fabff7ab"><rect x="0" width="362" y="0" height="140"/></clipPath><mask id="21ea50265b"><g filter="url(#9b88bbec94)"><rect x="-37.512" width="450.144" fill="#000000" y="-38.303998" height="459.647976" fill-opacity="0.6"/></g></mask><clipPath id="058dcd17ba"><path d="M 0.324219 0.390625 L 16 0.390625 L 16 2 L 0.324219 2 Z M 0.324219 0.390625 " clip-rule="nonzero"/></clipPath><clipPath id="a6256a5684"><rect x="0" width="17" y="0" height="3"/></clipPath><mask id="2faa5cd377"><g filter="url(#9b88bbec94)"><rect x="-37.512" width="450.144" fill="#000000" y="-38.303998" height="459.647976" fill-opacity="0.6"/></g></mask><clipPath id="90dc157d72"><path d="M 0.148438 0.390625 L 15.710938 0.390625 L 15.710938 2 L 0.148438 2 Z M 0.148438 0.390625 " clip-rule="nonzero"/></clipPath><clipPath id="fed975b939"><rect x="0" width="16" y="0" height="3"/></clipPath><mask id="2025884582"><g filter="url(#9b88bbec94)"><rect x="-37.512" width="450.144" fill="#000000" y="-38.303998" height="459.647976" fill-opacity="0.6"/></g></mask><clipPath id="4c51aa71c2"><path d="M 1 0.390625 L 16 0.390625 L 16 2 L 1 2 Z M 1 0.390625 " clip-rule="nonzero"/></clipPath><clipPath id="4bd3e9263e"><rect x="0" width="17" y="0" height="3"/></clipPath><mask id="f3be6883a2"><g filter="url(#9b88bbec94)"><rect x="-37.512" width="450.144" fill="#000000" y="-38.303998" height="459.647976" fill-opacity="0.6"/></g></mask><clipPath id="b075feed55"><path d="M 1 1 L 10.410156 1 L 10.410156 2 L 1 2 Z M 1 1 " clip-rule="nonzero"/></clipPath><clipPath id="f0560b1865"><rect x="0" width="11" y="0" height="3"/></clipPath><mask id="2892ecfc37"><g filter="url(#9b88bbec94)"><rect x="-37.512" width="450.144" fill="#000000" y="-38.303998" height="459.647976" fill-opacity="0.6"/></g></mask><clipPath id="f532e9aeeb"><path d="M 1 0.0625 L 102.691406 0.0625 L 102.691406 1.738281 L 1 1.738281 Z M 1 0.0625 " clip-rule="nonzero"/></clipPath><clipPath id="c66f34ac90"><rect x="0" width="103" y="0" height="2"/></clipPath><mask id="5bf04cfc4b"><g filter="url(#9b88bbec94)"><rect x="-37.512" width="450.144" fill="#000000" y="-38.303998" height="459.647976" fill-opacity="0.6"/></g></mask><clipPath id="bf88278447"><path d="M 0 0.0625 L 84.507812 0.0625 L 84.507812 1.738281 L 0 1.738281 Z M 0 0.0625 " clip-rule="nonzero"/></clipPath><clipPath id="98997ae5ba"><rect x="0" width="85" y="0" height="2"/></clipPath><mask id="02ab8dc21f"><g filter="url(#9b88bbec94)"><rect x="-37.512" width="450.144" fill="#000000" y="-38.303998" height="459.647976" fill-opacity="0.6"/></g></mask><clipPath id="bf5f82278c"><path d="M 0.40625 1 L 16.683594 1 L 16.683594 2 L 0.40625 2 Z M 0.40625 1 " clip-rule="nonzero"/></clipPath><clipPath id="5267fe274f"><rect x="0" width="17" y="0" height="3"/></clipPath><mask id="e2dfe80c32"><g filter="url(#9b88bbec94)"><rect x="-37.512" width="450.144" fill="#000000" y="-38.303998" height="459.647976" fill-opacity="0.6"/></g></mask><clipPath id="fd51b99364"><path d="M 1 0.152344 L 357.355469 0.152344 L 357.355469 1.828125 L 1 1.828125 Z M 1 0.152344 " clip-rule="nonzero"/></clipPath><clipPath id="294982efd2"><rect x="0" width="358" y="0" height="2"/></clipPath><mask id="99a125119a"><g filter="url(#9b88bbec94)"><rect x="-37.512" width="450.144" fill="#000000" y="-38.303998" height="459.647976" fill-opacity="0.6"/></g></mask><clipPath id="9813deda3e"><path d="M 0.167969 1 L 359.507812 1 L 359.507812 3 L 0.167969 3 Z M 0.167969 1 " clip-rule="nonzero"/></clipPath><clipPath id="5204634478"><rect x="0" width="360" y="0" height="4"/></clipPath><mask id="d8c55b194b"><g filter="url(#9b88bbec94)"><rect x="-37.512" width="450.144" fill="#000000" y="-38.303998" height="459.647976" fill-opacity="0.6"/></g></mask><clipPath id="fb5395dccd"><path d="M 0.0429688 0.0625 L 156 0.0625 L 156 1.738281 L 0.0429688 1.738281 Z M 0.0429688 0.0625 " clip-rule="nonzero"/></clipPath><clipPath id="6e62e17a60"><rect x="0" width="157" y="0" height="2"/></clipPath><mask id="a7fa56b710"><g filter="url(#9b88bbec94)"><rect x="-37.512" width="450.144" fill="#000000" y="-38.303998" height="459.647976" fill-opacity="0.6"/></g></mask><clipPath id="74f970160e"><path d="M 1 0.339844 L 359.507812 0.339844 L 359.507812 2 L 1 2 Z M 1 0.339844 " clip-rule="nonzero"/></clipPath><clipPath id="88c2fe9e3d"><rect x="0" width="360" y="0" height="3"/></clipPath><mask id="6de8cc67d9"><g filter="url(#9b88bbec94)"><rect x="-37.512" width="450.144" fill="#000000" y="-38.303998" height="459.647976" fill-opacity="0.6"/></g></mask><clipPath id="c9faf7c24e"><path d="M 0.0078125 0.390625 L 21 0.390625 L 21 2 L 0.0078125 2 Z M 0.0078125 0.390625 " clip-rule="nonzero"/></clipPath><clipPath id="7b847abf07"><rect x="0" width="22" y="0" height="3"/></clipPath><mask id="10d1ce37e3"><g filter="url(#9b88bbec94)"><rect x="-37.512" width="450.144" fill="#000000" y="-38.303998" height="459.647976" fill-opacity="0.6"/></g></mask><clipPath id="9d1450258a"><path d="M 1 0.0507812 L 358 0.0507812 L 358 2 L 1 2 Z M 1 0.0507812 " clip-rule="nonzero"/></clipPath><clipPath id="1b06c2f7ea"><rect x="0" width="359" y="0" height="3"/></clipPath><mask id="3d0186baf0"><g filter="url(#9b88bbec94)"><rect x="-37.512" width="450.144" fill="#000000" y="-38.303998" height="459.647976" fill-opacity="0.6"/></g></mask><clipPath id="a007b573a4"><path d="M 0 1 L 353 1 L 353 2.636719 L 0 2.636719 Z M 0 1 " clip-rule="nonzero"/></clipPath><clipPath id="aee7f51b97"><rect x="0" width="354" y="0" height="3"/></clipPath><mask id="2d193e0a49"><g filter="url(#9b88bbec94)"><rect x="-37.512" width="450.144" fill="#000000" y="-38.303998" height="459.647976" fill-opacity="0.5"/></g></mask><clipPath id="ccdf2c5dd3"><rect x="0" width="362" y="0" height="112"/></clipPath><mask id="2c3c7222e6"><g filter="url(#9b88bbec94)"><rect x="-37.512" width="450.144" fill="#000000" y="-38.303998" height="459.647976" fill-opacity="0.5"/></g></mask><clipPath id="0311c0e098"><path d="M 220 0.390625 L 243 0.390625 L 243 139 L 220 139 Z M 220 0.390625 " clip-rule="nonzero"/></clipPath><clipPath id="2a5b16c531"><path d="M 264 0.390625 L 287 0.390625 L 287 138 L 264 138 Z M 264 0.390625 " clip-rule="nonzero"/></clipPath><clipPath id="e53834864a"><path d="M 44 0.390625 L 67 0.390625 L 67 139 L 44 139 Z M 44 0.390625 " clip-rule="nonzero"/></clipPath><clipPath id="ae96267d2a"><path d="M 0.492188 1 L 23 1 L 23 139 L 0.492188 139 Z M 0.492188 1 " clip-rule="nonzero"/></clipPath><clipPath id="45ee76cbe1"><rect x="0" width="331" y="0" height="140"/></clipPath><clipPath id="9c869305d5"><path d="M 186 244 L 206 244 L 206 265.628906 L 186 265.628906 Z M 186 244 " clip-rule="nonzero"/></clipPath><clipPath id="6aaac095b4"><path d="M 328 108.523438 L 357 108.523438 L 357 122 L 328 122 Z M 328 108.523438 " clip-rule="nonzero"/></clipPath><clipPath id="ed53b211a4"><path d="M 0.03125 231 L 45 231 L 45 257 L 0.03125 257 Z M 0.03125 231 " clip-rule="nonzero"/></clipPath><clipPath id="0c0446ee5c"><path d="M 0.03125 233 L 22 233 L 22 257 L 0.03125 257 Z M 0.03125 233 " clip-rule="nonzero"/></clipPath><clipPath id="ac4fb36c7b"><path d="M 354 237 L 374.09375 237 L 374.09375 256 L 354 256 Z M 354 237 " clip-rule="nonzero"/></clipPath></defs><path fill="#a9cbc7" d="M 12.917969 219.199219 C 11.214844 215.207031 8.859375 211.320312 8.671875 206.976562 C 8.3125 198.84375 15.640625 191.433594 13.925781 183.480469 C 13.003906 179.191406 9.542969 175.695312 9.117188 171.324219 C 8.582031 165.828125 12.953125 161.078125 13.824219 155.628906 C 14.625 150.613281 12.402344 145.6875 10.789062 140.878906 C 8.753906 134.824219 9.230469 126.085938 13.382812 120.992188 C 20.386719 112.402344 30.15625 119.207031 38.769531 119.960938 C 47.621094 120.734375 54.621094 115.984375 63.292969 115.890625 C 68.828125 115.832031 75.59375 115.480469 80.722656 117.636719 C 89.1875 121.195312 99.28125 125.175781 108.207031 120.863281 C 117.871094 116.199219 128.859375 114.859375 139.667969 117.046875 C 145.230469 118.171875 150.433594 121.085938 156.097656 121.34375 C 166.335938 121.8125 175.046875 116.4375 185.28125 115.890625 C 197.960938 115.21875 209.5625 123.550781 222.152344 121.902344 C 229.898438 120.886719 236.605469 117.007812 244.339844 115.890625 C 258.347656 113.871094 271.679688 125.570312 285.25 121.515625 C 290.140625 120.054688 293.746094 118.089844 298.652344 116.6875 C 306.585938 114.417969 315.226562 116.628906 323.125 119.023438 C 328.292969 120.589844 333.984375 121.140625 339.335938 120.394531 C 341.414062 120.105469 343.859375 119.496094 345.667969 118.417969 C 347.289062 117.449219 348.644531 116.699219 350.570312 116.328125 C 354.515625 115.570312 358.75 116.234375 362.207031 118.300781 C 364.230469 119.515625 366.015625 121.207031 367.046875 123.324219 C 369.050781 127.425781 367.976562 132.324219 366.484375 136.636719 C 364.953125 141.070312 363.867188 145.09375 363.320312 149.738281 C 362.816406 154.03125 363.855469 158.667969 365.222656 162.753906 C 366.546875 166.722656 368.5 170.664062 368.265625 174.847656 C 367.929688 180.882812 362.851562 184.6875 363.171875 190.855469 C 363.4375 195.953125 367.539062 200.34375 367.351562 205.445312 C 367.1875 209.773438 363.929688 212.320312 362.648438 216.085938 C 361.4375 219.65625 363.683594 225.808594 364.769531 229.269531 C 365.832031 232.65625 367.226562 235.960938 367.773438 239.464844 C 368.320312 242.96875 367.894531 246.824219 365.652344 249.574219 C 362.894531 252.953125 358.042969 253.882812 353.707031 253.398438 C 349.371094 252.914062 345.25 251.273438 340.964844 250.4375 C 338.222656 249.902344 335.238281 249.660156 332.441406 249.605469 C 329.742188 249.546875 327.414062 250.835938 324.84375 251.5 C 318.484375 253.144531 311.75 252.765625 305.3125 251.824219 C 296.316406 250.507812 287.960938 246.476562 278.894531 247.160156 C 268.210938 247.96875 257.109375 254.65625 246.558594 252.796875 C 239.488281 251.550781 233.003906 247.265625 225.828125 247.328125 C 220.121094 247.382812 215.652344 250.378906 210.378906 251.824219 C 204.902344 253.324219 199.003906 252.601562 193.574219 251.277344 C 186.15625 249.476562 178.84375 246.597656 171.214844 246.761719 C 161.222656 246.976562 151.773438 253.933594 141.804688 253.207031 C 132.757812 252.546875 124.332031 246.535156 115.300781 247.421875 C 106.480469 248.289062 98.84375 254.136719 89.984375 253.773438 C 84.503906 253.550781 79.589844 250.488281 74.300781 249.039062 C 64.453125 246.332031 54.070312 249.316406 44.128906 251.664062 C 38.21875 253.058594 32.105469 254.179688 26.007812 253.792969 C 22.023438 253.539062 14.058594 252.632812 12.089844 248.609375 C 7.488281 239.195312 17.046875 228.875 12.917969 219.199219 Z M 12.917969 219.199219 " fill-opacity="1" fill-rule="nonzero"/><g mask="url(#514e2b3282)"><g transform="matrix(1, 0, 0, 1, 8, 115)"><g clip-path="url(#34fabff7ab)"><g clip-path="url(#bdc170f5b0)"><path fill="#e8e8e8" d="M 4.917969 104.199219 C 3.214844 100.207031 0.859375 96.320312 0.671875 91.976562 C 0.3125 83.84375 7.640625 76.433594 5.925781 68.480469 C 5.003906 64.191406 1.542969 60.695312 1.117188 56.324219 C 0.582031 50.828125 4.953125 46.078125 5.824219 40.628906 C 6.625 35.613281 4.402344 30.6875 2.789062 25.878906 C 0.753906 19.824219 1.230469 11.085938 5.382812 5.992188 C 12.386719 -2.597656 22.15625 4.207031 30.769531 4.960938 C 39.621094 5.734375 46.621094 0.984375 55.292969 0.890625 C 60.828125 0.832031 67.59375 0.480469 72.722656 2.636719 C 81.1875 6.195312 91.28125 10.175781 100.207031 5.863281 C 109.871094 1.199219 120.859375 -0.140625 131.667969 2.046875 C 137.230469 3.171875 142.433594 6.085938 148.097656 6.34375 C 158.335938 6.8125 167.046875 1.4375 177.28125 0.890625 C 189.960938 0.21875 201.5625 8.550781 214.152344 6.902344 C 221.898438 5.886719 228.605469 2.007812 236.339844 0.890625 C 250.347656 -1.128906 263.679688 10.570312 277.25 6.515625 C 282.140625 5.054688 285.746094 3.089844 290.652344 1.6875 C 298.585938 -0.582031 307.226562 1.628906 315.125 4.023438 C 320.292969 5.589844 325.984375 6.140625 331.335938 5.394531 C 333.414062 5.105469 335.859375 4.496094 337.667969 3.417969 C 339.289062 2.449219 340.644531 1.699219 342.570312 1.328125 C 346.515625 0.570312 350.75 1.234375 354.207031 3.300781 C 356.230469 4.515625 358.015625 6.207031 359.046875 8.324219 C 361.050781 12.425781 359.976562 17.324219 358.484375 21.636719 C 356.953125 26.070312 355.867188 30.09375 355.320312 34.738281 C 354.816406 39.03125 355.855469 43.667969 357.222656 47.753906 C 358.546875 51.722656 360.5 55.664062 360.265625 59.847656 C 359.929688 65.882812 354.851562 69.6875 355.171875 75.855469 C 355.4375 80.953125 359.539062 85.34375 359.351562 90.445312 C 359.1875 94.773438 355.929688 97.320312 354.648438 101.085938 C 353.4375 104.65625 355.683594 110.808594 356.769531 114.269531 C 357.832031 117.65625 359.226562 120.960938 359.773438 124.464844 C 360.320312 127.96875 359.894531 131.824219 357.652344 134.574219 C 354.894531 137.953125 350.042969 138.882812 345.707031 138.398438 C 341.371094 137.914062 337.25 136.273438 332.964844 135.4375 C 330.222656 134.902344 327.238281 134.660156 324.441406 134.605469 C 321.742188 134.546875 319.414062 135.835938 316.84375 136.5 C 310.484375 138.144531 303.75 137.765625 297.3125 136.824219 C 288.316406 135.507812 279.960938 131.476562 270.894531 132.160156 C 260.210938 132.96875 249.109375 139.65625 238.558594 137.796875 C 231.488281 136.550781 225.003906 132.265625 217.828125 132.328125 C 212.121094 132.382812 207.652344 135.378906 202.378906 136.824219 C 196.902344 138.324219 191.003906 137.601562 185.574219 136.277344 C 178.15625 134.476562 170.84375 131.597656 163.214844 131.761719 C 153.222656 131.976562 143.773438 138.933594 133.804688 138.207031 C 124.757812 137.546875 116.332031 131.535156 107.300781 132.421875 C 98.480469 133.289062 90.84375 139.136719 81.984375 138.773438 C 76.503906 138.550781 71.589844 135.488281 66.300781 134.039062 C 56.453125 131.332031 46.070312 134.316406 36.128906 136.664062 C 30.21875 138.058594 24.105469 139.179688 18.007812 138.792969 C 14.023438 138.539062 6.058594 137.632812 4.089844 133.609375 C -0.511719 124.195312 9.046875 113.875 4.917969 104.199219 Z M 4.917969 104.199219 " fill-opacity="1" fill-rule="nonzero"/></g></g></g></g><g mask="url(#21ea50265b)"><g transform="matrix(1, 0, 0, 1, 298, 115)"><g clip-path="url(#a6256a5684)"><g clip-path="url(#058dcd17ba)"><path fill="#a9cbc7" d="M 15.917969 1.617188 C 10.882812 0.617188 5.777344 0.296875 0.929688 1.617188 Z M 15.917969 1.617188 " fill-opacity="1" fill-rule="nonzero"/></g></g></g></g><g mask="url(#2faa5cd377)"><g transform="matrix(1, 0, 0, 1, 240, 115)"><g clip-path="url(#fed975b939)"><g clip-path="url(#90dc157d72)"><path fill="#a9cbc7" d="M 0.71875 1.617188 L 15.292969 1.617188 C 11.679688 0.785156 8.03125 0.359375 4.339844 0.894531 C 3.109375 1.070312 1.90625 1.324219 0.714844 1.617188 Z M 0.71875 1.617188 " fill-opacity="1" fill-rule="nonzero"/></g></g></g></g><g mask="url(#2025884582)"><g transform="matrix(1, 0, 0, 1, 178, 115)"><g clip-path="url(#4bd3e9263e)"><g clip-path="url(#4c51aa71c2)"><path fill="#a9cbc7" d="M 1.769531 1.617188 L 15.832031 1.617188 C 13.019531 1.058594 10.179688 0.738281 7.28125 0.894531 C 5.398438 0.992188 3.570312 1.257812 1.769531 1.617188 Z M 1.769531 1.617188 " fill-opacity="1" fill-rule="nonzero"/></g></g></g></g><g mask="url(#f3be6883a2)"><g transform="matrix(1, 0, 0, 1, 348, 115)"><g clip-path="url(#f0560b1865)"><g clip-path="url(#b075feed55)"><path fill="#a9cbc7" d="M 1.417969 1.617188 L 10.207031 1.617188 C 7.726562 0.945312 5.089844 0.84375 2.570312 1.328125 C 2.160156 1.410156 1.78125 1.507812 1.417969 1.617188 Z M 1.417969 1.617188 " fill-opacity="1" fill-rule="nonzero"/></g></g></g></g><g mask="url(#2892ecfc37)"><g transform="matrix(1, 0, 0, 1, 176, 247)"><g clip-path="url(#c66f34ac90)"><g clip-path="url(#f532e9aeeb)"><path fill="#a9cbc7" d="M 1.351562 0.222656 C 2.984375 0.480469 4.605469 0.828125 6.222656 1.222656 L 44.382812 1.222656 C 46.109375 0.707031 47.898438 0.347656 49.824219 0.332031 C 51.941406 0.3125 54 0.675781 56.027344 1.222656 L 96.507812 1.222656 C 98.425781 0.769531 100.335938 0.410156 102.234375 0.222656 Z M 1.351562 0.222656 " fill-opacity="1" fill-rule="nonzero"/></g></g></g></g><g mask="url(#5bf04cfc4b)"><g transform="matrix(1, 0, 0, 1, 283, 247)"><g clip-path="url(#98997ae5ba)"><g clip-path="url(#bf88278447)"><path fill="#a9cbc7" d="M 6.9375 1.222656 L 83.558594 1.222656 C 83.742188 0.898438 83.90625 0.566406 84.046875 0.222656 L 0.90625 0.222656 C 2.9375 0.410156 4.941406 0.777344 6.9375 1.222656 Z M 6.9375 1.222656 " fill-opacity="1" fill-rule="nonzero"/></g></g></g></g><g mask="url(#02ab8dc21f)"><g transform="matrix(1, 0, 0, 1, 121, 115)"><g clip-path="url(#5267fe274f)"><g clip-path="url(#bf5f82278c)"><path fill="#a9cbc7" d="M 16.226562 1.617188 C 11.070312 0.828125 5.898438 0.835938 0.875 1.617188 Z M 16.226562 1.617188 " fill-opacity="1" fill-rule="nonzero"/></g></g></g></g><g mask="url(#e2dfe80c32)"><g transform="matrix(1, 0, 0, 1, 8, 211)"><g clip-path="url(#294982efd2)"><g clip-path="url(#fd51b99364)"><path fill="#a9cbc7" d="M 357.074219 0.535156 L 1.59375 0.535156 C 1.710938 0.871094 1.828125 1.203125 1.957031 1.539062 L 356.449219 1.539062 C 356.65625 1.203125 356.867188 0.871094 357.074219 0.535156 Z M 357.074219 0.535156 " fill-opacity="1" fill-rule="nonzero"/></g></g></g></g><g mask="url(#99a125119a)"><g transform="matrix(1, 0, 0, 1, 8, 202)"><g clip-path="url(#5204634478)"><g clip-path="url(#9813deda3e)"><path fill="#a9cbc7" d="M 359.320312 2.355469 C 359.296875 2.019531 359.253906 1.6875 359.195312 1.355469 L 0.976562 1.355469 C 0.910156 1.6875 0.855469 2.019531 0.808594 2.355469 Z M 359.320312 2.355469 " fill-opacity="1" fill-rule="nonzero"/></g></g></g></g><g mask="url(#d8c55b194b)"><g transform="matrix(1, 0, 0, 1, 11, 247)"><g clip-path="url(#6e62e17a60)"><g clip-path="url(#fb5395dccd)"><path fill="#a9cbc7" d="M 50.160156 1.222656 C 53.152344 0.910156 56.136719 0.863281 59.082031 1.222656 L 99.996094 1.222656 C 101.40625 0.855469 102.835938 0.566406 104.300781 0.421875 C 107.101562 0.148438 109.84375 0.539062 112.566406 1.222656 L 151.886719 1.222656 C 153.253906 0.824219 154.621094 0.480469 156 0.222656 L 0.519531 0.222656 C 0.636719 0.558594 0.769531 0.890625 0.917969 1.222656 Z M 50.160156 1.222656 " fill-opacity="1" fill-rule="nonzero"/></g></g></g></g><g mask="url(#a7fa56b710)"><g transform="matrix(1, 0, 0, 1, 8, 167)"><g clip-path="url(#88c2fe9e3d)"><g clip-path="url(#74f970160e)"><path fill="#a9cbc7" d="M 358.984375 0.667969 L 1.425781 0.667969 C 1.34375 1 1.277344 1.335938 1.222656 1.667969 L 359.3125 1.667969 C 359.207031 1.335938 359.097656 1 358.984375 0.667969 Z M 358.984375 0.667969 " fill-opacity="1" fill-rule="nonzero"/></g></g></g></g><g mask="url(#6de8cc67d9)"><g transform="matrix(1, 0, 0, 1, 57, 115)"><g clip-path="url(#7b847abf07)"><g clip-path="url(#c9faf7c24e)"><path fill="#a9cbc7" d="M 0.335938 1.617188 L 20.441406 1.617188 C 15.914062 0.613281 10.714844 0.847656 6.292969 0.894531 C 4.226562 0.914062 2.257812 1.203125 0.335938 1.617188 Z M 0.335938 1.617188 " fill-opacity="1" fill-rule="nonzero"/></g></g></g></g><g mask="url(#10d1ce37e3)"><g transform="matrix(1, 0, 0, 1, 10, 123)"><g clip-path="url(#1b06c2f7ea)"><g clip-path="url(#9d1450258a)"><path fill="#a9cbc7" d="M 357.253906 0.800781 L 1.628906 0.800781 C 1.46875 1.125 1.320312 1.460938 1.183594 1.800781 L 357.625 1.800781 C 357.523438 1.460938 357.394531 1.128906 357.253906 0.800781 Z M 357.253906 0.800781 " fill-opacity="1" fill-rule="nonzero"/></g></g></g></g><g mask="url(#3d0186baf0)"><g transform="matrix(1, 0, 0, 1, 12, 158)"><g clip-path="url(#aee7f51b97)"><g clip-path="url(#a007b573a4)"><path fill="#a9cbc7" d="M 352.527344 2.488281 C 352.433594 2.15625 352.335938 1.824219 352.25 1.484375 L 0.695312 1.484375 C 0.558594 1.820312 0.421875 2.15625 0.277344 2.488281 Z M 352.527344 2.488281 " fill-opacity="1" fill-rule="nonzero"/></g></g></g></g><g mask="url(#2d193e0a49)"><g transform="matrix(1, 0, 0, 1, 8, 130)"><g clip-path="url(#ccdf2c5dd3)"><path fill="#a9cbc7" d="M 356.921875 66.980469 C 356.0625 64.992188 355.28125 62.988281 355.171875 60.859375 C 354.855469 54.757812 359.808594 50.96875 360.246094 45.046875 L 2.164062 45.046875 C 3.382812 47.851562 5.277344 50.46875 5.925781 53.480469 C 6.917969 58.082031 4.882812 62.496094 3.0625 66.980469 Z M 356.921875 66.980469 " fill-opacity="1" fill-rule="nonzero"/><path fill="#a9cbc7" d="M 359.933594 110.847656 C 359.898438 110.382812 359.84375 109.921875 359.773438 109.464844 C 359.226562 105.960938 357.828125 102.65625 356.769531 99.273438 C 355.933594 96.609375 354.417969 92.359375 354.3125 88.914062 L 4.792969 88.914062 C 4.835938 89.007812 4.878906 89.101562 4.917969 89.199219 C 7.933594 96.273438 3.644531 103.691406 2.910156 110.847656 Z M 359.933594 110.847656 " fill-opacity="1" fill-rule="nonzero"/><path fill="#a9cbc7" d="M 355.320312 19.738281 C 355.867188 15.09375 356.953125 11.070312 358.484375 6.636719 C 359.09375 4.882812 359.625 3.03125 359.914062 1.175781 L 1.71875 1.175781 C 1.4375 4.566406 1.828125 8.019531 2.789062 10.878906 C 4.132812 14.882812 5.890625 18.964844 5.984375 23.109375 L 355.222656 23.109375 C 355.167969 21.972656 355.191406 20.84375 355.320312 19.738281 Z M 355.320312 19.738281 " fill-opacity="1" fill-rule="nonzero"/></g></g></g><g mask="url(#2c3c7222e6)"><g transform="matrix(1, 0, 0, 1, 23, 115)"><g clip-path="url(#45ee76cbe1)"><g clip-path="url(#0311c0e098)"><path fill="#a9cbc7" d="M 242.199219 4.542969 C 235.339844 2.359375 228.425781 -0.128906 221.339844 0.894531 C 220.980469 0.945312 220.621094 1.007812 220.265625 1.074219 L 220.265625 137.007812 C 221.351562 137.324219 222.449219 137.601562 223.558594 137.796875 C 229.652344 138.875 235.925781 137.097656 242.199219 135.246094 Z M 242.199219 4.542969 " fill-opacity="1" fill-rule="nonzero"/></g><path fill="#a9cbc7" d="M 198.332031 6.988281 C 190.828125 7.722656 183.664062 5.039062 176.394531 2.988281 L 176.394531 137.375 C 180.074219 137.832031 183.816406 137.800781 187.378906 136.824219 C 191.191406 135.78125 194.585938 133.925781 198.332031 132.960938 Z M 198.332031 6.988281 " fill-opacity="1" fill-rule="nonzero"/><path fill="#a9cbc7" d="M 329.9375 1.0625 C 329.140625 1.101562 328.351562 1.179688 327.570312 1.328125 C 325.644531 1.699219 324.289062 2.453125 322.667969 3.417969 C 320.859375 4.496094 318.414062 5.109375 316.335938 5.398438 C 313.609375 5.777344 310.792969 5.816406 308.003906 5.558594 L 308.003906 134.707031 C 308.472656 134.640625 308.949219 134.59375 309.4375 134.605469 C 312.234375 134.664062 315.222656 134.902344 317.964844 135.4375 C 321.992188 136.226562 325.878906 137.710938 329.9375 138.289062 Z M 329.9375 1.0625 " fill-opacity="1" fill-rule="nonzero"/><path fill="#a9cbc7" d="M 110.59375 1.1875 C 103.0625 0.582031 95.585938 1.664062 88.660156 4.367188 L 88.660156 133.058594 C 89.855469 132.769531 91.066406 132.542969 92.300781 132.421875 C 98.550781 131.808594 104.511719 134.5 110.59375 136.433594 Z M 110.59375 1.1875 " fill-opacity="1" fill-rule="nonzero"/><g clip-path="url(#2a5b16c531)"><path fill="#a9cbc7" d="M 286.066406 137.296875 L 286.066406 0.898438 C 282.542969 0.570312 279.03125 0.71875 275.652344 1.6875 C 271.398438 2.90625 268.117188 4.542969 264.132812 5.910156 L 264.132812 132.660156 C 270.183594 133.710938 276.09375 135.914062 282.3125 136.824219 C 283.554688 137.003906 284.808594 137.164062 286.066406 137.292969 Z M 286.066406 137.296875 " fill-opacity="1" fill-rule="nonzero"/></g><path fill="#a9cbc7" d="M 148.210938 131.765625 C 150.316406 131.71875 152.394531 131.910156 154.460938 132.242188 L 154.460938 2.136719 C 147.355469 3.863281 140.640625 6.6875 133.097656 6.34375 C 132.90625 6.335938 132.71875 6.316406 132.527344 6.304688 L 132.527344 135.671875 C 137.710938 133.910156 142.882812 131.878906 148.210938 131.765625 Z M 148.210938 131.765625 " fill-opacity="1" fill-rule="nonzero"/><g clip-path="url(#e53834864a)"><path fill="#a9cbc7" d="M 51.300781 134.039062 C 56.503906 135.46875 61.351562 138.449219 66.726562 138.757812 L 66.726562 6.042969 C 63.609375 5.082031 60.574219 3.835938 57.71875 2.636719 C 53.917969 1.039062 49.222656 0.820312 44.789062 0.835938 L 44.789062 133.027344 C 46.980469 133.140625 49.152344 133.449219 51.300781 134.039062 Z M 51.300781 134.039062 " fill-opacity="1" fill-rule="nonzero"/></g><g clip-path="url(#ae96267d2a)"><path fill="#a9cbc7" d="M 22.855469 4.527344 C 20.585938 4.953125 18.253906 5.179688 15.769531 4.960938 C 10.953125 4.539062 5.777344 2.226562 0.921875 1.769531 L 0.921875 138.621094 C 1.683594 138.699219 2.394531 138.757812 3.007812 138.792969 C 9.105469 139.179688 15.21875 138.0625 21.128906 136.664062 C 21.703125 136.53125 22.277344 136.390625 22.855469 136.253906 Z M 22.855469 4.527344 " fill-opacity="1" fill-rule="nonzero"/></g></g></g></g><path fill="#e8e8e8" d="M 343.304688 140.808594 L 343.304688 119.480469 C 342.429688 119.777344 341.519531 120.003906 340.636719 120.175781 L 340.636719 140.808594 L 299.4375 140.808594 L 299.4375 116.492188 C 299.175781 116.554688 298.914062 116.613281 298.652344 116.6875 C 298.003906 116.875 297.375 117.070312 296.765625 117.273438 L 296.765625 140.808594 L 255.566406 140.808594 L 255.566406 116.683594 C 254.679688 116.472656 253.789062 116.289062 252.898438 116.132812 L 252.898438 140.808594 L 211.699219 140.808594 L 211.699219 121.34375 C 210.804688 121.164062 209.917969 120.957031 209.027344 120.734375 L 209.027344 140.808594 L 167.828125 140.808594 L 167.828125 119.785156 C 166.941406 120.015625 166.054688 120.238281 165.160156 120.433594 L 165.160156 140.808594 L 123.960938 140.808594 L 123.960938 116.339844 C 123.066406 116.441406 122.175781 116.5625 121.292969 116.710938 L 121.292969 140.808594 L 80.09375 140.808594 L 80.09375 117.394531 C 79.238281 117.078125 78.34375 116.820312 77.421875 116.613281 L 77.421875 140.808594 L 36.222656 140.808594 L 36.222656 119.585938 C 35.339844 119.414062 34.449219 119.199219 33.554688 118.96875 L 33.554688 140.808594 L 10.765625 140.808594 C 10.773438 140.832031 10.78125 140.855469 10.789062 140.878906 C 11.078125 141.742188 11.386719 142.609375 11.695312 143.480469 L 33.554688 143.480469 L 33.554688 184.679688 L 14.113281 184.679688 C 14.207031 185.574219 14.199219 186.460938 14.109375 187.347656 L 33.554688 187.347656 L 33.554688 228.546875 L 13.601562 228.546875 C 13.445312 229.4375 13.25 230.324219 13.035156 231.214844 L 33.554688 231.214844 L 33.554688 253.578125 C 34.445312 253.484375 35.335938 253.367188 36.222656 253.234375 L 36.222656 231.214844 L 77.421875 231.214844 L 77.421875 250.0625 C 78.316406 250.394531 79.203125 250.746094 80.09375 251.097656 L 80.09375 231.214844 L 121.292969 231.214844 L 121.292969 247.730469 C 122.183594 247.890625 123.074219 248.09375 123.960938 248.328125 L 123.960938 231.214844 L 165.160156 231.214844 L 165.160156 247.617188 C 166.046875 247.402344 166.9375 247.222656 167.828125 247.082031 L 167.828125 231.214844 L 209.027344 231.214844 L 209.027344 252.144531 C 209.480469 252.050781 209.933594 251.949219 210.378906 251.824219 C 210.824219 251.703125 211.261719 251.566406 211.699219 251.425781 L 211.699219 231.214844 L 252.898438 231.214844 L 252.898438 253.007812 C 253.785156 252.925781 254.675781 252.8125 255.566406 252.664062 L 255.566406 231.214844 L 296.765625 231.214844 L 296.765625 249.953125 C 297.652344 250.1875 298.542969 250.414062 299.4375 250.632812 L 299.4375 231.214844 L 340.636719 231.214844 L 340.636719 250.382812 C 340.742188 250.402344 340.859375 250.417969 340.964844 250.4375 C 341.75 250.59375 342.527344 250.777344 343.304688 250.972656 L 343.304688 231.214844 L 365.410156 231.214844 C 365.191406 230.570312 364.972656 229.921875 364.769531 229.273438 C 364.695312 229.042969 364.617188 228.800781 364.535156 228.546875 L 343.304688 228.546875 L 343.304688 187.347656 L 363.570312 187.347656 C 363.820312 186.425781 364.160156 185.539062 364.554688 184.679688 L 343.304688 184.679688 L 343.304688 143.480469 L 364.449219 143.480469 C 364.664062 142.585938 364.902344 141.699219 365.15625 140.808594 Z M 77.421875 228.546875 L 36.222656 228.546875 L 36.222656 187.347656 L 77.421875 187.347656 Z M 77.421875 184.675781 L 36.222656 184.675781 L 36.222656 143.476562 L 77.421875 143.476562 Z M 121.292969 228.546875 L 80.09375 228.546875 L 80.09375 187.347656 L 121.292969 187.347656 Z M 121.292969 184.675781 L 80.09375 184.675781 L 80.09375 143.476562 L 121.292969 143.476562 Z M 165.160156 228.546875 L 123.960938 228.546875 L 123.960938 187.347656 L 165.160156 187.347656 Z M 165.160156 184.675781 L 123.960938 184.675781 L 123.960938 143.476562 L 165.160156 143.476562 Z M 209.027344 228.546875 L 167.828125 228.546875 L 167.828125 187.347656 L 209.027344 187.347656 Z M 209.027344 184.675781 L 167.828125 184.675781 L 167.828125 143.476562 L 209.027344 143.476562 Z M 252.898438 228.546875 L 211.699219 228.546875 L 211.699219 187.347656 L 252.898438 187.347656 Z M 252.898438 184.675781 L 211.699219 184.675781 L 211.699219 143.476562 L 252.898438 143.476562 Z M 296.765625 228.546875 L 255.566406 228.546875 L 255.566406 187.347656 L 296.765625 187.347656 Z M 296.765625 184.675781 L 255.566406 184.675781 L 255.566406 143.476562 L 296.765625 143.476562 Z M 340.632812 228.546875 L 299.433594 228.546875 L 299.433594 187.347656 L 340.632812 187.347656 Z M 340.632812 184.675781 L 299.433594 184.675781 L 299.433594 143.476562 L 340.632812 143.476562 Z M 340.632812 184.675781 " fill-opacity="1" fill-rule="nonzero"/><path fill="#e8e8e8" d="M 66.074219 135.960938 C 111.707031 135.199219 319.230469 133.816406 328.03125 138.671875 C 343.691406 147.316406 342.269531 218.988281 326.605469 226.105469 C 300.671875 237.890625 60.851562 236.273438 47.800781 226.105469 C 34.753906 215.9375 29.046875 136.582031 66.074219 135.960938 Z M 66.074219 135.960938 " fill-opacity="1" fill-rule="nonzero"/><path fill="#000000" d="M 190.28125 235.371094 C 155.296875 235.371094 120.203125 234.566406 93.628906 233.078125 C 93.074219 233.046875 92.652344 232.574219 92.683594 232.019531 C 92.714844 231.46875 93.1875 231.0625 93.738281 231.078125 C 167.246094 235.195312 307.097656 233.871094 326.195312 225.195312 C 332.441406 222.355469 337.175781 206.636719 337.976562 186.085938 C 338.746094 166.246094 335.414062 143.890625 327.546875 139.550781 C 326.265625 138.84375 317.777344 137.542969 275.351562 136.789062 C 274.800781 136.777344 274.359375 136.324219 274.367188 135.769531 C 274.378906 135.222656 274.824219 134.785156 275.367188 134.785156 L 275.386719 134.785156 C 319.539062 135.570312 326.855469 136.882812 328.515625 137.796875 C 337.539062 142.777344 340.773438 165.675781 339.976562 186.164062 C 339.308594 203.371094 335.554688 223.140625 327.023438 227.015625 C 314.246094 232.820312 252.457031 235.371094 190.28125 235.371094 Z M 190.28125 235.371094 " fill-opacity="1" fill-rule="nonzero"/><path fill="#000000" d="M 87.269531 232.695312 C 87.246094 232.695312 87.226562 232.695312 87.203125 232.691406 C 63.664062 231.191406 50.199219 229.238281 47.1875 226.894531 C 37.730469 219.527344 32.8125 181.613281 40.933594 157.320312 C 45.757812 142.886719 54.445312 135.15625 66.054688 134.960938 C 96.167969 134.457031 200.789062 133.632812 269.117188 134.683594 C 269.667969 134.691406 270.109375 135.144531 270.101562 135.699219 C 270.089844 136.25 269.664062 136.695312 269.082031 136.683594 C 200.78125 135.632812 96.195312 136.457031 66.089844 136.960938 C 52.589844 137.1875 45.988281 148.503906 42.832031 157.957031 C 34.542969 182.75 40.425781 219.089844 48.414062 225.3125 C 49.929688 226.492188 56.996094 228.757812 87.328125 230.695312 C 87.878906 230.730469 88.300781 231.203125 88.265625 231.757812 C 88.230469 232.285156 87.789062 232.695312 87.265625 232.695312 Z M 87.269531 232.695312 " fill-opacity="1" fill-rule="nonzero"/><path fill="#000000" d="M 90.769531 254.792969 C 90.492188 254.792969 90.21875 254.789062 89.941406 254.777344 C 86.292969 254.625 82.894531 253.285156 79.613281 251.984375 C 77.792969 251.261719 75.910156 250.519531 74.035156 250.003906 C 66 247.796875 57.71875 249.441406 48.503906 251.644531 C 47.96875 251.773438 47.425781 251.441406 47.296875 250.90625 C 47.167969 250.367188 47.5 249.828125 48.039062 249.699219 C 57.527344 247.429688 66.074219 245.742188 74.566406 248.074219 C 76.546875 248.617188 78.480469 249.382812 80.347656 250.121094 C 83.621094 251.417969 86.710938 252.640625 90.023438 252.777344 C 94.710938 252.964844 99.015625 251.355469 103.574219 249.652344 C 107.28125 248.261719 111.113281 246.828125 115.203125 246.425781 C 120.484375 245.910156 125.558594 247.648438 130.464844 249.332031 C 134.1875 250.609375 138.035156 251.929688 141.878906 252.210938 C 146.972656 252.589844 151.886719 250.878906 157.09375 249.074219 C 161.644531 247.5 166.355469 245.867188 171.191406 245.761719 C 176.980469 245.632812 182.617188 247.226562 188.066406 248.761719 C 189.949219 249.292969 191.894531 249.84375 193.808594 250.308594 C 200.433594 251.917969 205.617188 252.09375 210.113281 250.859375 C 211.917969 250.363281 213.675781 249.664062 215.375 248.984375 C 218.601562 247.699219 221.9375 246.363281 225.816406 246.328125 C 230.191406 246.304688 234.335938 247.804688 238.332031 249.273438 C 241.066406 250.273438 243.894531 251.3125 246.734375 251.8125 C 252.757812 252.875 259.195312 250.976562 265.421875 249.140625 C 269.820312 247.839844 274.363281 246.5 278.820312 246.164062 C 284.691406 245.71875 290.324219 247.210938 295.769531 248.65625 C 298.921875 249.492188 302.179688 250.355469 305.457031 250.832031 C 310.378906 251.554688 317.71875 252.304688 324.59375 250.53125 C 325.386719 250.324219 326.1875 250.046875 326.964844 249.777344 C 328.679688 249.179688 330.460938 248.570312 332.460938 248.605469 C 335.675781 248.671875 338.605469 248.957031 341.15625 249.453125 C 342.957031 249.804688 344.734375 250.300781 346.457031 250.777344 C 348.859375 251.441406 351.339844 252.128906 353.816406 252.402344 C 354.363281 252.464844 354.761719 252.960938 354.699219 253.511719 C 354.636719 254.058594 354.132812 254.460938 353.59375 254.394531 C 350.960938 254.101562 348.398438 253.390625 345.921875 252.703125 C 344.238281 252.238281 342.496094 251.757812 340.773438 251.417969 C 338.332031 250.941406 335.523438 250.667969 332.417969 250.605469 C 330.757812 250.550781 329.242188 251.105469 327.621094 251.667969 C 326.808594 251.953125 325.96875 252.242188 325.09375 252.46875 C 317.867188 254.335938 310.261719 253.558594 305.167969 252.8125 C 301.78125 252.316406 298.464844 251.4375 295.257812 250.589844 C 289.730469 249.125 284.507812 247.738281 278.96875 248.160156 C 274.726562 248.480469 270.285156 249.789062 265.988281 251.058594 C 259.539062 252.960938 252.871094 254.925781 246.386719 253.785156 C 243.371094 253.253906 240.457031 252.183594 237.644531 251.152344 C 233.640625 249.683594 229.855469 248.28125 225.835938 248.332031 C 222.328125 248.363281 219.3125 249.566406 216.117188 250.84375 C 214.367188 251.542969 212.554688 252.265625 210.644531 252.789062 C 205.804688 254.117188 200.304688 253.945312 193.335938 252.253906 C 191.386719 251.777344 189.421875 251.222656 187.523438 250.6875 C 182.214844 249.191406 176.730469 247.636719 171.234375 247.765625 C 166.710938 247.863281 162.15625 249.441406 157.75 250.964844 C 152.582031 252.757812 147.238281 254.609375 141.734375 254.207031 C 137.628906 253.90625 133.65625 252.542969 129.816406 251.226562 C 124.894531 249.539062 120.25 247.945312 115.398438 248.417969 C 111.570312 248.792969 107.863281 250.183594 104.273438 251.523438 C 99.976562 253.132812 95.539062 254.792969 90.769531 254.792969 Z M 90.769531 254.792969 " fill-opacity="1" fill-rule="nonzero"/><path fill="#000000" d="M 367.902344 241.480469 C 367.390625 241.480469 366.957031 241.09375 366.90625 240.578125 C 366.875 240.253906 366.832031 239.9375 366.785156 239.617188 C 366.40625 237.195312 365.578125 234.789062 364.777344 232.460938 C 364.449219 231.5 364.117188 230.539062 363.8125 229.570312 C 363.707031 229.226562 363.585938 228.851562 363.457031 228.457031 C 362.28125 224.808594 360.503906 219.289062 361.699219 215.765625 C 362.242188 214.167969 363.097656 212.800781 363.925781 211.480469 C 365.128906 209.566406 366.261719 207.757812 366.347656 205.40625 C 366.441406 202.953125 365.425781 200.632812 364.351562 198.179688 C 363.347656 195.882812 362.308594 193.507812 362.171875 190.90625 C 361.992188 187.375 363.421875 184.597656 364.804688 181.914062 C 365.996094 179.605469 367.121094 177.421875 367.265625 174.792969 C 367.4375 171.726562 366.355469 168.800781 365.210938 165.699219 C 364.886719 164.824219 364.566406 163.949219 364.269531 163.074219 C 362.871094 158.882812 362.1875 155.265625 362.191406 152.019531 C 362.191406 151.46875 362.636719 151.019531 363.191406 151.019531 C 363.746094 151.019531 364.191406 151.46875 364.191406 152.019531 C 364.191406 155.046875 364.839844 158.457031 366.167969 162.4375 C 366.457031 163.296875 366.773438 164.152344 367.089844 165.007812 C 368.253906 168.164062 369.460938 171.425781 369.265625 174.90625 C 369.09375 177.960938 367.816406 180.4375 366.585938 182.832031 C 365.265625 185.394531 364.019531 187.8125 364.171875 190.804688 C 364.289062 193.039062 365.210938 195.144531 366.1875 197.378906 C 367.300781 199.933594 368.457031 202.570312 368.351562 205.484375 C 368.242188 208.371094 366.910156 210.492188 365.621094 212.546875 C 364.820312 213.824219 364.0625 215.035156 363.59375 216.410156 C 362.613281 219.308594 364.265625 224.445312 365.363281 227.84375 C 365.492188 228.246094 365.613281 228.625 365.722656 228.972656 C 366.019531 229.921875 366.347656 230.867188 366.671875 231.8125 C 367.5 234.222656 368.355469 236.714844 368.761719 239.3125 C 368.816406 239.664062 368.863281 240.019531 368.898438 240.378906 C 368.953125 240.929688 368.550781 241.421875 368 241.472656 C 367.96875 241.476562 367.933594 241.480469 367.898438 241.480469 Z M 367.902344 241.480469 " fill-opacity="1" fill-rule="nonzero"/><path fill="#000000" d="M 365.578125 140.390625 C 365.480469 140.390625 365.378906 140.378906 365.28125 140.347656 C 364.753906 140.183594 364.457031 139.621094 364.621094 139.09375 C 364.894531 138.214844 365.195312 137.304688 365.539062 136.3125 C 366.839844 132.550781 368.085938 127.730469 366.148438 123.765625 C 365.277344 121.976562 363.734375 120.386719 361.691406 119.164062 C 359.265625 117.710938 356.433594 116.972656 353.464844 117.027344 C 352.929688 117.023438 352.453125 116.601562 352.445312 116.046875 C 352.433594 115.496094 352.871094 115.039062 353.425781 115.027344 C 356.726562 114.964844 359.972656 115.800781 362.722656 117.445312 C 365.097656 118.867188 366.90625 120.75 367.949219 122.886719 C 370.207031 127.511719 368.859375 132.839844 367.433594 136.964844 C 367.09375 137.941406 366.800781 138.828125 366.535156 139.6875 C 366.402344 140.117188 366.003906 140.390625 365.578125 140.390625 Z M 365.578125 140.390625 " fill-opacity="1" fill-rule="nonzero"/><path fill="#000000" d="M 99.59375 123.75 C 92.679688 123.75 85.804688 120.859375 80.332031 118.558594 C 75.910156 116.699219 70.113281 116.792969 65.003906 116.871094 C 64.425781 116.878906 63.859375 116.886719 63.304688 116.894531 C 59.457031 116.933594 55.839844 117.957031 52.339844 118.941406 C 48.070312 120.148438 43.65625 121.394531 38.683594 120.957031 C 36.167969 120.738281 33.5625 120.023438 31.042969 119.328125 C 29.109375 118.796875 27.105469 118.246094 25.207031 117.941406 C 24.660156 117.855469 24.289062 117.34375 24.375 116.796875 C 24.464844 116.25 24.980469 115.878906 25.523438 115.964844 C 27.53125 116.289062 29.585938 116.851562 31.574219 117.398438 C 34.007812 118.066406 36.523438 118.761719 38.855469 118.964844 C 43.464844 119.371094 47.511719 118.226562 51.796875 117.015625 C 55.421875 115.996094 59.167969 114.9375 63.285156 114.890625 C 63.835938 114.886719 64.398438 114.878906 64.972656 114.867188 C 70.28125 114.785156 76.296875 114.691406 81.109375 116.714844 C 88.640625 119.878906 98.957031 124.21875 107.773438 119.964844 C 117.699219 115.171875 128.796875 113.824219 139.867188 116.066406 C 142.179688 116.535156 144.4375 117.304688 146.621094 118.050781 C 149.855469 119.15625 152.914062 120.199219 156.144531 120.34375 C 161.546875 120.589844 166.457031 119.175781 171.65625 117.679688 C 175.976562 116.433594 180.445312 115.148438 185.230469 114.894531 C 191.433594 114.570312 197.390625 116.332031 203.152344 118.042969 C 209.570312 119.949219 215.632812 121.75 222.023438 120.910156 C 225.859375 120.40625 229.546875 119.144531 233.109375 117.925781 C 236.644531 116.714844 240.300781 115.464844 244.195312 114.902344 C 250.988281 113.921875 257.585938 116.046875 263.972656 118.097656 C 271.210938 120.425781 278.046875 122.625 284.964844 120.558594 C 287.292969 119.863281 289.371094 119.03125 291.382812 118.226562 C 293.554688 117.359375 295.804688 116.464844 298.378906 115.726562 C 302.242188 114.621094 306.550781 114.445312 311.5625 115.191406 C 312.109375 115.273438 312.484375 115.78125 312.402344 116.328125 C 312.320312 116.875 311.816406 117.257812 311.265625 117.171875 C 306.546875 116.46875 302.511719 116.625 298.929688 117.652344 C 296.449219 118.359375 294.351562 119.199219 292.125 120.085938 C 290.074219 120.90625 287.953125 121.753906 285.539062 122.476562 C 278.019531 124.71875 270.566406 122.320312 263.359375 120.003906 C 257.191406 118.019531 250.8125 115.972656 244.484375 116.882812 C 240.773438 117.417969 237.207031 118.640625 233.757812 119.820312 C 230.101562 121.070312 226.320312 122.367188 222.28125 122.894531 C 215.46875 123.785156 208.917969 121.84375 202.582031 119.960938 C 196.984375 118.300781 191.1875 116.582031 185.335938 116.894531 C 180.78125 117.136719 176.425781 118.390625 172.210938 119.601562 C 167.085938 121.078125 161.789062 122.613281 156.050781 122.34375 C 152.535156 122.183594 149.199219 121.046875 145.972656 119.945312 C 143.851562 119.21875 141.65625 118.46875 139.46875 118.027344 C 128.832031 115.875 118.171875 117.167969 108.640625 121.769531 C 105.699219 123.191406 102.640625 123.75 99.59375 123.75 Z M 99.59375 123.75 " fill-opacity="1" fill-rule="nonzero"/><path fill="#000000" d="M 13.519531 150.445312 C 13.0625 150.445312 12.648438 150.125 12.542969 149.660156 C 12.09375 147.601562 11.351562 145.507812 10.636719 143.484375 C 10.363281 142.71875 10.09375 141.957031 9.839844 141.199219 C 7.777344 135.058594 8.066406 125.929688 12.609375 120.359375 C 13.621094 119.117188 14.746094 118.113281 15.953125 117.375 C 16.429688 117.089844 17.042969 117.238281 17.332031 117.710938 C 17.621094 118.183594 17.472656 118.796875 17 119.085938 C 15.984375 119.703125 15.027344 120.558594 14.160156 121.625 C 10.121094 126.582031 9.898438 135.082031 11.738281 140.5625 C 11.988281 141.3125 12.253906 142.0625 12.523438 142.816406 C 13.261719 144.898438 14.023438 147.050781 14.5 149.230469 C 14.617188 149.769531 14.277344 150.304688 13.738281 150.421875 C 13.664062 150.4375 13.59375 150.445312 13.523438 150.445312 Z M 13.519531 150.445312 " fill-opacity="1" fill-rule="nonzero"/><path fill="#000000" d="M 9.59375 212.539062 C 9.175781 212.539062 8.789062 212.277344 8.644531 211.859375 C 8.054688 210.125 7.738281 208.539062 7.667969 207.019531 C 7.496094 203.035156 9.035156 199.277344 10.527344 195.644531 C 12.210938 191.539062 13.800781 187.660156 12.945312 183.691406 C 12.554688 181.863281 11.65625 180.175781 10.710938 178.394531 C 9.558594 176.226562 8.371094 173.984375 8.121094 171.421875 C 7.785156 167.972656 9.203125 164.855469 10.578125 161.839844 C 11 160.90625 11.441406 159.941406 11.816406 158.988281 C 12.019531 158.472656 12.601562 158.222656 13.113281 158.421875 C 13.628906 158.625 13.882812 159.207031 13.679688 159.722656 C 13.285156 160.722656 12.835938 161.710938 12.398438 162.667969 C 11.078125 165.574219 9.828125 168.3125 10.113281 171.226562 C 10.324219 173.394531 11.371094 175.367188 12.476562 177.453125 C 13.449219 179.277344 14.453125 181.167969 14.902344 183.269531 C 15.890625 187.84375 14.105469 192.195312 12.378906 196.402344 C 10.972656 199.835938 9.515625 203.386719 9.667969 206.929688 C 9.726562 208.257812 10.011719 209.660156 10.542969 211.214844 C 10.71875 211.738281 10.4375 212.308594 9.914062 212.484375 C 9.808594 212.519531 9.699219 212.539062 9.59375 212.539062 Z M 9.59375 212.539062 " fill-opacity="1" fill-rule="nonzero"/><path fill="#000000" d="M 11.117188 240.289062 C 11.066406 240.289062 11.007812 240.285156 10.953125 240.277344 C 10.410156 240.1875 10.039062 239.671875 10.128906 239.125 C 10.441406 237.253906 10.933594 235.359375 11.414062 233.527344 C 12.242188 230.363281 13.097656 227.09375 12.964844 223.988281 C 12.941406 223.4375 13.371094 222.96875 13.921875 222.945312 C 14.476562 222.925781 14.941406 223.351562 14.964844 223.902344 C 15.109375 227.308594 14.214844 230.730469 13.351562 234.035156 C 12.882812 235.824219 12.398438 237.675781 12.105469 239.453125 C 12.023438 239.941406 11.601562 240.289062 11.121094 240.289062 Z M 11.117188 240.289062 " fill-opacity="1" fill-rule="nonzero"/><path fill="#e8acac" d="M 189.609375 122.214844 C 196.546875 126.355469 205.050781 138.933594 204.042969 139.191406 C 203.039062 139.449219 201.125 138.929688 201.125 138.929688 C 201.125 138.929688 201.507812 141.3125 200.539062 141.386719 C 199.570312 141.464844 194.1875 129.445312 188.148438 123.3125 Z M 189.609375 122.214844 " fill-opacity="1" fill-rule="nonzero"/><path fill="#000000" d="M 200.496094 142.390625 C 199.597656 142.390625 199.058594 141.507812 196.75 137.53125 C 194.472656 133.601562 191.03125 127.667969 187.4375 124.015625 L 186.632812 123.203125 L 189.542969 121.007812 L 190.121094 121.355469 C 196.671875 125.265625 205.398438 137.265625 205.113281 139.230469 C 205.046875 139.691406 204.730469 140.046875 204.292969 140.160156 C 203.769531 140.292969 203.066406 140.296875 202.195312 140.167969 C 202.109375 142.054688 201.078125 142.347656 200.617188 142.382812 C 200.578125 142.386719 200.535156 142.390625 200.496094 142.390625 Z M 189.644531 123.441406 C 193.117188 127.273438 196.316406 132.789062 198.484375 136.527344 C 199.082031 137.558594 199.730469 138.675781 200.230469 139.472656 C 200.304688 139.105469 200.5 138.769531 200.792969 138.519531 C 201.179688 138.1875 201.6875 138.050781 202.1875 138.140625 C 202.394531 138.175781 202.578125 138.203125 202.738281 138.222656 C 201.136719 135.261719 194.992188 126.929688 189.660156 123.429688 Z M 189.644531 123.441406 " fill-opacity="1" fill-rule="nonzero"/><path fill="#e8acac" d="M 187.394531 122.164062 C 179.863281 125.097656 169.394531 136.089844 170.339844 136.507812 C 171.289062 136.929688 173.265625 136.738281 173.265625 136.738281 C 173.265625 136.738281 172.492188 139.019531 173.433594 139.257812 C 174.375 139.492188 181.679688 128.53125 188.652344 123.488281 Z M 187.394531 122.164062 " fill-opacity="1" fill-rule="nonzero"/><path fill="#000000" d="M 173.503906 140.269531 C 173.402344 140.269531 173.296875 140.253906 173.191406 140.230469 C 172.632812 140.089844 171.777344 139.585938 172.003906 137.78125 C 171.113281 137.761719 170.433594 137.648438 169.9375 137.425781 C 169.519531 137.242188 169.269531 136.835938 169.28125 136.371094 C 169.324219 134.386719 179.921875 124 187.03125 121.230469 L 187.660156 120.988281 L 190.164062 123.632812 L 189.238281 124.300781 C 185.085938 127.304688 180.707031 132.589844 177.808594 136.082031 C 175.09375 139.359375 174.308594 140.273438 173.503906 140.273438 Z M 172.367188 137.78125 Z M 172.363281 135.78125 C 172.863281 135.78125 173.335938 136 173.660156 136.382812 C 173.90625 136.679688 174.042969 137.042969 174.054688 137.421875 C 174.683594 136.71875 175.503906 135.726562 176.269531 134.804688 C 179.023438 131.480469 183.09375 126.574219 187.15625 123.367188 L 187.140625 123.351562 C 181.300781 125.917969 173.863281 133.117188 171.789062 135.769531 C 171.953125 135.777344 172.136719 135.785156 172.347656 135.78125 Z M 172.363281 135.78125 " fill-opacity="1" fill-rule="nonzero"/><path fill="#e8acac" d="M 189.933594 117.9375 C 193.339844 114.636719 201.695312 110.488281 206.585938 114.605469 C 211.480469 118.71875 209.125 127.753906 205.574219 129.554688 C 202.023438 131.351562 188.289062 123.253906 189.15625 121.238281 C 189.664062 120.066406 198.039062 125.539062 201.402344 124.664062 C 204.769531 123.785156 204.175781 117.46875 201.878906 117.457031 C 199.578125 117.445312 185.808594 121.933594 189.933594 117.9375 Z M 189.933594 117.9375 " fill-opacity="1" fill-rule="nonzero"/><path fill="#000000" d="M 204.273438 130.796875 C 199.949219 130.796875 192.234375 126.34375 189.570312 123.839844 C 188.769531 123.085938 187.757812 121.957031 188.238281 120.839844 C 188.347656 120.582031 188.542969 120.375 188.789062 120.242188 C 188.59375 120.113281 188.441406 119.945312 188.332031 119.742188 C 187.742188 118.664062 188.828125 117.613281 189.238281 117.21875 C 192.804688 113.761719 201.742188 109.222656 207.230469 113.839844 C 209.59375 115.824219 210.703125 119.078125 210.277344 122.757812 C 209.871094 126.273438 208.164062 129.363281 206.023438 130.445312 C 205.546875 130.6875 204.953125 130.796875 204.273438 130.796875 Z M 191.207031 122.632812 C 192.707031 123.929688 195.578125 125.808594 198.832031 127.253906 C 202.394531 128.839844 204.445312 129.003906 205.121094 128.660156 C 206.636719 127.894531 207.96875 125.3125 208.289062 122.527344 C 208.636719 119.527344 207.78125 116.917969 205.941406 115.371094 C 201.519531 111.648438 193.753906 115.679688 190.691406 118.597656 C 192.289062 118.496094 195.453125 117.761719 197.320312 117.328125 C 199.636719 116.789062 201.101562 116.457031 201.867188 116.457031 L 201.882812 116.457031 C 202.542969 116.457031 203.148438 116.746094 203.636719 117.285156 C 204.457031 118.1875 204.886719 119.820312 204.734375 121.4375 C 204.683594 121.988281 204.191406 122.394531 203.644531 122.34375 C 203.09375 122.292969 202.691406 121.804688 202.742188 121.253906 C 202.851562 120.078125 202.527344 119.042969 202.152344 118.628906 C 201.988281 118.449219 201.894531 118.457031 201.863281 118.457031 C 201.289062 118.457031 199.503906 118.875 197.773438 119.277344 C 194.917969 119.941406 192.839844 120.390625 191.355469 120.539062 C 191.96875 120.773438 192.710938 121.09375 193.625 121.496094 C 195.996094 122.53125 199.582031 124.101562 201.148438 123.695312 C 201.519531 123.597656 201.820312 123.402344 202.074219 123.097656 C 202.425781 122.671875 203.054688 122.609375 203.484375 122.960938 C 203.910156 123.3125 203.96875 123.941406 203.617188 124.367188 C 203.097656 125.003906 202.4375 125.425781 201.65625 125.628906 C 199.417969 126.21875 195.914062 124.679688 192.824219 123.328125 C 192.320312 123.109375 191.742188 122.855469 191.207031 122.636719 Z M 191.207031 122.632812 " fill-opacity="1" fill-rule="nonzero"/><path fill="#e8acac" d="M 186.933594 118.496094 C 183.453125 115.273438 175.007812 111.3125 170.210938 115.539062 C 165.410156 119.761719 167.96875 128.742188 171.558594 130.460938 C 175.144531 132.179688 188.699219 123.773438 187.785156 121.777344 C 187.253906 120.617188 179 126.277344 175.617188 125.476562 C 172.234375 124.675781 172.683594 118.347656 174.984375 118.285156 C 177.28125 118.21875 191.148438 122.402344 186.933594 118.5 Z M 186.933594 118.496094 " fill-opacity="1" fill-rule="nonzero"/><path fill="#000000" d="M 172.746094 131.675781 C 172.125 131.675781 171.574219 131.578125 171.125 131.363281 C 168.964844 130.328125 167.1875 127.277344 166.699219 123.773438 C 166.191406 120.101562 167.230469 116.828125 169.546875 114.785156 C 169.964844 114.421875 170.59375 114.460938 170.960938 114.875 C 171.328125 115.292969 171.285156 115.925781 170.871094 116.289062 C 169.066406 117.878906 168.269531 120.503906 168.683594 123.496094 C 169.070312 126.273438 170.457031 128.824219 171.988281 129.558594 C 172.671875 129.882812 174.722656 129.675781 178.25 128.011719 C 181.46875 126.492188 184.292969 124.550781 185.765625 123.222656 C 185.234375 123.453125 184.664062 123.71875 184.164062 123.949219 C 181.105469 125.371094 177.636719 126.980469 175.386719 126.449219 C 172.859375 125.851562 171.964844 123.105469 172.203125 120.808594 C 172.417969 118.707031 173.5 117.324219 174.953125 117.28125 C 175.710938 117.269531 177.191406 117.558594 179.539062 118.050781 C 181.414062 118.441406 184.59375 119.105469 186.191406 119.171875 C 183.429688 116.65625 177.398438 113.640625 173.027344 115.066406 C 172.5 115.238281 171.9375 114.953125 171.765625 114.425781 C 171.59375 113.898438 171.878906 113.335938 172.40625 113.164062 C 177.632812 111.464844 184.445312 114.828125 187.613281 117.761719 C 188.03125 118.148438 189.136719 119.175781 188.578125 120.261719 C 188.46875 120.472656 188.320312 120.640625 188.128906 120.773438 C 188.378906 120.902344 188.578125 121.105469 188.695312 121.359375 C 189.199219 122.464844 188.214844 123.617188 187.429688 124.390625 C 184.792969 126.980469 177.046875 131.675781 172.746094 131.675781 Z M 175.046875 119.285156 L 175.011719 119.285156 C 174.75 119.289062 174.308594 119.910156 174.195312 121.015625 C 174.070312 122.230469 174.40625 124.160156 175.847656 124.503906 C 177.421875 124.882812 180.972656 123.226562 183.324219 122.136719 C 184.226562 121.714844 184.960938 121.378906 185.570312 121.128906 C 184.082031 121.011719 181.992188 120.609375 179.128906 120.011719 C 177.417969 119.652344 175.652344 119.285156 175.046875 119.285156 Z M 175.046875 119.285156 " fill-opacity="1" fill-rule="nonzero"/><path fill="#e8acac" d="M 186.671875 116.964844 C 188.828125 116.328125 190.34375 116.328125 190.65625 117.613281 C 190.96875 118.902344 191.050781 123.433594 190.140625 123.644531 C 189.230469 123.851562 187.417969 124.183594 186.9375 123.027344 C 186.457031 121.871094 185.3125 117.363281 186.671875 116.964844 Z M 186.671875 116.964844 " fill-opacity="1" fill-rule="nonzero"/><path fill="#000000" d="M 188.585938 124.84375 C 187.269531 124.84375 186.410156 124.367188 186.011719 123.410156 C 185.78125 122.855469 184.457031 118.761719 185.324219 116.949219 C 185.617188 116.339844 186.066406 116.097656 186.390625 116.003906 C 188.367188 115.417969 189.648438 115.390625 190.558594 115.914062 C 191.101562 116.226562 191.472656 116.730469 191.628906 117.375 C 191.898438 118.476562 192.125 122.550781 191.273438 123.929688 C 190.984375 124.390625 190.617188 124.558594 190.363281 124.617188 C 189.699219 124.769531 189.105469 124.84375 188.585938 124.84375 Z M 187.097656 117.882812 C 186.820312 118.617188 187.363281 121.441406 187.863281 122.644531 C 187.871094 122.660156 188.046875 123.042969 189.636719 122.726562 C 189.9375 121.859375 189.941406 118.910156 189.683594 117.851562 C 189.648438 117.699219 189.59375 117.671875 189.558594 117.648438 C 189.429688 117.574219 188.875 117.375 187.097656 117.882812 Z M 186.957031 117.921875 Z M 186.957031 117.921875 " fill-opacity="1" fill-rule="nonzero"/><path fill="#e8acac" d="M 189.609375 245.351562 C 196.546875 249.496094 205.050781 262.070312 204.042969 262.328125 C 203.039062 262.585938 201.125 262.070312 201.125 262.070312 C 201.125 262.070312 201.507812 264.449219 200.539062 264.527344 C 199.570312 264.601562 194.1875 252.582031 188.148438 246.453125 Z M 189.609375 245.351562 " fill-opacity="1" fill-rule="nonzero"/><g clip-path="url(#9c869305d5)"><path fill="#000000" d="M 200.496094 265.527344 C 199.597656 265.527344 199.058594 264.644531 196.75 260.667969 C 194.472656 256.742188 191.03125 250.804688 187.4375 247.15625 L 186.632812 246.339844 L 189.542969 244.144531 L 190.121094 244.492188 C 196.671875 248.402344 205.398438 260.402344 205.113281 262.367188 C 205.046875 262.828125 204.730469 263.183594 204.292969 263.296875 C 203.769531 263.429688 203.066406 263.433594 202.195312 263.304688 C 202.109375 265.191406 201.078125 265.484375 200.617188 265.523438 C 200.578125 265.523438 200.535156 265.527344 200.496094 265.527344 Z M 189.644531 246.578125 C 193.117188 250.414062 196.316406 255.925781 198.484375 259.664062 C 199.082031 260.699219 199.730469 261.816406 200.230469 262.613281 C 200.304688 262.242188 200.5 261.90625 200.792969 261.65625 C 201.179688 261.328125 201.6875 261.1875 202.1875 261.277344 C 202.394531 261.316406 202.578125 261.339844 202.742188 261.359375 C 201.136719 258.398438 194.992188 250.066406 189.660156 246.566406 Z M 203.796875 261.359375 Z M 203.796875 261.359375 " fill-opacity="1" fill-rule="nonzero"/></g><path fill="#e8acac" d="M 187.394531 245.300781 C 179.863281 248.234375 169.394531 259.226562 170.339844 259.648438 C 171.289062 260.066406 173.265625 259.875 173.265625 259.875 C 173.265625 259.875 172.492188 262.15625 173.433594 262.394531 C 174.375 262.632812 181.679688 251.671875 188.652344 246.628906 Z M 187.394531 245.300781 " fill-opacity="1" fill-rule="nonzero"/><path fill="#000000" d="M 173.503906 263.410156 C 173.402344 263.410156 173.296875 263.394531 173.191406 263.367188 C 172.632812 263.226562 171.777344 262.722656 172.003906 260.917969 C 171.125 260.898438 170.429688 260.78125 169.9375 260.5625 C 169.519531 260.378906 169.269531 259.972656 169.28125 259.507812 C 169.324219 257.523438 179.921875 247.136719 187.03125 244.367188 L 187.660156 244.125 L 190.164062 246.769531 L 189.238281 247.4375 C 185.085938 250.441406 180.707031 255.726562 177.808594 259.21875 C 175.09375 262.496094 174.308594 263.410156 173.503906 263.410156 Z M 172.363281 258.917969 C 172.863281 258.917969 173.335938 259.136719 173.65625 259.523438 C 173.90625 259.816406 174.042969 260.183594 174.054688 260.558594 C 174.679688 259.859375 175.503906 258.863281 176.265625 257.945312 C 179.023438 254.617188 183.089844 249.710938 187.15625 246.503906 L 187.140625 246.488281 C 181.300781 249.058594 173.859375 256.257812 171.789062 258.90625 C 171.949219 258.917969 172.136719 258.921875 172.34375 258.917969 Z M 172.363281 258.917969 " fill-opacity="1" fill-rule="nonzero"/><path fill="#e8acac" d="M 189.933594 241.074219 C 193.339844 237.773438 201.695312 233.628906 206.585938 237.742188 C 211.480469 241.859375 209.125 250.894531 205.574219 252.691406 C 202.027344 254.488281 188.289062 246.390625 189.15625 244.375 C 189.664062 243.203125 198.039062 248.679688 201.402344 247.800781 C 204.769531 246.921875 204.175781 240.605469 201.878906 240.59375 C 199.578125 240.582031 185.808594 245.074219 189.933594 241.074219 Z M 189.933594 241.074219 " fill-opacity="1" fill-rule="nonzero"/><path fill="#000000" d="M 204.273438 253.933594 C 199.949219 253.933594 192.234375 249.484375 189.570312 246.976562 C 188.769531 246.226562 187.757812 245.09375 188.238281 243.976562 C 188.347656 243.722656 188.542969 243.511719 188.789062 243.378906 C 188.59375 243.25 188.441406 243.085938 188.332031 242.878906 C 187.746094 241.800781 188.828125 240.753906 189.238281 240.355469 C 192.804688 236.898438 201.742188 232.359375 207.230469 236.976562 C 209.59375 238.964844 210.707031 242.214844 210.277344 245.894531 C 209.871094 249.410156 208.164062 252.5 206.027344 253.582031 C 205.546875 253.824219 204.953125 253.933594 204.273438 253.933594 Z M 191.207031 245.773438 C 192.707031 247.070312 195.578125 248.945312 198.832031 250.394531 C 202.394531 251.976562 204.441406 252.140625 205.121094 251.796875 C 206.636719 251.03125 207.96875 248.453125 208.289062 245.664062 C 208.636719 242.664062 207.78125 240.054688 205.941406 238.507812 C 201.519531 234.785156 193.753906 238.816406 190.691406 241.734375 C 192.289062 241.632812 195.449219 240.898438 197.320312 240.460938 C 199.636719 239.921875 201.101562 239.59375 201.867188 239.59375 L 201.882812 239.59375 C 202.542969 239.59375 203.148438 239.882812 203.636719 240.421875 C 204.457031 241.324219 204.886719 242.957031 204.734375 244.574219 C 204.683594 245.125 204.191406 245.539062 203.644531 245.480469 C 203.09375 245.425781 202.691406 244.9375 202.742188 244.390625 C 202.851562 243.214844 202.527344 242.179688 202.152344 241.765625 C 201.988281 241.582031 201.894531 241.589844 201.863281 241.59375 C 201.292969 241.59375 199.503906 242.007812 197.773438 242.410156 C 194.917969 243.074219 192.839844 243.523438 191.355469 243.675781 C 191.96875 243.910156 192.710938 244.230469 193.625 244.628906 C 196 245.667969 199.585938 247.234375 201.152344 246.832031 C 201.519531 246.734375 201.820312 246.539062 202.074219 246.230469 C 202.425781 245.804688 203.054688 245.746094 203.484375 246.09375 C 203.910156 246.445312 203.972656 247.078125 203.621094 247.503906 C 203.097656 248.136719 202.4375 248.5625 201.65625 248.765625 C 199.417969 249.355469 195.914062 247.816406 192.824219 246.464844 C 192.324219 246.246094 191.742188 245.992188 191.207031 245.773438 Z M 191.207031 245.773438 " fill-opacity="1" fill-rule="nonzero"/><path fill="#e8acac" d="M 186.933594 241.636719 C 183.453125 238.410156 175.007812 234.453125 170.210938 238.675781 C 165.410156 242.898438 167.96875 251.878906 171.558594 253.597656 C 175.144531 255.316406 188.699219 246.914062 187.785156 244.917969 C 187.253906 243.757812 179 249.417969 175.617188 248.613281 C 172.234375 247.8125 172.683594 241.484375 174.984375 241.421875 C 177.28125 241.359375 191.148438 245.539062 186.933594 241.636719 Z M 186.933594 241.636719 " fill-opacity="1" fill-rule="nonzero"/><path fill="#000000" d="M 172.746094 254.816406 C 172.125 254.816406 171.578125 254.71875 171.125 254.5 C 168.964844 253.464844 167.1875 250.414062 166.699219 246.910156 C 166.191406 243.238281 167.230469 239.964844 169.550781 237.925781 C 169.964844 237.558594 170.597656 237.601562 170.960938 238.015625 C 171.328125 238.429688 171.285156 239.0625 170.871094 239.425781 C 169.066406 241.015625 168.269531 243.640625 168.683594 246.632812 C 169.070312 249.414062 170.457031 251.960938 171.988281 252.695312 C 172.671875 253.019531 174.722656 252.8125 178.246094 251.148438 C 181.464844 249.628906 184.292969 247.691406 185.765625 246.359375 C 185.234375 246.59375 184.664062 246.855469 184.167969 247.085938 C 181.105469 248.511719 177.640625 250.121094 175.386719 249.589844 C 172.863281 248.988281 171.96875 246.246094 172.203125 243.949219 C 172.421875 241.84375 173.5 240.460938 174.957031 240.417969 C 175.714844 240.398438 177.195312 240.695312 179.539062 241.1875 C 181.414062 241.578125 184.59375 242.246094 186.191406 242.308594 C 183.429688 239.792969 177.402344 236.78125 173.027344 238.207031 C 172.5 238.375 171.9375 238.089844 171.765625 237.5625 C 171.59375 237.039062 171.882812 236.472656 172.40625 236.300781 C 177.636719 234.605469 184.449219 237.964844 187.613281 240.898438 C 188.03125 241.285156 189.140625 242.3125 188.578125 243.402344 C 188.46875 243.609375 188.320312 243.777344 188.128906 243.910156 C 188.378906 244.039062 188.578125 244.242188 188.695312 244.5 C 189.199219 245.601562 188.214844 246.753906 187.429688 247.527344 C 184.796875 250.117188 177.050781 254.8125 172.746094 254.816406 Z M 175.046875 242.421875 L 175.007812 242.421875 C 174.75 242.429688 174.308594 243.050781 174.195312 244.152344 C 174.070312 245.367188 174.40625 247.300781 175.847656 247.640625 C 177.421875 248.019531 180.972656 246.363281 183.324219 245.273438 C 184.226562 244.851562 184.960938 244.515625 185.570312 244.265625 C 184.082031 244.152344 181.992188 243.746094 179.128906 243.148438 C 177.417969 242.789062 175.648438 242.421875 175.046875 242.421875 Z M 175.046875 242.421875 " fill-opacity="1" fill-rule="nonzero"/><path fill="#e8acac" d="M 186.671875 240.101562 C 188.828125 239.464844 190.34375 239.464844 190.65625 240.753906 C 190.96875 242.039062 191.050781 246.574219 190.140625 246.78125 C 189.230469 246.988281 187.417969 247.324219 186.9375 246.164062 C 186.457031 245.007812 185.3125 240.503906 186.671875 240.101562 Z M 186.671875 240.101562 " fill-opacity="1" fill-rule="nonzero"/><path fill="#000000" d="M 188.585938 247.984375 C 187.269531 247.984375 186.40625 247.503906 186.011719 246.546875 C 185.78125 245.992188 184.457031 241.902344 185.324219 240.089844 C 185.613281 239.480469 186.0625 239.238281 186.390625 239.140625 C 188.363281 238.558594 189.648438 238.53125 190.554688 239.050781 C 191.101562 239.363281 191.472656 239.871094 191.628906 240.515625 C 191.898438 241.617188 192.121094 245.691406 191.269531 247.066406 C 190.984375 247.53125 190.617188 247.699219 190.363281 247.753906 C 189.699219 247.90625 189.105469 247.980469 188.585938 247.980469 Z M 187.097656 241.019531 C 186.820312 241.757812 187.363281 244.582031 187.863281 245.78125 C 187.871094 245.800781 188.050781 246.183594 189.636719 245.867188 C 189.9375 244.996094 189.941406 242.050781 189.683594 240.992188 C 189.648438 240.839844 189.59375 240.808594 189.558594 240.789062 C 189.429688 240.714844 188.875 240.515625 187.097656 241.019531 Z M 186.957031 241.0625 Z M 186.957031 241.0625 " fill-opacity="1" fill-rule="nonzero"/><path fill="#e8e8e8" d="M 333.554688 109.613281 C 336.523438 110.125 338.867188 112.90625 339.105469 115.875 C 339.140625 116.351562 339.671875 116.605469 340.054688 116.316406 C 341.203125 115.449219 342.710938 115.054688 344.097656 115.421875 C 345.683594 115.84375 346.941406 117.351562 347.035156 118.957031 C 347.054688 119.339844 347.441406 119.589844 347.808594 119.476562 C 348.972656 119.101562 350.164062 118.792969 351.378906 118.816406 C 352.886719 118.847656 354.46875 119.492188 355.21875 120.796875 C 355.777344 121.761719 355.808594 122.957031 355.601562 124.054688 C 355.105469 126.683594 353.25 129.019531 350.796875 130.101562 C 348.539062 131.09375 345.835938 130.996094 343.644531 129.875 C 343.351562 129.726562 342.992188 129.851562 342.855469 130.144531 C 341.726562 132.546875 339.222656 134.265625 336.566406 134.402344 C 334.03125 134.53125 331.488281 133.207031 330.078125 131.105469 C 329.84375 130.761719 329.347656 130.726562 329.101562 131.066406 C 327.785156 132.875 325.285156 133.800781 323.121094 133.167969 C 320.992188 132.542969 319.410156 130.472656 319.230469 128.277344 C 319.195312 127.855469 318.757812 127.613281 318.371094 127.792969 C 316.839844 128.515625 314.84375 128.234375 313.554688 127.09375 C 311.996094 125.714844 311.523438 123.320312 312.238281 121.367188 C 312.949219 119.414062 314.722656 117.941406 316.722656 117.371094 C 318.019531 117 319.542969 117.035156 320.886719 117.023438 C 322.132812 117.011719 323.382812 117.222656 324.550781 117.65625 C 324.917969 117.792969 325.316406 117.550781 325.351562 117.160156 C 325.425781 116.292969 325.75 115.089844 325.839844 114.832031 C 326.210938 113.746094 326.875 112.863281 327.554688 111.960938 C 328.910156 110.15625 331.285156 109.21875 333.554688 109.613281 Z M 333.554688 109.613281 " fill-opacity="1" fill-rule="nonzero"/><path fill="#000000" d="M 336.222656 135.410156 C 335.28125 135.410156 334.339844 135.242188 333.417969 134.90625 C 332.898438 134.71875 332.632812 134.144531 332.820312 133.625 C 333.011719 133.105469 333.585938 132.835938 334.105469 133.027344 C 334.902344 133.316406 335.71875 133.449219 336.515625 133.402344 C 338.785156 133.289062 340.96875 131.808594 341.949219 129.722656 C 342.128906 129.335938 342.46875 129.035156 342.871094 128.898438 C 343.277344 128.761719 343.722656 128.792969 344.101562 128.984375 C 346.023438 129.972656 348.4375 130.050781 350.394531 129.1875 C 352.527344 128.246094 354.1875 126.160156 354.617188 123.871094 C 354.722656 123.328125 355.246094 122.96875 355.789062 123.074219 C 356.332031 123.175781 356.6875 123.699219 356.585938 124.242188 C 356.023438 127.207031 353.960938 129.800781 351.199219 131.019531 C 348.796875 132.078125 345.976562 132.046875 343.570312 130.953125 C 342.207031 133.488281 339.464844 135.257812 336.617188 135.402344 C 336.484375 135.410156 336.351562 135.414062 336.222656 135.414062 Z M 336.222656 135.410156 " fill-opacity="1" fill-rule="nonzero"/><g clip-path="url(#6aaac095b4)"><path fill="#000000" d="M 355.222656 121.796875 C 354.875 121.796875 354.539062 121.617188 354.355469 121.296875 C 353.851562 120.425781 352.675781 119.84375 351.359375 119.820312 C 350.261719 119.796875 349.148438 120.101562 348.109375 120.429688 C 347.636719 120.578125 347.128906 120.503906 346.714844 120.222656 C 346.3125 119.945312 346.0625 119.503906 346.035156 119.015625 C 345.964844 117.851562 345.003906 116.699219 343.839844 116.390625 C 342.8125 116.121094 341.621094 116.390625 340.652344 117.117188 C 340.1875 117.46875 339.570312 117.535156 339.046875 117.300781 C 338.511719 117.058594 338.152344 116.542969 338.105469 115.957031 C 337.902344 113.375 335.828125 111.023438 333.386719 110.601562 C 332.375 110.425781 331.335938 110.558594 330.375 110.980469 C 329.871094 111.207031 329.277344 110.972656 329.058594 110.46875 C 328.835938 109.960938 329.0625 109.371094 329.570312 109.148438 C 330.890625 108.566406 332.328125 108.386719 333.726562 108.628906 C 336.867188 109.171875 339.472656 111.910156 340.019531 115.136719 C 341.363281 114.335938 342.941406 114.082031 344.351562 114.453125 C 346.191406 114.945312 347.640625 116.546875 347.96875 118.375 C 349.039062 118.054688 350.1875 117.804688 351.398438 117.816406 C 353.429688 117.859375 355.226562 118.808594 356.085938 120.296875 C 356.363281 120.773438 356.195312 121.386719 355.71875 121.664062 C 355.5625 121.753906 355.390625 121.796875 355.21875 121.796875 Z M 355.222656 121.796875 " fill-opacity="1" fill-rule="nonzero"/></g><path fill="#000000" d="M 324.515625 134.363281 C 323.945312 134.363281 323.382812 134.289062 322.839844 134.128906 C 320.515625 133.445312 318.710938 131.34375 318.300781 128.90625 C 316.492188 129.527344 314.335938 129.121094 312.890625 127.84375 C 311.074219 126.234375 310.417969 123.429688 311.296875 121.027344 C 312.089844 118.859375 314.0625 117.09375 316.449219 116.410156 C 317.730469 116.046875 319.160156 116.035156 320.417969 116.027344 L 320.875 116.023438 C 322.078125 116 323.273438 116.191406 324.417969 116.554688 C 324.554688 115.667969 324.820312 114.730469 324.894531 114.511719 C 325.277344 113.394531 325.910156 112.492188 326.527344 111.664062 C 326.859375 111.21875 327.488281 111.128906 327.925781 111.460938 C 328.371094 111.792969 328.460938 112.417969 328.132812 112.863281 C 327.585938 113.589844 327.074219 114.316406 326.785156 115.160156 C 326.707031 115.390625 326.414062 116.5 326.347656 117.25 C 326.304688 117.746094 326.042969 118.183594 325.621094 118.449219 C 325.195312 118.71875 324.679688 118.773438 324.207031 118.597656 C 323.144531 118.207031 322.027344 118.011719 320.898438 118.027344 L 320.429688 118.03125 C 319.246094 118.039062 318.015625 118.046875 317 118.335938 C 315.21875 118.847656 313.753906 120.140625 313.175781 121.714844 C 312.585938 123.339844 313.019531 125.289062 314.21875 126.347656 C 315.203125 127.214844 316.769531 127.445312 317.949219 126.894531 C 318.429688 126.664062 318.988281 126.6875 319.445312 126.953125 C 319.890625 127.210938 320.1875 127.679688 320.230469 128.199219 C 320.375 130.027344 321.710938 131.710938 323.402344 132.207031 C 325.136719 132.71875 327.191406 131.988281 328.292969 130.476562 C 328.597656 130.0625 329.070312 129.839844 329.59375 129.832031 C 330.121094 129.839844 330.613281 130.109375 330.90625 130.550781 C 331.199219 130.980469 331.546875 131.378906 331.949219 131.738281 C 332.363281 132.105469 332.398438 132.738281 332.027344 133.152344 C 331.660156 133.5625 331.027344 133.597656 330.617188 133.230469 C 330.226562 132.882812 329.871094 132.503906 329.558594 132.097656 C 328.296875 133.53125 326.390625 134.367188 324.515625 134.367188 Z M 324.515625 134.363281 " fill-opacity="1" fill-rule="nonzero"/><g clip-path="url(#ed53b211a4)"><path fill="#e8e8e8" d="M 22.4375 231.800781 C 25.402344 232.316406 27.75 235.097656 27.984375 238.0625 C 28.019531 238.539062 28.550781 238.792969 28.933594 238.503906 C 30.082031 237.640625 31.589844 237.242188 32.976562 237.609375 C 34.5625 238.03125 35.820312 239.539062 35.914062 241.144531 C 35.933594 241.527344 36.320312 241.78125 36.6875 241.664062 C 37.851562 241.292969 39.042969 240.980469 40.257812 241.003906 C 41.765625 241.035156 43.347656 241.679688 44.101562 242.984375 C 44.660156 243.953125 44.691406 245.144531 44.480469 246.242188 C 43.984375 248.875 42.128906 251.210938 39.679688 252.289062 C 37.421875 253.285156 34.714844 253.1875 32.523438 252.0625 C 32.234375 251.914062 31.871094 252.039062 31.734375 252.335938 C 30.609375 254.734375 28.105469 256.457031 25.449219 256.589844 C 22.910156 256.71875 20.367188 255.394531 18.957031 253.296875 C 18.726562 252.949219 18.226562 252.917969 17.980469 253.253906 C 16.664062 255.0625 14.164062 255.992188 12 255.355469 C 9.871094 254.730469 8.289062 252.660156 8.109375 250.46875 C 8.074219 250.046875 7.636719 249.804688 7.253906 249.984375 C 5.71875 250.703125 3.722656 250.421875 2.433594 249.28125 C 0.875 247.902344 0.402344 245.511719 1.117188 243.558594 C 1.828125 241.605469 3.605469 240.132812 5.601562 239.558594 C 6.898438 239.191406 8.421875 239.226562 9.765625 239.210938 C 11.011719 239.199219 12.261719 239.414062 13.429688 239.84375 C 13.800781 239.980469 14.195312 239.738281 14.230469 239.347656 C 14.304688 238.480469 14.628906 237.277344 14.71875 237.019531 C 15.089844 235.9375 15.753906 235.054688 16.433594 234.148438 C 17.792969 232.34375 20.164062 231.410156 22.433594 231.800781 Z M 22.4375 231.800781 " fill-opacity="1" fill-rule="nonzero"/></g><path fill="#000000" d="M 25.101562 257.601562 C 24.160156 257.601562 23.21875 257.429688 22.300781 257.09375 C 21.78125 256.90625 21.511719 256.332031 21.703125 255.8125 C 21.890625 255.292969 22.46875 255.027344 22.984375 255.214844 C 23.78125 255.503906 24.597656 255.636719 25.398438 255.589844 C 27.664062 255.476562 29.847656 253.996094 30.828125 251.910156 C 31.007812 251.523438 31.34375 251.222656 31.75 251.085938 C 32.15625 250.945312 32.601562 250.980469 32.980469 251.171875 C 34.90625 252.160156 37.316406 252.238281 39.273438 251.375 C 41.40625 250.433594 43.066406 248.347656 43.5 246.058594 C 43.601562 245.515625 44.121094 245.160156 44.667969 245.261719 C 45.210938 245.363281 45.566406 245.886719 45.464844 246.429688 C 44.90625 249.394531 42.84375 251.992188 40.082031 253.207031 C 37.675781 254.265625 34.855469 254.234375 32.449219 253.140625 C 31.085938 255.675781 28.34375 257.449219 25.5 257.589844 C 25.367188 257.597656 25.234375 257.601562 25.101562 257.601562 Z M 25.101562 257.601562 " fill-opacity="1" fill-rule="nonzero"/><path fill="#000000" d="M 44.101562 243.984375 C 43.753906 243.984375 43.417969 243.804688 43.234375 243.484375 C 42.730469 242.613281 41.554688 242.035156 40.238281 242.007812 C 39.140625 241.992188 38.027344 242.289062 36.992188 242.617188 C 36.515625 242.769531 36.007812 242.695312 35.597656 242.410156 C 35.191406 242.132812 34.941406 241.691406 34.914062 241.203125 C 34.847656 240.039062 33.882812 238.886719 32.71875 238.578125 C 31.691406 238.304688 30.503906 238.578125 29.535156 239.308594 C 29.070312 239.65625 28.453125 239.726562 27.925781 239.488281 C 27.390625 239.246094 27.03125 238.734375 26.984375 238.144531 C 26.78125 235.5625 24.707031 233.210938 22.265625 232.789062 C 21.257812 232.613281 20.214844 232.746094 19.253906 233.167969 C 18.75 233.394531 18.160156 233.160156 17.9375 232.65625 C 17.714844 232.148438 17.945312 231.558594 18.449219 231.335938 C 19.773438 230.753906 21.207031 230.578125 22.605469 230.816406 C 25.75 231.359375 28.351562 234.097656 28.898438 237.324219 C 30.242188 236.523438 31.820312 236.269531 33.230469 236.644531 C 35.070312 237.132812 36.519531 238.734375 36.847656 240.566406 C 37.917969 240.246094 39.0625 239.996094 40.277344 240.003906 C 42.3125 240.046875 44.105469 240.996094 44.964844 242.484375 C 45.242188 242.964844 45.078125 243.574219 44.597656 243.851562 C 44.441406 243.941406 44.269531 243.984375 44.097656 243.984375 Z M 44.101562 243.984375 " fill-opacity="1" fill-rule="nonzero"/><g clip-path="url(#0c0446ee5c)"><path fill="#000000" d="M 13.394531 256.550781 C 12.828125 256.550781 12.261719 256.476562 11.71875 256.316406 C 9.394531 255.632812 7.59375 253.53125 7.179688 251.09375 C 5.371094 251.714844 3.214844 251.308594 1.769531 250.03125 C -0.046875 248.421875 -0.703125 245.621094 0.175781 243.214844 C 0.96875 241.046875 2.941406 239.28125 5.328125 238.597656 C 6.609375 238.234375 8.039062 238.222656 9.296875 238.214844 L 9.753906 238.210938 C 10.964844 238.191406 12.152344 238.378906 13.300781 238.742188 C 13.4375 237.859375 13.699219 236.917969 13.773438 236.699219 C 14.15625 235.578125 14.792969 234.679688 15.40625 233.855469 C 15.738281 233.410156 16.367188 233.316406 16.808594 233.648438 C 17.25 233.980469 17.34375 234.605469 17.011719 235.050781 C 16.46875 235.777344 15.957031 236.503906 15.667969 237.347656 C 15.589844 237.582031 15.296875 238.6875 15.230469 239.4375 C 15.1875 239.933594 14.921875 240.371094 14.503906 240.636719 C 14.078125 240.90625 13.5625 240.960938 13.085938 240.785156 C 12.027344 240.394531 10.898438 240.199219 9.777344 240.214844 L 9.3125 240.21875 C 8.125 240.226562 6.898438 240.234375 5.878906 240.523438 C 4.097656 241.035156 2.632812 242.328125 2.058594 243.902344 C 1.464844 245.527344 1.902344 247.476562 3.097656 248.535156 C 4.082031 249.40625 5.652344 249.632812 6.828125 249.082031 C 7.3125 248.855469 7.871094 248.878906 8.324219 249.140625 C 8.773438 249.402344 9.066406 249.867188 9.109375 250.390625 C 9.257812 252.214844 10.59375 253.902344 12.28125 254.398438 C 14.015625 254.90625 16.074219 254.179688 17.175781 252.664062 C 17.476562 252.253906 17.957031 252.003906 18.476562 252.019531 C 19 252.03125 19.492188 252.296875 19.789062 252.738281 C 20.082031 253.171875 20.429688 253.570312 20.828125 253.925781 C 21.242188 254.292969 21.28125 254.925781 20.910156 255.339844 C 20.542969 255.75 19.910156 255.789062 19.5 255.421875 C 19.109375 255.074219 18.753906 254.691406 18.441406 254.285156 C 17.175781 255.71875 15.273438 256.554688 13.398438 256.554688 Z M 13.394531 256.550781 " fill-opacity="1" fill-rule="nonzero"/></g><path fill="#e8e8e8" d="M 363.3125 133.09375 C 364.457031 133.765625 365.335938 134.921875 365.632812 136.21875 C 365.695312 136.496094 366.019531 136.632812 366.238281 136.449219 C 367.300781 135.539062 369.023438 135.421875 370.21875 136.203125 C 371.632812 137.121094 372.230469 139.035156 371.78125 140.660156 C 371.332031 142.28125 369.960938 143.5625 368.367188 144.113281 C 366.933594 144.609375 365.351562 144.554688 363.890625 144.125 C 363.660156 144.058594 363.425781 144.203125 363.394531 144.441406 C 363.242188 145.542969 362.355469 146.492188 361.339844 147.007812 C 360.113281 147.628906 358.574219 147.742188 357.382812 147.054688 C 356.433594 146.503906 355.8125 145.378906 355.882812 144.308594 C 355.902344 144.015625 355.601562 143.820312 355.332031 143.941406 C 353.644531 144.691406 351.503906 144.421875 350.171875 143.140625 C 348.628906 141.65625 348.4375 138.949219 349.847656 137.339844 C 351.171875 135.828125 353.894531 135.429688 355.761719 136.261719 C 355.996094 136.363281 356.273438 136.242188 356.3125 135.992188 C 356.425781 135.230469 357.117188 134.191406 357.410156 133.957031 C 359.234375 132.5 361.09375 131.785156 363.3125 133.09375 Z M 363.3125 133.09375 " fill-opacity="1" fill-rule="nonzero"/><path fill="#000000" d="M 370.84375 143.417969 C 370.621094 143.417969 370.390625 143.34375 370.203125 143.1875 C 369.78125 142.832031 369.722656 142.203125 370.074219 141.777344 C 370.429688 141.351562 370.679688 140.886719 370.816406 140.390625 C 371.164062 139.132812 370.675781 137.691406 369.675781 137.042969 C 368.851562 136.503906 367.625 136.578125 366.886719 137.207031 C 366.523438 137.519531 366.039062 137.617188 365.582031 137.464844 C 365.121094 137.3125 364.765625 136.917969 364.65625 136.441406 C 364.425781 135.433594 363.734375 134.503906 362.804688 133.957031 C 361.234375 133.03125 359.894531 133.253906 358.035156 134.738281 C 357.875 134.890625 357.371094 135.679688 357.300781 136.140625 C 357.238281 136.5625 356.988281 136.921875 356.613281 137.125 C 356.230469 137.339844 355.761719 137.355469 355.355469 137.175781 C 354.265625 136.691406 352.765625 136.726562 351.617188 137.261719 C 351.117188 137.492188 350.519531 137.28125 350.289062 136.777344 C 350.054688 136.277344 350.269531 135.683594 350.769531 135.449219 C 352.222656 134.769531 354.019531 134.652344 355.527344 135.109375 C 355.84375 134.285156 356.414062 133.472656 356.785156 133.175781 C 358.359375 131.917969 360.800781 130.453125 363.820312 132.234375 C 364.964844 132.90625 365.867188 133.96875 366.351562 135.175781 C 367.714844 134.476562 369.472656 134.523438 370.765625 135.363281 C 372.496094 136.488281 373.328125 138.828125 372.746094 140.925781 C 372.535156 141.695312 372.152344 142.414062 371.613281 143.058594 C 371.417969 143.296875 371.132812 143.421875 370.84375 143.421875 Z M 355.324219 135.839844 C 355.324219 135.839844 355.324219 135.84375 355.324219 135.84375 C 355.324219 135.839844 355.324219 135.839844 355.324219 135.839844 Z M 355.324219 135.839844 " fill-opacity="1" fill-rule="nonzero"/><path fill="#000000" d="M 359.230469 148.523438 C 358.390625 148.523438 357.578125 148.324219 356.882812 147.921875 C 355.859375 147.328125 355.140625 146.277344 354.9375 145.144531 C 353.015625 145.675781 350.867188 145.195312 349.480469 143.863281 C 347.953125 142.394531 347.460938 139.976562 348.289062 137.984375 C 348.5 137.472656 349.085938 137.230469 349.597656 137.441406 C 350.109375 137.652344 350.351562 138.238281 350.136719 138.75 C 349.628906 139.980469 349.933594 141.523438 350.867188 142.417969 C 351.859375 143.375 353.566406 143.628906 354.925781 143.027344 C 355.382812 142.824219 355.898438 142.875 356.300781 143.160156 C 356.699219 143.4375 356.914062 143.894531 356.882812 144.378906 C 356.835938 145.066406 357.257812 145.824219 357.886719 146.191406 C 358.695312 146.65625 359.875 146.628906 360.890625 146.117188 C 361.714844 145.699219 362.308594 144.988281 362.402344 144.304688 C 362.457031 143.90625 362.683594 143.550781 363.019531 143.332031 C 363.359375 143.113281 363.78125 143.054688 364.171875 143.167969 C 365.128906 143.445312 366.578125 143.675781 368.042969 143.167969 C 368.566406 142.988281 369.132812 143.265625 369.316406 143.789062 C 369.496094 144.3125 369.21875 144.882812 368.695312 145.0625 C 367.324219 145.535156 365.789062 145.597656 364.226562 145.246094 C 363.855469 146.324219 362.96875 147.304688 361.792969 147.902344 C 360.972656 148.316406 360.085938 148.523438 359.230469 148.523438 Z M 359.230469 148.523438 " fill-opacity="1" fill-rule="nonzero"/><path fill="#e8e8e8" d="M 17.761719 213.101562 C 18.90625 213.773438 19.789062 214.925781 20.082031 216.222656 C 20.148438 216.5 20.472656 216.640625 20.6875 216.453125 C 21.75 215.542969 23.472656 215.429688 24.671875 216.207031 C 26.082031 217.125 26.679688 219.042969 26.230469 220.664062 C 25.78125 222.289062 24.410156 223.570312 22.816406 224.121094 C 21.382812 224.613281 19.800781 224.558594 18.339844 224.132812 C 18.109375 224.066406 17.875 224.210938 17.84375 224.449219 C 17.691406 225.546875 16.804688 226.5 15.792969 227.011719 C 14.5625 227.632812 13.023438 227.75 11.835938 227.058594 C 10.882812 226.511719 10.261719 225.386719 10.332031 224.316406 C 10.355469 224.019531 10.054688 223.828125 9.78125 223.949219 C 8.09375 224.695312 5.957031 224.429688 4.621094 223.144531 C 3.082031 221.664062 2.886719 218.953125 4.296875 217.34375 C 5.621094 215.832031 8.34375 215.433594 10.214844 216.265625 C 10.445312 216.371094 10.722656 216.25 10.761719 215.996094 C 10.878906 215.238281 11.566406 214.199219 11.859375 213.960938 C 13.6875 212.503906 15.542969 211.792969 17.761719 213.097656 Z M 17.761719 213.101562 " fill-opacity="1" fill-rule="nonzero"/><path fill="#000000" d="M 25.296875 223.425781 C 25.070312 223.425781 24.84375 223.347656 24.65625 223.191406 C 24.230469 222.839844 24.171875 222.207031 24.527344 221.78125 C 24.882812 221.359375 25.132812 220.890625 25.269531 220.398438 C 25.617188 219.136719 25.125 217.699219 24.125 217.046875 C 23.300781 216.511719 22.074219 216.585938 21.339844 217.214844 C 20.980469 217.523438 20.488281 217.621094 20.035156 217.472656 C 19.574219 217.316406 19.21875 216.925781 19.109375 216.445312 C 18.878906 215.441406 18.1875 214.511719 17.253906 213.960938 C 15.683594 213.039062 14.347656 213.257812 12.488281 214.746094 C 12.324219 214.898438 11.824219 215.6875 11.753906 216.148438 C 11.691406 216.570312 11.4375 216.929688 11.0625 217.132812 C 10.679688 217.34375 10.207031 217.359375 9.804688 217.179688 C 8.71875 216.695312 7.214844 216.730469 6.070312 217.265625 C 5.570312 217.5 4.972656 217.285156 4.738281 216.785156 C 4.503906 216.28125 4.71875 215.6875 5.222656 215.453125 C 6.675781 214.773438 8.472656 214.65625 9.976562 215.113281 C 10.292969 214.289062 10.867188 213.476562 11.238281 213.183594 C 12.8125 211.925781 15.25 210.457031 18.273438 212.238281 C 19.414062 212.914062 20.320312 213.976562 20.804688 215.183594 C 22.164062 214.484375 23.921875 214.527344 25.21875 215.367188 C 26.945312 216.492188 27.777344 218.832031 27.199219 220.933594 C 26.984375 221.703125 26.601562 222.421875 26.066406 223.066406 C 25.867188 223.304688 25.582031 223.425781 25.296875 223.425781 Z M 21.058594 216 Z M 20.039062 215.691406 C 20.039062 215.691406 20.039062 215.695312 20.035156 215.695312 C 20.035156 215.695312 20.039062 215.691406 20.039062 215.691406 Z M 10.617188 215.351562 C 10.617188 215.351562 10.621094 215.351562 10.621094 215.351562 C 10.621094 215.351562 10.617188 215.351562 10.617188 215.351562 Z M 10.617188 215.351562 " fill-opacity="1" fill-rule="nonzero"/><path fill="#000000" d="M 13.683594 228.53125 C 12.839844 228.53125 12.027344 228.328125 11.332031 227.925781 C 10.308594 227.335938 9.589844 226.28125 9.386719 225.148438 C 7.460938 225.679688 5.3125 225.199219 3.929688 223.867188 C 2.402344 222.398438 1.910156 219.980469 2.738281 217.988281 C 2.953125 217.476562 3.535156 217.234375 4.046875 217.445312 C 4.558594 217.660156 4.800781 218.246094 4.589844 218.753906 C 4.078125 219.984375 4.382812 221.527344 5.316406 222.425781 C 6.3125 223.378906 8.019531 223.636719 9.378906 223.035156 C 9.835938 222.832031 10.347656 222.882812 10.753906 223.164062 C 11.148438 223.441406 11.367188 223.898438 11.332031 224.386719 C 11.285156 225.070312 11.707031 225.832031 12.335938 226.195312 C 13.144531 226.664062 14.324219 226.632812 15.339844 226.121094 C 16.164062 225.703125 16.757812 224.996094 16.851562 224.3125 C 16.90625 223.910156 17.132812 223.558594 17.46875 223.339844 C 17.808594 223.117188 18.230469 223.058594 18.621094 223.171875 C 19.578125 223.453125 21.03125 223.679688 22.492188 223.171875 C 23.015625 222.992188 23.585938 223.269531 23.765625 223.792969 C 23.945312 224.316406 23.667969 224.886719 23.144531 225.066406 C 21.773438 225.539062 20.238281 225.601562 18.675781 225.25 C 18.300781 226.332031 17.417969 227.3125 16.242188 227.90625 C 15.421875 228.320312 14.539062 228.527344 13.683594 228.527344 Z M 18.835938 224.585938 Z M 9.335938 224.25 Z M 9.335938 224.25 " fill-opacity="1" fill-rule="nonzero"/><path fill="#e8acac" d="M 34.039062 133.042969 C 36.703125 128.214844 33.195312 123.691406 30.480469 124.367188 C 28.203125 124.933594 28.210938 127.335938 28.273438 128.09375 C 28.28125 128.199219 28.179688 128.28125 28.078125 128.246094 C 27.179688 127.949219 23.785156 126.984375 23.023438 129.21875 C 21.941406 132.386719 30.960938 138.609375 34.039062 133.042969 Z M 34.039062 133.042969 " fill-opacity="1" fill-rule="nonzero"/><path fill="#000000" d="M 30.257812 136.273438 C 29.234375 136.273438 28.128906 136.027344 26.984375 135.519531 C 23.988281 134.195312 21.261719 131.285156 22.074219 128.898438 C 22.691406 127.089844 24.648438 126.398438 27.292969 126.988281 C 27.472656 125.414062 28.308594 123.878906 30.238281 123.394531 C 31.742188 123.019531 33.40625 123.742188 34.585938 125.277344 C 35.960938 127.066406 36.765625 130.171875 34.914062 133.527344 C 33.917969 135.328125 32.25 136.273438 30.257812 136.273438 Z M 25.492188 128.78125 C 24.800781 128.78125 24.167969 128.957031 23.96875 129.542969 C 23.648438 130.484375 25.386719 132.621094 27.792969 133.6875 C 28.941406 134.195312 31.757812 135.101562 33.160156 132.558594 C 34.546875 130.050781 33.984375 127.78125 32.996094 126.496094 C 32.324219 125.617188 31.429688 125.164062 30.722656 125.335938 C 29.300781 125.691406 29.203125 127.167969 29.269531 128.011719 C 29.300781 128.398438 29.140625 128.769531 28.835938 129.011719 C 28.53125 129.25 28.132812 129.316406 27.761719 129.195312 C 27.566406 129.128906 26.46875 128.78125 25.496094 128.78125 Z M 34.039062 133.042969 L 34.042969 133.042969 Z M 27.273438 128.171875 L 27.273438 128.175781 Z M 27.273438 128.171875 " fill-opacity="1" fill-rule="nonzero"/><path fill="#e89595" d="M 22.367188 150.261719 C 25.867188 142.886719 20.265625 136.523438 16.316406 137.769531 C 13.003906 138.816406 13.234375 142.363281 13.394531 143.476562 C 13.417969 143.636719 13.277344 143.761719 13.121094 143.722656 C 11.765625 143.363281 6.660156 142.25 5.738281 145.621094 C 4.433594 150.402344 18.328125 158.777344 22.367188 150.265625 Z M 22.367188 150.261719 " fill-opacity="1" fill-rule="nonzero"/><path fill="#000000" d="M 16.460938 154.914062 C 15.175781 154.914062 13.785156 154.652344 12.335938 154.117188 C 7.96875 152.5 3.890625 148.59375 4.773438 145.355469 C 5.75 141.785156 9.984375 142.0625 12.316406 142.511719 C 12.28125 140.167969 13.222656 137.695312 16.015625 136.8125 C 18.015625 136.183594 20.347656 137.039062 22.101562 139.054688 C 24.195312 141.457031 25.601562 145.777344 23.269531 150.691406 C 21.960938 153.449219 19.503906 154.914062 16.460938 154.914062 Z M 9.789062 144.253906 C 8.417969 144.253906 7.054688 144.601562 6.703125 145.886719 C 6.203125 147.722656 9.335938 150.871094 13.027344 152.238281 C 14.894531 152.929688 19.449219 154.078125 21.460938 149.835938 C 23.378906 145.792969 22.269531 142.296875 20.59375 140.367188 C 19.386719 138.988281 17.828125 138.339844 16.617188 138.722656 C 14.117188 139.511719 14.222656 142.210938 14.386719 143.335938 C 14.445312 143.742188 14.296875 144.148438 13.988281 144.421875 C 13.683594 144.695312 13.265625 144.796875 12.867188 144.691406 C 12.421875 144.574219 11.101562 144.253906 9.789062 144.253906 Z M 9.789062 144.253906 " fill-opacity="1" fill-rule="nonzero"/><path fill="#e8e8e8" d="M 17.847656 123.875 C 13.875 125.105469 11.070312 121.824219 11.980469 119.921875 C 12.75 118.324219 14.519531 118.699219 15.070312 118.859375 C 15.148438 118.882812 15.222656 118.820312 15.214844 118.738281 C 15.132812 118.027344 14.9375 115.375 16.707031 115.152344 C 19.210938 114.839844 22.433594 122.449219 17.847656 123.875 Z M 17.847656 123.875 " fill-opacity="1" fill-rule="nonzero"/><path fill="#000000" d="M 16.117188 125.148438 C 14.210938 125.148438 12.714844 124.265625 11.839844 123.253906 C 10.824219 122.074219 10.53125 120.628906 11.078125 119.488281 C 11.738281 118.121094 12.964844 117.667969 14.160156 117.703125 C 14.199219 115.671875 15.078125 114.347656 16.582031 114.160156 C 18.601562 113.898438 20.449219 116.46875 20.996094 118.988281 C 21.613281 121.855469 20.519531 124.089844 18.144531 124.828125 C 17.429688 125.050781 16.75 125.148438 16.117188 125.148438 Z M 17.847656 123.875 L 17.855469 123.875 Z M 14.027344 119.699219 C 13.585938 119.699219 13.128906 119.84375 12.882812 120.355469 C 12.691406 120.753906 12.882812 121.394531 13.355469 121.945312 C 14.105469 122.8125 15.597656 123.523438 17.550781 122.917969 C 19.382812 122.347656 19.265625 120.476562 19.039062 119.410156 C 18.605469 117.417969 17.332031 116.074219 16.828125 116.144531 C 16.089844 116.238281 16.132812 117.964844 16.207031 118.621094 C 16.253906 118.992188 16.109375 119.359375 15.820312 119.601562 C 15.535156 119.84375 15.148438 119.925781 14.789062 119.820312 C 14.582031 119.757812 14.308594 119.699219 14.027344 119.699219 Z M 15.347656 117.898438 C 15.347656 117.898438 15.351562 117.898438 15.351562 117.898438 C 15.351562 117.898438 15.351562 117.898438 15.347656 117.898438 Z M 15.347656 117.898438 " fill-opacity="1" fill-rule="nonzero"/><path fill="#e8acac" d="M 344.914062 234 C 342.25 229.171875 345.757812 224.648438 348.472656 225.324219 C 350.75 225.890625 350.742188 228.292969 350.679688 229.050781 C 350.671875 229.15625 350.773438 229.238281 350.875 229.203125 C 351.773438 228.902344 355.167969 227.941406 355.929688 230.175781 C 357.007812 233.34375 347.992188 239.566406 344.914062 234 Z M 344.914062 234 " fill-opacity="1" fill-rule="nonzero"/><path fill="#000000" d="M 348.695312 237.230469 C 346.703125 237.230469 345.035156 236.285156 344.039062 234.480469 C 342.1875 231.128906 342.992188 228.023438 344.367188 226.234375 C 345.546875 224.699219 347.214844 223.976562 348.714844 224.351562 C 350.648438 224.832031 351.480469 226.371094 351.660156 227.945312 C 354.304688 227.351562 356.261719 228.042969 356.878906 229.851562 C 357.691406 232.242188 354.964844 235.148438 351.972656 236.472656 C 350.824219 236.980469 349.71875 237.230469 348.695312 237.230469 Z M 347.917969 226.257812 C 347.273438 226.257812 346.535156 226.699219 345.957031 227.453125 C 344.96875 228.738281 344.40625 231.007812 345.792969 233.515625 C 347.195312 236.058594 350.015625 235.152344 351.160156 234.644531 C 353.566406 233.578125 355.304688 231.4375 354.984375 230.5 C 354.503906 229.09375 351.527344 230.039062 351.191406 230.152344 C 350.820312 230.273438 350.417969 230.203125 350.117188 229.964844 C 349.8125 229.726562 349.652344 229.355469 349.683594 228.972656 C 349.75 228.121094 349.65625 226.648438 348.230469 226.292969 C 348.128906 226.269531 348.023438 226.257812 347.917969 226.257812 Z M 347.917969 226.257812 " fill-opacity="1" fill-rule="nonzero"/><path fill="#e89595" d="M 356.585938 251.21875 C 353.085938 243.84375 358.6875 237.480469 362.636719 238.726562 C 365.949219 239.773438 365.71875 243.320312 365.558594 244.433594 C 365.535156 244.589844 365.675781 244.71875 365.832031 244.679688 C 367.1875 244.320312 372.292969 243.207031 373.214844 246.578125 C 374.519531 251.359375 360.625 259.730469 356.585938 251.21875 Z M 356.585938 251.21875 " fill-opacity="1" fill-rule="nonzero"/><g clip-path="url(#ac4fb36c7b)"><path fill="#000000" d="M 362.492188 255.871094 C 359.449219 255.871094 356.988281 254.40625 355.679688 251.648438 C 353.347656 246.730469 354.757812 242.414062 356.851562 240.007812 C 358.605469 237.996094 360.9375 237.140625 362.9375 237.769531 C 365.722656 238.652344 366.667969 241.121094 366.636719 243.460938 C 370.675781 242.652344 373.460938 243.6875 374.179688 246.3125 C 375.0625 249.550781 370.984375 253.457031 366.617188 255.074219 C 365.167969 255.609375 363.777344 255.871094 362.492188 255.871094 Z M 357.492188 250.789062 C 359.503906 255.035156 364.058594 253.886719 365.921875 253.195312 C 369.617188 251.828125 372.75 248.679688 372.246094 246.839844 C 371.5625 244.328125 366.996094 245.402344 366.085938 245.644531 C 365.691406 245.75 365.273438 245.652344 364.964844 245.378906 C 364.65625 245.105469 364.507812 244.699219 364.566406 244.289062 C 364.726562 243.167969 364.832031 240.46875 362.335938 239.679688 C 361.125 239.296875 359.566406 239.941406 358.363281 241.324219 C 356.683594 243.25 355.574219 246.746094 357.492188 250.789062 Z M 366.550781 244.570312 C 366.550781 244.570312 366.550781 244.574219 366.550781 244.574219 C 366.550781 244.574219 366.550781 244.574219 366.550781 244.570312 Z M 365.578125 243.710938 C 365.578125 243.710938 365.574219 243.710938 365.570312 243.710938 C 365.574219 243.710938 365.574219 243.710938 365.578125 243.710938 Z M 365.578125 243.710938 " fill-opacity="1" fill-rule="nonzero"/></g><path fill="#e8e8e8" d="M 361.105469 224.828125 C 365.078125 226.0625 367.882812 222.777344 366.96875 220.878906 C 366.203125 219.28125 364.429688 219.652344 363.878906 219.816406 C 363.804688 219.839844 363.726562 219.773438 363.738281 219.695312 C 363.820312 218.984375 364.015625 216.332031 362.246094 216.109375 C 359.742188 215.792969 356.519531 223.40625 361.105469 224.832031 Z M 361.105469 224.828125 " fill-opacity="1" fill-rule="nonzero"/><path fill="#000000" d="M 362.835938 226.105469 C 362.203125 226.105469 361.523438 226.007812 360.808594 225.785156 C 358.429688 225.046875 357.339844 222.808594 357.957031 219.945312 C 358.5 217.421875 360.347656 214.855469 362.371094 215.113281 C 363.875 215.304688 364.753906 216.628906 364.792969 218.660156 C 365.988281 218.632812 367.214844 219.074219 367.875 220.445312 C 368.421875 221.585938 368.128906 223.027344 367.109375 224.207031 C 366.238281 225.21875 364.742188 226.105469 362.835938 226.105469 Z M 362.085938 217.097656 C 361.5625 217.097656 360.335938 218.417969 359.914062 220.367188 C 359.683594 221.433594 359.570312 223.304688 361.402344 223.871094 C 363.351562 224.476562 364.84375 223.765625 365.59375 222.898438 C 366.070312 222.347656 366.257812 221.710938 366.066406 221.308594 C 365.667969 220.476562 364.699219 220.617188 364.160156 220.773438 C 363.800781 220.882812 363.414062 220.800781 363.128906 220.558594 C 362.84375 220.316406 362.699219 219.953125 362.742188 219.582031 C 362.820312 218.917969 362.859375 217.191406 362.121094 217.101562 C 362.109375 217.097656 362.097656 217.097656 362.085938 217.097656 Z M 363.601562 218.851562 C 363.601562 218.851562 363.597656 218.851562 363.597656 218.851562 C 363.597656 218.851562 363.601562 218.851562 363.601562 218.851562 Z M 363.601562 218.851562 " fill-opacity="1" fill-rule="nonzero"/></svg>